SplineFontDB: 3.2
FontName: Fixed9x15-Bold
FullName: Fixed 9x15 Bold
FamilyName: Fixed 9x15
Weight: Bold
Copyright: Public domain font.  Share and enjoy.
UComments: "2020-2-12: Created with FontForge (http://fontforge.org)"
Version: 001.000
ItalicAngle: 0
UnderlinePosition: -100
UnderlineWidth: 50
Ascent: 800
Descent: 200
InvalidEm: 0
LayerCount: 2
Layer: 0 0 "Back" 1
Layer: 1 0 "Fore" 0
XUID: [1021 907 -158375503 12532551]
StyleMap: 0x0000
FSType: 0
OS2Version: 0
OS2_WeightWidthSlopeOnly: 0
OS2_UseTypoMetrics: 1
CreationTime: 1581546980
ModificationTime: 1581546989
OS2TypoAscent: 0
OS2TypoAOffset: 1
OS2TypoDescent: 0
OS2TypoDOffset: 1
OS2TypoLinegap: 90
OS2WinAscent: 0
OS2WinAOffset: 1
OS2WinDescent: 0
OS2WinDOffset: 1
HheadAscent: 0
HheadAOffset: 1
HheadDescent: 0
HheadDOffset: 1
DEI: 91125
Encoding: UnicodeBmp
UnicodeInterp: none
NameList: AGL For New Fonts
DisplaySize: 15
AntiAlias: 1
FitToEm: 0
BeginChars: 65536 1688

StartChar: char0
Encoding: 0 0 0
Width: 600
VWidth: 0
Flags: HW
LayerCount: 2
Back
Fore
SplineSet
0 666.666992188 m 1
 133.333007812 666.666992188 l 1
 133.333007812 733.333007812 l 1
 0 733.333007812 l 1
 0 666.666992188 l 1025
200 666.666992188 m 1
 333.333007812 666.666992188 l 1
 333.333007812 733.333007812 l 1
 200 733.333007812 l 1
 200 666.666992188 l 1025
400 666.666992188 m 1
 533.333007812 666.666992188 l 1
 533.333007812 733.333007812 l 1
 400 733.333007812 l 1
 400 666.666992188 l 1025
0 600 m 1
 133.333007812 600 l 1
 133.333007812 666.666992188 l 1
 0 666.666992188 l 1
 0 600 l 1025
200 600 m 1
 333.333007812 600 l 1
 333.333007812 666.666992188 l 1
 200 666.666992188 l 1
 200 600 l 1025
400 600 m 1
 533.333007812 600 l 1
 533.333007812 666.666992188 l 1
 400 666.666992188 l 1
 400 600 l 1025
0 466.666992188 m 1
 133.333007812 466.666992188 l 1
 133.333007812 533.333007812 l 1
 0 533.333007812 l 1
 0 466.666992188 l 1025
400 466.666992188 m 1
 533.333007812 466.666992188 l 1
 533.333007812 533.333007812 l 1
 400 533.333007812 l 1
 400 466.666992188 l 1025
0 400 m 1
 133.333007812 400 l 1
 133.333007812 466.666992188 l 1
 0 466.666992188 l 1
 0 400 l 1025
400 400 m 1
 533.333007812 400 l 1
 533.333007812 466.666992188 l 1
 400 466.666992188 l 1
 400 400 l 1025
0 266.666992188 m 1
 133.333007812 266.666992188 l 1
 133.333007812 333.333007812 l 1
 0 333.333007812 l 1
 0 266.666992188 l 1025
400 266.666992188 m 1
 533.333007812 266.666992188 l 1
 533.333007812 333.333007812 l 1
 400 333.333007812 l 1
 400 266.666992188 l 1025
0 200 m 1
 133.333007812 200 l 1
 133.333007812 266.666992188 l 1
 0 266.666992188 l 1
 0 200 l 1025
400 200 m 1
 533.333007812 200 l 1
 533.333007812 266.666992188 l 1
 400 266.666992188 l 1
 400 200 l 1025
0 66.6669921875 m 1
 133.333007812 66.6669921875 l 1
 133.333007812 133.333007812 l 1
 0 133.333007812 l 1
 0 66.6669921875 l 1025
200 66.6669921875 m 1
 333.333007812 66.6669921875 l 1
 333.333007812 133.333007812 l 1
 200 133.333007812 l 1
 200 66.6669921875 l 1025
400 66.6669921875 m 1
 533.333007812 66.6669921875 l 1
 533.333007812 133.333007812 l 1
 400 133.333007812 l 1
 400 66.6669921875 l 1025
0 -0 m 1
 133.333007812 -0 l 1
 133.333007812 66.6669921875 l 1
 0 66.6669921875 l 1
 0 -0 l 1025
200 -0 m 1
 333.333007812 -0 l 1
 333.333007812 66.6669921875 l 1
 200 66.6669921875 l 1
 200 -0 l 1025
400 -0 m 1
 533.333007812 -0 l 1
 533.333007812 66.6669921875 l 1
 400 66.6669921875 l 1
 400 -0 l 1
EndSplineSet
EndChar

StartChar: exclam
Encoding: 33 33 2
Width: 600
VWidth: 0
Flags: HW
LayerCount: 2
Back
Fore
SplineSet
200 600 m 1
 333.333007812 600 l 1
 333.333007812 666.666992188 l 1
 200 666.666992188 l 1
 200 600 l 1025
200 533.333007812 m 1
 333.333007812 533.333007812 l 1
 333.333007812 600 l 1
 200 600 l 1
 200 533.333007812 l 1025
200 466.666992188 m 1
 333.333007812 466.666992188 l 1
 333.333007812 533.333007812 l 1
 200 533.333007812 l 1
 200 466.666992188 l 1025
200 400 m 1
 333.333007812 400 l 1
 333.333007812 466.666992188 l 1
 200 466.666992188 l 1
 200 400 l 1025
200 333.333007812 m 1
 333.333007812 333.333007812 l 1
 333.333007812 400 l 1
 200 400 l 1
 200 333.333007812 l 1025
200 266.666992188 m 1
 333.333007812 266.666992188 l 1
 333.333007812 333.333007812 l 1
 200 333.333007812 l 1
 200 266.666992188 l 1025
200 200 m 1
 333.333007812 200 l 1
 333.333007812 266.666992188 l 1
 200 266.666992188 l 1
 200 200 l 1025
200 133.333007812 m 1
 333.333007812 133.333007812 l 1
 333.333007812 200 l 1
 200 200 l 1
 200 133.333007812 l 1025
200 -0 m 1
 333.333007812 -0 l 1
 333.333007812 66.6669921875 l 1
 200 66.6669921875 l 1
 200 -0 l 1
EndSplineSet
EndChar

StartChar: quotedbl
Encoding: 34 34 3
Width: 600
VWidth: 0
Flags: HW
LayerCount: 2
Back
Fore
SplineSet
133.333007812 600 m 1
 266.666992188 600 l 1
 266.666992188 666.666992188 l 1
 133.333007812 666.666992188 l 1
 133.333007812 600 l 1025
333.333007812 600 m 1
 466.666992188 600 l 1
 466.666992188 666.666992188 l 1
 333.333007812 666.666992188 l 1
 333.333007812 600 l 1025
133.333007812 533.333007812 m 1
 266.666992188 533.333007812 l 1
 266.666992188 600 l 1
 133.333007812 600 l 1
 133.333007812 533.333007812 l 1025
333.333007812 533.333007812 m 1
 466.666992188 533.333007812 l 1
 466.666992188 600 l 1
 333.333007812 600 l 1
 333.333007812 533.333007812 l 1025
133.333007812 466.666992188 m 1
 266.666992188 466.666992188 l 1
 266.666992188 533.333007812 l 1
 133.333007812 533.333007812 l 1
 133.333007812 466.666992188 l 1025
333.333007812 466.666992188 m 1
 466.666992188 466.666992188 l 1
 466.666992188 533.333007812 l 1
 333.333007812 533.333007812 l 1
 333.333007812 466.666992188 l 1
EndSplineSet
EndChar

StartChar: numbersign
Encoding: 35 35 4
Width: 600
VWidth: 0
Flags: HW
LayerCount: 2
Back
Fore
SplineSet
133.333007812 533.333007812 m 1
 266.666992188 533.333007812 l 1
 266.666992188 600 l 1
 133.333007812 600 l 1
 133.333007812 533.333007812 l 1025
333.333007812 533.333007812 m 1
 466.666992188 533.333007812 l 1
 466.666992188 600 l 1
 333.333007812 600 l 1
 333.333007812 533.333007812 l 1025
133.333007812 466.666992188 m 1
 266.666992188 466.666992188 l 1
 266.666992188 533.333007812 l 1
 133.333007812 533.333007812 l 1
 133.333007812 466.666992188 l 1025
333.333007812 466.666992188 m 1
 466.666992188 466.666992188 l 1
 466.666992188 533.333007812 l 1
 333.333007812 533.333007812 l 1
 333.333007812 466.666992188 l 1025
66.6669921875 400 m 1
 533.333007812 400 l 1
 533.333007812 466.666992188 l 1
 66.6669921875 466.666992188 l 1
 66.6669921875 400 l 1025
133.333007812 333.333007812 m 1
 266.666992188 333.333007812 l 1
 266.666992188 400 l 1
 133.333007812 400 l 1
 133.333007812 333.333007812 l 1025
333.333007812 333.333007812 m 1
 466.666992188 333.333007812 l 1
 466.666992188 400 l 1
 333.333007812 400 l 1
 333.333007812 333.333007812 l 1025
133.333007812 266.666992188 m 1
 266.666992188 266.666992188 l 1
 266.666992188 333.333007812 l 1
 133.333007812 333.333007812 l 1
 133.333007812 266.666992188 l 1025
333.333007812 266.666992188 m 1
 466.666992188 266.666992188 l 1
 466.666992188 333.333007812 l 1
 333.333007812 333.333007812 l 1
 333.333007812 266.666992188 l 1025
66.6669921875 200 m 1
 533.333007812 200 l 1
 533.333007812 266.666992188 l 1
 66.6669921875 266.666992188 l 1
 66.6669921875 200 l 1025
133.333007812 133.333007812 m 1
 266.666992188 133.333007812 l 1
 266.666992188 200 l 1
 133.333007812 200 l 1
 133.333007812 133.333007812 l 1025
333.333007812 133.333007812 m 1
 466.666992188 133.333007812 l 1
 466.666992188 200 l 1
 333.333007812 200 l 1
 333.333007812 133.333007812 l 1025
133.333007812 66.6669921875 m 1
 266.666992188 66.6669921875 l 1
 266.666992188 133.333007812 l 1
 133.333007812 133.333007812 l 1
 133.333007812 66.6669921875 l 1025
333.333007812 66.6669921875 m 1
 466.666992188 66.6669921875 l 1
 466.666992188 133.333007812 l 1
 333.333007812 133.333007812 l 1
 333.333007812 66.6669921875 l 1
EndSplineSet
EndChar

StartChar: dollar
Encoding: 36 36 5
Width: 600
VWidth: 0
Flags: HW
LayerCount: 2
Back
Fore
SplineSet
266.666992188 600 m 1
 333.333007812 600 l 1
 333.333007812 666.666992188 l 1
 266.666992188 666.666992188 l 1
 266.666992188 600 l 1025
133.333007812 533.333007812 m 1
 466.666992188 533.333007812 l 1
 466.666992188 600 l 1
 133.333007812 600 l 1
 133.333007812 533.333007812 l 1025
66.6669921875 466.666992188 m 1
 200 466.666992188 l 1
 200 533.333007812 l 1
 66.6669921875 533.333007812 l 1
 66.6669921875 466.666992188 l 1025
266.666992188 466.666992188 m 1
 333.333007812 466.666992188 l 1
 333.333007812 533.333007812 l 1
 266.666992188 533.333007812 l 1
 266.666992188 466.666992188 l 1025
400 466.666992188 m 1
 533.333007812 466.666992188 l 1
 533.333007812 533.333007812 l 1
 400 533.333007812 l 1
 400 466.666992188 l 1025
66.6669921875 400 m 1
 200 400 l 1
 200 466.666992188 l 1
 66.6669921875 466.666992188 l 1
 66.6669921875 400 l 1025
266.666992188 400 m 1
 333.333007812 400 l 1
 333.333007812 466.666992188 l 1
 266.666992188 466.666992188 l 1
 266.666992188 400 l 1025
66.6669921875 333.333007812 m 1
 333.333007812 333.333007812 l 1
 333.333007812 400 l 1
 66.6669921875 400 l 1
 66.6669921875 333.333007812 l 1025
133.333007812 266.666992188 m 1
 466.666992188 266.666992188 l 1
 466.666992188 333.333007812 l 1
 133.333007812 333.333007812 l 1
 133.333007812 266.666992188 l 1025
266.666992188 200 m 1
 533.333007812 200 l 1
 533.333007812 266.666992188 l 1
 266.666992188 266.666992188 l 1
 266.666992188 200 l 1025
266.666992188 133.333007812 m 1
 333.333007812 133.333007812 l 1
 333.333007812 200 l 1
 266.666992188 200 l 1
 266.666992188 133.333007812 l 1025
400 133.333007812 m 1
 533.333007812 133.333007812 l 1
 533.333007812 200 l 1
 400 200 l 1
 400 133.333007812 l 1025
66.6669921875 66.6669921875 m 1
 200 66.6669921875 l 1
 200 133.333007812 l 1
 66.6669921875 133.333007812 l 1
 66.6669921875 66.6669921875 l 1025
266.666992188 66.6669921875 m 1
 333.333007812 66.6669921875 l 1
 333.333007812 133.333007812 l 1
 266.666992188 133.333007812 l 1
 266.666992188 66.6669921875 l 1025
400 66.6669921875 m 1
 533.333007812 66.6669921875 l 1
 533.333007812 133.333007812 l 1
 400 133.333007812 l 1
 400 66.6669921875 l 1025
133.333007812 -0 m 1
 466.666992188 -0 l 1
 466.666992188 66.6669921875 l 1
 133.333007812 66.6669921875 l 1
 133.333007812 -0 l 1025
266.666992188 -66.6669921875 m 1
 333.333007812 -66.6669921875 l 1
 333.333007812 -0 l 1
 266.666992188 -0 l 1
 266.666992188 -66.6669921875 l 1
EndSplineSet
EndChar

StartChar: percent
Encoding: 37 37 6
Width: 600
VWidth: 0
Flags: HW
LayerCount: 2
Back
Fore
SplineSet
66.6669921875 600 m 1
 133.333007812 600 l 1
 133.333007812 666.666992188 l 1
 66.6669921875 666.666992188 l 1
 66.6669921875 600 l 1025
400 600 m 1
 533.333007812 600 l 1
 533.333007812 666.666992188 l 1
 400 666.666992188 l 1
 400 600 l 1025
0 533.333007812 m 1
 200 533.333007812 l 1
 200 600 l 1
 0 600 l 1
 0 533.333007812 l 1025
333.333007812 533.333007812 m 1
 466.666992188 533.333007812 l 1
 466.666992188 600 l 1
 333.333007812 600 l 1
 333.333007812 533.333007812 l 1025
0 466.666992188 m 1
 200 466.666992188 l 1
 200 533.333007812 l 1
 0 533.333007812 l 1
 0 466.666992188 l 1025
333.333007812 466.666992188 m 1
 466.666992188 466.666992188 l 1
 466.666992188 533.333007812 l 1
 333.333007812 533.333007812 l 1
 333.333007812 466.666992188 l 1025
66.6669921875 400 m 1
 133.333007812 400 l 1
 133.333007812 466.666992188 l 1
 66.6669921875 466.666992188 l 1
 66.6669921875 400 l 1025
266.666992188 400 m 1
 400 400 l 1
 400 466.666992188 l 1
 266.666992188 466.666992188 l 1
 266.666992188 400 l 1025
200 333.333007812 m 1
 333.333007812 333.333007812 l 1
 333.333007812 400 l 1
 200 400 l 1
 200 333.333007812 l 1025
200 266.666992188 m 1
 333.333007812 266.666992188 l 1
 333.333007812 333.333007812 l 1
 200 333.333007812 l 1
 200 266.666992188 l 1025
133.333007812 200 m 1
 266.666992188 200 l 1
 266.666992188 266.666992188 l 1
 133.333007812 266.666992188 l 1
 133.333007812 200 l 1025
400 200 m 1
 466.666992188 200 l 1
 466.666992188 266.666992188 l 1
 400 266.666992188 l 1
 400 200 l 1025
66.6669921875 133.333007812 m 1
 200 133.333007812 l 1
 200 200 l 1
 66.6669921875 200 l 1
 66.6669921875 133.333007812 l 1025
333.333007812 133.333007812 m 1
 533.333007812 133.333007812 l 1
 533.333007812 200 l 1
 333.333007812 200 l 1
 333.333007812 133.333007812 l 1025
66.6669921875 66.6669921875 m 1
 200 66.6669921875 l 1
 200 133.333007812 l 1
 66.6669921875 133.333007812 l 1
 66.6669921875 66.6669921875 l 1025
333.333007812 66.6669921875 m 1
 533.333007812 66.6669921875 l 1
 533.333007812 133.333007812 l 1
 333.333007812 133.333007812 l 1
 333.333007812 66.6669921875 l 1025
0 -0 m 1
 133.333007812 -0 l 1
 133.333007812 66.6669921875 l 1
 0 66.6669921875 l 1
 0 -0 l 1025
400 -0 m 1
 466.666992188 -0 l 1
 466.666992188 66.6669921875 l 1
 400 66.6669921875 l 1
 400 -0 l 1
EndSplineSet
EndChar

StartChar: ampersand
Encoding: 38 38 7
Width: 600
VWidth: 0
Flags: HW
LayerCount: 2
Back
Fore
SplineSet
133.333007812 600 m 1
 333.333007812 600 l 1
 333.333007812 666.666992188 l 1
 133.333007812 666.666992188 l 1
 133.333007812 600 l 1025
66.6669921875 533.333007812 m 1
 200 533.333007812 l 1
 200 600 l 1
 66.6669921875 600 l 1
 66.6669921875 533.333007812 l 1025
266.666992188 533.333007812 m 1
 400 533.333007812 l 1
 400 600 l 1
 266.666992188 600 l 1
 266.666992188 533.333007812 l 1025
66.6669921875 466.666992188 m 1
 200 466.666992188 l 1
 200 533.333007812 l 1
 66.6669921875 533.333007812 l 1
 66.6669921875 466.666992188 l 1025
266.666992188 466.666992188 m 1
 400 466.666992188 l 1
 400 533.333007812 l 1
 266.666992188 533.333007812 l 1
 266.666992188 466.666992188 l 1025
66.6669921875 400 m 1
 333.333007812 400 l 1
 333.333007812 466.666992188 l 1
 66.6669921875 466.666992188 l 1
 66.6669921875 400 l 1025
133.333007812 333.333007812 m 1
 266.666992188 333.333007812 l 1
 266.666992188 400 l 1
 133.333007812 400 l 1
 133.333007812 333.333007812 l 1025
66.6669921875 266.666992188 m 1
 333.333007812 266.666992188 l 1
 333.333007812 333.333007812 l 1
 66.6669921875 333.333007812 l 1
 66.6669921875 266.666992188 l 1025
466.666992188 266.666992188 m 1
 533.333007812 266.666992188 l 1
 533.333007812 333.333007812 l 1
 466.666992188 333.333007812 l 1
 466.666992188 266.666992188 l 1025
0 200 m 1
 133.333007812 200 l 1
 133.333007812 266.666992188 l 1
 0 266.666992188 l 1
 0 200 l 1025
266.666992188 200 m 1
 533.333007812 200 l 1
 533.333007812 266.666992188 l 1
 266.666992188 266.666992188 l 1
 266.666992188 200 l 1025
0 133.333007812 m 1
 133.333007812 133.333007812 l 1
 133.333007812 200 l 1
 0 200 l 1
 0 133.333007812 l 1025
333.333007812 133.333007812 m 1
 466.666992188 133.333007812 l 1
 466.666992188 200 l 1
 333.333007812 200 l 1
 333.333007812 133.333007812 l 1025
0 66.6669921875 m 1
 133.333007812 66.6669921875 l 1
 133.333007812 133.333007812 l 1
 0 133.333007812 l 1
 0 66.6669921875 l 1025
266.666992188 66.6669921875 m 1
 466.666992188 66.6669921875 l 1
 466.666992188 133.333007812 l 1
 266.666992188 133.333007812 l 1
 266.666992188 66.6669921875 l 1025
66.6669921875 -0 m 1
 333.333007812 -0 l 1
 333.333007812 66.6669921875 l 1
 66.6669921875 66.6669921875 l 1
 66.6669921875 -0 l 1025
400 -0 m 1
 533.333007812 -0 l 1
 533.333007812 66.6669921875 l 1
 400 66.6669921875 l 1
 400 -0 l 1
EndSplineSet
EndChar

StartChar: quotesingle
Encoding: 39 39 8
Width: 600
VWidth: 0
Flags: HW
LayerCount: 2
Back
Fore
SplineSet
200 600 m 1
 333.333007812 600 l 1
 333.333007812 666.666992188 l 1
 200 666.666992188 l 1
 200 600 l 1025
200 533.333007812 m 1
 333.333007812 533.333007812 l 1
 333.333007812 600 l 1
 200 600 l 1
 200 533.333007812 l 1025
200 466.666992188 m 1
 333.333007812 466.666992188 l 1
 333.333007812 533.333007812 l 1
 200 533.333007812 l 1
 200 466.666992188 l 1025
200 400 m 1
 333.333007812 400 l 1
 333.333007812 466.666992188 l 1
 200 466.666992188 l 1
 200 400 l 1
EndSplineSet
EndChar

StartChar: parenleft
Encoding: 40 40 9
Width: 600
VWidth: 0
Flags: HW
LayerCount: 2
Back
Fore
SplineSet
333.333007812 666.666992188 m 1
 466.666992188 666.666992188 l 1
 466.666992188 733.333007812 l 1
 333.333007812 733.333007812 l 1
 333.333007812 666.666992188 l 1025
266.666992188 600 m 1
 400 600 l 1
 400 666.666992188 l 1
 266.666992188 666.666992188 l 1
 266.666992188 600 l 1025
200 533.333007812 m 1
 333.333007812 533.333007812 l 1
 333.333007812 600 l 1
 200 600 l 1
 200 533.333007812 l 1025
200 466.666992188 m 1
 333.333007812 466.666992188 l 1
 333.333007812 533.333007812 l 1
 200 533.333007812 l 1
 200 466.666992188 l 1025
133.333007812 400 m 1
 266.666992188 400 l 1
 266.666992188 466.666992188 l 1
 133.333007812 466.666992188 l 1
 133.333007812 400 l 1025
133.333007812 333.333007812 m 1
 266.666992188 333.333007812 l 1
 266.666992188 400 l 1
 133.333007812 400 l 1
 133.333007812 333.333007812 l 1025
133.333007812 266.666992188 m 1
 266.666992188 266.666992188 l 1
 266.666992188 333.333007812 l 1
 133.333007812 333.333007812 l 1
 133.333007812 266.666992188 l 1025
133.333007812 200 m 1
 266.666992188 200 l 1
 266.666992188 266.666992188 l 1
 133.333007812 266.666992188 l 1
 133.333007812 200 l 1025
200 133.333007812 m 1
 333.333007812 133.333007812 l 1
 333.333007812 200 l 1
 200 200 l 1
 200 133.333007812 l 1025
200 66.6669921875 m 1
 333.333007812 66.6669921875 l 1
 333.333007812 133.333007812 l 1
 200 133.333007812 l 1
 200 66.6669921875 l 1025
266.666992188 -0 m 1
 400 -0 l 1
 400 66.6669921875 l 1
 266.666992188 66.6669921875 l 1
 266.666992188 -0 l 1025
333.333007812 -66.6669921875 m 1
 466.666992188 -66.6669921875 l 1
 466.666992188 -0 l 1
 333.333007812 -0 l 1
 333.333007812 -66.6669921875 l 1
EndSplineSet
EndChar

StartChar: parenright
Encoding: 41 41 10
Width: 600
VWidth: 0
Flags: HW
LayerCount: 2
Back
Fore
SplineSet
133.333007812 666.666992188 m 1
 266.666992188 666.666992188 l 1
 266.666992188 733.333007812 l 1
 133.333007812 733.333007812 l 1
 133.333007812 666.666992188 l 1025
200 600 m 1
 333.333007812 600 l 1
 333.333007812 666.666992188 l 1
 200 666.666992188 l 1
 200 600 l 1025
266.666992188 533.333007812 m 1
 400 533.333007812 l 1
 400 600 l 1
 266.666992188 600 l 1
 266.666992188 533.333007812 l 1025
266.666992188 466.666992188 m 1
 400 466.666992188 l 1
 400 533.333007812 l 1
 266.666992188 533.333007812 l 1
 266.666992188 466.666992188 l 1025
333.333007812 400 m 1
 466.666992188 400 l 1
 466.666992188 466.666992188 l 1
 333.333007812 466.666992188 l 1
 333.333007812 400 l 1025
333.333007812 333.333007812 m 1
 466.666992188 333.333007812 l 1
 466.666992188 400 l 1
 333.333007812 400 l 1
 333.333007812 333.333007812 l 1025
333.333007812 266.666992188 m 1
 466.666992188 266.666992188 l 1
 466.666992188 333.333007812 l 1
 333.333007812 333.333007812 l 1
 333.333007812 266.666992188 l 1025
333.333007812 200 m 1
 466.666992188 200 l 1
 466.666992188 266.666992188 l 1
 333.333007812 266.666992188 l 1
 333.333007812 200 l 1025
266.666992188 133.333007812 m 1
 400 133.333007812 l 1
 400 200 l 1
 266.666992188 200 l 1
 266.666992188 133.333007812 l 1025
266.666992188 66.6669921875 m 1
 400 66.6669921875 l 1
 400 133.333007812 l 1
 266.666992188 133.333007812 l 1
 266.666992188 66.6669921875 l 1025
200 -0 m 1
 333.333007812 -0 l 1
 333.333007812 66.6669921875 l 1
 200 66.6669921875 l 1
 200 -0 l 1025
133.333007812 -66.6669921875 m 1
 266.666992188 -66.6669921875 l 1
 266.666992188 -0 l 1
 133.333007812 -0 l 1
 133.333007812 -66.6669921875 l 1
EndSplineSet
EndChar

StartChar: asterisk
Encoding: 42 42 11
Width: 600
VWidth: 0
Flags: HW
LayerCount: 2
Back
Fore
SplineSet
133.333007812 400 m 1
 266.666992188 400 l 1
 266.666992188 466.666992188 l 1
 133.333007812 466.666992188 l 1
 133.333007812 400 l 1025
333.333007812 400 m 1
 466.666992188 400 l 1
 466.666992188 466.666992188 l 1
 333.333007812 466.666992188 l 1
 333.333007812 400 l 1025
200 333.333007812 m 1
 400 333.333007812 l 1
 400 400 l 1
 200 400 l 1
 200 333.333007812 l 1025
66.6669921875 266.666992188 m 1
 533.333007812 266.666992188 l 1
 533.333007812 333.333007812 l 1
 66.6669921875 333.333007812 l 1
 66.6669921875 266.666992188 l 1025
200 200 m 1
 400 200 l 1
 400 266.666992188 l 1
 200 266.666992188 l 1
 200 200 l 1025
133.333007812 133.333007812 m 1
 266.666992188 133.333007812 l 1
 266.666992188 200 l 1
 133.333007812 200 l 1
 133.333007812 133.333007812 l 1025
333.333007812 133.333007812 m 1
 466.666992188 133.333007812 l 1
 466.666992188 200 l 1
 333.333007812 200 l 1
 333.333007812 133.333007812 l 1
EndSplineSet
EndChar

StartChar: plus
Encoding: 43 43 12
Width: 600
VWidth: 0
Flags: HW
LayerCount: 2
Back
Fore
SplineSet
200 466.666992188 m 1
 333.333007812 466.666992188 l 1
 333.333007812 533.333007812 l 1
 200 533.333007812 l 1
 200 466.666992188 l 1025
200 400 m 1
 333.333007812 400 l 1
 333.333007812 466.666992188 l 1
 200 466.666992188 l 1
 200 400 l 1025
200 333.333007812 m 1
 333.333007812 333.333007812 l 1
 333.333007812 400 l 1
 200 400 l 1
 200 333.333007812 l 1025
0 266.666992188 m 1
 533.333007812 266.666992188 l 1
 533.333007812 333.333007812 l 1
 0 333.333007812 l 1
 0 266.666992188 l 1025
200 200 m 1
 333.333007812 200 l 1
 333.333007812 266.666992188 l 1
 200 266.666992188 l 1
 200 200 l 1025
200 133.333007812 m 1
 333.333007812 133.333007812 l 1
 333.333007812 200 l 1
 200 200 l 1
 200 133.333007812 l 1025
200 66.6669921875 m 1
 333.333007812 66.6669921875 l 1
 333.333007812 133.333007812 l 1
 200 133.333007812 l 1
 200 66.6669921875 l 1
EndSplineSet
EndChar

StartChar: comma
Encoding: 44 44 13
Width: 600
VWidth: 0
Flags: HW
LayerCount: 2
Back
Fore
SplineSet
200 66.6669921875 m 1
 400 66.6669921875 l 1
 400 133.333007812 l 1
 200 133.333007812 l 1
 200 66.6669921875 l 1025
200 -0 m 1
 400 -0 l 1
 400 66.6669921875 l 1
 200 66.6669921875 l 1
 200 -0 l 1025
266.666992188 -66.6669921875 m 1
 400 -66.6669921875 l 1
 400 -0 l 1
 266.666992188 -0 l 1
 266.666992188 -66.6669921875 l 1025
266.666992188 -133.333007812 m 1
 400 -133.333007812 l 1
 400 -66.6669921875 l 1
 266.666992188 -66.6669921875 l 1
 266.666992188 -133.333007812 l 1025
200 -200 m 1
 333.333007812 -200 l 1
 333.333007812 -133.333007812 l 1
 200 -133.333007812 l 1
 200 -200 l 1
EndSplineSet
EndChar

StartChar: hyphen
Encoding: 45 45 14
Width: 600
VWidth: 0
Flags: HW
LayerCount: 2
Back
Fore
SplineSet
0 266.666992188 m 1
 533.333007812 266.666992188 l 1
 533.333007812 333.333007812 l 1
 0 333.333007812 l 1
 0 266.666992188 l 1
EndSplineSet
EndChar

StartChar: period
Encoding: 46 46 15
Width: 600
VWidth: 0
Flags: HW
LayerCount: 2
Back
Fore
SplineSet
200 66.6669921875 m 1
 333.333007812 66.6669921875 l 1
 333.333007812 133.333007812 l 1
 200 133.333007812 l 1
 200 66.6669921875 l 1025
133.333007812 -0 m 1
 400 -0 l 1
 400 66.6669921875 l 1
 133.333007812 66.6669921875 l 1
 133.333007812 -0 l 1025
200 -66.6669921875 m 1
 333.333007812 -66.6669921875 l 1
 333.333007812 -0 l 1
 200 -0 l 1
 200 -66.6669921875 l 1
EndSplineSet
EndChar

StartChar: slash
Encoding: 47 47 16
Width: 600
VWidth: 0
Flags: HW
LayerCount: 2
Back
Fore
SplineSet
400 600 m 1
 533.333007812 600 l 1
 533.333007812 666.666992188 l 1
 400 666.666992188 l 1
 400 600 l 1025
333.333007812 533.333007812 m 1
 466.666992188 533.333007812 l 1
 466.666992188 600 l 1
 333.333007812 600 l 1
 333.333007812 533.333007812 l 1025
333.333007812 466.666992188 m 1
 466.666992188 466.666992188 l 1
 466.666992188 533.333007812 l 1
 333.333007812 533.333007812 l 1
 333.333007812 466.666992188 l 1025
266.666992188 400 m 1
 400 400 l 1
 400 466.666992188 l 1
 266.666992188 466.666992188 l 1
 266.666992188 400 l 1025
200 333.333007812 m 1
 333.333007812 333.333007812 l 1
 333.333007812 400 l 1
 200 400 l 1
 200 333.333007812 l 1025
200 266.666992188 m 1
 333.333007812 266.666992188 l 1
 333.333007812 333.333007812 l 1
 200 333.333007812 l 1
 200 266.666992188 l 1025
133.333007812 200 m 1
 266.666992188 200 l 1
 266.666992188 266.666992188 l 1
 133.333007812 266.666992188 l 1
 133.333007812 200 l 1025
66.6669921875 133.333007812 m 1
 200 133.333007812 l 1
 200 200 l 1
 66.6669921875 200 l 1
 66.6669921875 133.333007812 l 1025
66.6669921875 66.6669921875 m 1
 200 66.6669921875 l 1
 200 133.333007812 l 1
 66.6669921875 133.333007812 l 1
 66.6669921875 66.6669921875 l 1025
0 -0 m 1
 133.333007812 -0 l 1
 133.333007812 66.6669921875 l 1
 0 66.6669921875 l 1
 0 -0 l 1
EndSplineSet
EndChar

StartChar: zero
Encoding: 48 48 17
Width: 600
VWidth: 0
Flags: HW
LayerCount: 2
Back
Fore
SplineSet
200 600 m 1
 333.333007812 600 l 1
 333.333007812 666.666992188 l 1
 200 666.666992188 l 1
 200 600 l 1025
133.333007812 533.333007812 m 1
 400 533.333007812 l 1
 400 600 l 1
 133.333007812 600 l 1
 133.333007812 533.333007812 l 1025
66.6669921875 466.666992188 m 1
 200 466.666992188 l 1
 200 533.333007812 l 1
 66.6669921875 533.333007812 l 1
 66.6669921875 466.666992188 l 1025
333.333007812 466.666992188 m 1
 466.666992188 466.666992188 l 1
 466.666992188 533.333007812 l 1
 333.333007812 533.333007812 l 1
 333.333007812 466.666992188 l 1025
0 400 m 1
 133.333007812 400 l 1
 133.333007812 466.666992188 l 1
 0 466.666992188 l 1
 0 400 l 1025
400 400 m 1
 533.333007812 400 l 1
 533.333007812 466.666992188 l 1
 400 466.666992188 l 1
 400 400 l 1025
0 333.333007812 m 1
 133.333007812 333.333007812 l 1
 133.333007812 400 l 1
 0 400 l 1
 0 333.333007812 l 1025
400 333.333007812 m 1
 533.333007812 333.333007812 l 1
 533.333007812 400 l 1
 400 400 l 1
 400 333.333007812 l 1025
0 266.666992188 m 1
 133.333007812 266.666992188 l 1
 133.333007812 333.333007812 l 1
 0 333.333007812 l 1
 0 266.666992188 l 1025
400 266.666992188 m 1
 533.333007812 266.666992188 l 1
 533.333007812 333.333007812 l 1
 400 333.333007812 l 1
 400 266.666992188 l 1025
0 200 m 1
 133.333007812 200 l 1
 133.333007812 266.666992188 l 1
 0 266.666992188 l 1
 0 200 l 1025
400 200 m 1
 533.333007812 200 l 1
 533.333007812 266.666992188 l 1
 400 266.666992188 l 1
 400 200 l 1025
66.6669921875 133.333007812 m 1
 200 133.333007812 l 1
 200 200 l 1
 66.6669921875 200 l 1
 66.6669921875 133.333007812 l 1025
333.333007812 133.333007812 m 1
 466.666992188 133.333007812 l 1
 466.666992188 200 l 1
 333.333007812 200 l 1
 333.333007812 133.333007812 l 1025
133.333007812 66.6669921875 m 1
 400 66.6669921875 l 1
 400 133.333007812 l 1
 133.333007812 133.333007812 l 1
 133.333007812 66.6669921875 l 1025
200 -0 m 1
 333.333007812 -0 l 1
 333.333007812 66.6669921875 l 1
 200 66.6669921875 l 1
 200 -0 l 1
EndSplineSet
EndChar

StartChar: one
Encoding: 49 49 18
Width: 600
VWidth: 0
Flags: HW
LayerCount: 2
Back
Fore
SplineSet
200 600 m 1
 333.333007812 600 l 1
 333.333007812 666.666992188 l 1
 200 666.666992188 l 1
 200 600 l 1025
133.333007812 533.333007812 m 1
 333.333007812 533.333007812 l 1
 333.333007812 600 l 1
 133.333007812 600 l 1
 133.333007812 533.333007812 l 1025
66.6669921875 466.666992188 m 1
 333.333007812 466.666992188 l 1
 333.333007812 533.333007812 l 1
 66.6669921875 533.333007812 l 1
 66.6669921875 466.666992188 l 1025
200 400 m 1
 333.333007812 400 l 1
 333.333007812 466.666992188 l 1
 200 466.666992188 l 1
 200 400 l 1025
200 333.333007812 m 1
 333.333007812 333.333007812 l 1
 333.333007812 400 l 1
 200 400 l 1
 200 333.333007812 l 1025
200 266.666992188 m 1
 333.333007812 266.666992188 l 1
 333.333007812 333.333007812 l 1
 200 333.333007812 l 1
 200 266.666992188 l 1025
200 200 m 1
 333.333007812 200 l 1
 333.333007812 266.666992188 l 1
 200 266.666992188 l 1
 200 200 l 1025
200 133.333007812 m 1
 333.333007812 133.333007812 l 1
 333.333007812 200 l 1
 200 200 l 1
 200 133.333007812 l 1025
200 66.6669921875 m 1
 333.333007812 66.6669921875 l 1
 333.333007812 133.333007812 l 1
 200 133.333007812 l 1
 200 66.6669921875 l 1025
66.6669921875 -0 m 1
 466.666992188 -0 l 1
 466.666992188 66.6669921875 l 1
 66.6669921875 66.6669921875 l 1
 66.6669921875 -0 l 1
EndSplineSet
EndChar

StartChar: two
Encoding: 50 50 19
Width: 600
VWidth: 0
Flags: HW
LayerCount: 2
Back
Fore
SplineSet
133.333007812 600 m 1
 400 600 l 1
 400 666.666992188 l 1
 133.333007812 666.666992188 l 1
 133.333007812 600 l 1025
66.6669921875 533.333007812 m 1
 200 533.333007812 l 1
 200 600 l 1
 66.6669921875 600 l 1
 66.6669921875 533.333007812 l 1025
333.333007812 533.333007812 m 1
 466.666992188 533.333007812 l 1
 466.666992188 600 l 1
 333.333007812 600 l 1
 333.333007812 533.333007812 l 1025
0 466.666992188 m 1
 133.333007812 466.666992188 l 1
 133.333007812 533.333007812 l 1
 0 533.333007812 l 1
 0 466.666992188 l 1025
400 466.666992188 m 1
 533.333007812 466.666992188 l 1
 533.333007812 533.333007812 l 1
 400 533.333007812 l 1
 400 466.666992188 l 1025
400 400 m 1
 533.333007812 400 l 1
 533.333007812 466.666992188 l 1
 400 466.666992188 l 1
 400 400 l 1025
333.333007812 333.333007812 m 1
 466.666992188 333.333007812 l 1
 466.666992188 400 l 1
 333.333007812 400 l 1
 333.333007812 333.333007812 l 1025
266.666992188 266.666992188 m 1
 400 266.666992188 l 1
 400 333.333007812 l 1
 266.666992188 333.333007812 l 1
 266.666992188 266.666992188 l 1025
200 200 m 1
 333.333007812 200 l 1
 333.333007812 266.666992188 l 1
 200 266.666992188 l 1
 200 200 l 1025
133.333007812 133.333007812 m 1
 266.666992188 133.333007812 l 1
 266.666992188 200 l 1
 133.333007812 200 l 1
 133.333007812 133.333007812 l 1025
66.6669921875 66.6669921875 m 1
 200 66.6669921875 l 1
 200 133.333007812 l 1
 66.6669921875 133.333007812 l 1
 66.6669921875 66.6669921875 l 1025
0 -0 m 1
 533.333007812 -0 l 1
 533.333007812 66.6669921875 l 1
 0 66.6669921875 l 1
 0 -0 l 1
EndSplineSet
EndChar

StartChar: three
Encoding: 51 51 20
Width: 600
VWidth: 0
Flags: HW
LayerCount: 2
Back
Fore
SplineSet
66.6669921875 600 m 1
 400 600 l 1
 400 666.666992188 l 1
 66.6669921875 666.666992188 l 1
 66.6669921875 600 l 1025
0 533.333007812 m 1
 133.333007812 533.333007812 l 1
 133.333007812 600 l 1
 0 600 l 1
 0 533.333007812 l 1025
333.333007812 533.333007812 m 1
 466.666992188 533.333007812 l 1
 466.666992188 600 l 1
 333.333007812 600 l 1
 333.333007812 533.333007812 l 1025
400 466.666992188 m 1
 533.333007812 466.666992188 l 1
 533.333007812 533.333007812 l 1
 400 533.333007812 l 1
 400 466.666992188 l 1025
333.333007812 400 m 1
 466.666992188 400 l 1
 466.666992188 466.666992188 l 1
 333.333007812 466.666992188 l 1
 333.333007812 400 l 1025
200 333.333007812 m 1
 400 333.333007812 l 1
 400 400 l 1
 200 400 l 1
 200 333.333007812 l 1025
333.333007812 266.666992188 m 1
 466.666992188 266.666992188 l 1
 466.666992188 333.333007812 l 1
 333.333007812 333.333007812 l 1
 333.333007812 266.666992188 l 1025
400 200 m 1
 533.333007812 200 l 1
 533.333007812 266.666992188 l 1
 400 266.666992188 l 1
 400 200 l 1025
400 133.333007812 m 1
 533.333007812 133.333007812 l 1
 533.333007812 200 l 1
 400 200 l 1
 400 133.333007812 l 1025
0 66.6669921875 m 1
 133.333007812 66.6669921875 l 1
 133.333007812 133.333007812 l 1
 0 133.333007812 l 1
 0 66.6669921875 l 1025
333.333007812 66.6669921875 m 1
 466.666992188 66.6669921875 l 1
 466.666992188 133.333007812 l 1
 333.333007812 133.333007812 l 1
 333.333007812 66.6669921875 l 1025
66.6669921875 -0 m 1
 400 -0 l 1
 400 66.6669921875 l 1
 66.6669921875 66.6669921875 l 1
 66.6669921875 -0 l 1
EndSplineSet
EndChar

StartChar: four
Encoding: 52 52 21
Width: 600
VWidth: 0
Flags: HW
LayerCount: 2
Back
Fore
SplineSet
333.333007812 600 m 1
 466.666992188 600 l 1
 466.666992188 666.666992188 l 1
 333.333007812 666.666992188 l 1
 333.333007812 600 l 1025
266.666992188 533.333007812 m 1
 466.666992188 533.333007812 l 1
 466.666992188 600 l 1
 266.666992188 600 l 1
 266.666992188 533.333007812 l 1025
200 466.666992188 m 1
 466.666992188 466.666992188 l 1
 466.666992188 533.333007812 l 1
 200 533.333007812 l 1
 200 466.666992188 l 1025
133.333007812 400 m 1
 266.666992188 400 l 1
 266.666992188 466.666992188 l 1
 133.333007812 466.666992188 l 1
 133.333007812 400 l 1025
333.333007812 400 m 1
 466.666992188 400 l 1
 466.666992188 466.666992188 l 1
 333.333007812 466.666992188 l 1
 333.333007812 400 l 1025
66.6669921875 333.333007812 m 1
 200 333.333007812 l 1
 200 400 l 1
 66.6669921875 400 l 1
 66.6669921875 333.333007812 l 1025
333.333007812 333.333007812 m 1
 466.666992188 333.333007812 l 1
 466.666992188 400 l 1
 333.333007812 400 l 1
 333.333007812 333.333007812 l 1025
0 266.666992188 m 1
 133.333007812 266.666992188 l 1
 133.333007812 333.333007812 l 1
 0 333.333007812 l 1
 0 266.666992188 l 1025
333.333007812 266.666992188 m 1
 466.666992188 266.666992188 l 1
 466.666992188 333.333007812 l 1
 333.333007812 333.333007812 l 1
 333.333007812 266.666992188 l 1025
0 200 m 1
 533.333007812 200 l 1
 533.333007812 266.666992188 l 1
 0 266.666992188 l 1
 0 200 l 1025
333.333007812 133.333007812 m 1
 466.666992188 133.333007812 l 1
 466.666992188 200 l 1
 333.333007812 200 l 1
 333.333007812 133.333007812 l 1025
333.333007812 66.6669921875 m 1
 466.666992188 66.6669921875 l 1
 466.666992188 133.333007812 l 1
 333.333007812 133.333007812 l 1
 333.333007812 66.6669921875 l 1025
333.333007812 -0 m 1
 466.666992188 -0 l 1
 466.666992188 66.6669921875 l 1
 333.333007812 66.6669921875 l 1
 333.333007812 -0 l 1
EndSplineSet
EndChar

StartChar: five
Encoding: 53 53 22
Width: 600
VWidth: 0
Flags: HW
LayerCount: 2
Back
Fore
SplineSet
0 600 m 1
 466.666992188 600 l 1
 466.666992188 666.666992188 l 1
 0 666.666992188 l 1
 0 600 l 1025
0 533.333007812 m 1
 133.333007812 533.333007812 l 1
 133.333007812 600 l 1
 0 600 l 1
 0 533.333007812 l 1025
0 466.666992188 m 1
 133.333007812 466.666992188 l 1
 133.333007812 533.333007812 l 1
 0 533.333007812 l 1
 0 466.666992188 l 1025
0 400 m 1
 133.333007812 400 l 1
 133.333007812 466.666992188 l 1
 0 466.666992188 l 1
 0 400 l 1025
200 400 m 1
 400 400 l 1
 400 466.666992188 l 1
 200 466.666992188 l 1
 200 400 l 1025
0 333.333007812 m 1
 200 333.333007812 l 1
 200 400 l 1
 0 400 l 1
 0 333.333007812 l 1025
333.333007812 333.333007812 m 1
 466.666992188 333.333007812 l 1
 466.666992188 400 l 1
 333.333007812 400 l 1
 333.333007812 333.333007812 l 1025
400 266.666992188 m 1
 533.333007812 266.666992188 l 1
 533.333007812 333.333007812 l 1
 400 333.333007812 l 1
 400 266.666992188 l 1025
400 200 m 1
 533.333007812 200 l 1
 533.333007812 266.666992188 l 1
 400 266.666992188 l 1
 400 200 l 1025
0 133.333007812 m 1
 133.333007812 133.333007812 l 1
 133.333007812 200 l 1
 0 200 l 1
 0 133.333007812 l 1025
400 133.333007812 m 1
 533.333007812 133.333007812 l 1
 533.333007812 200 l 1
 400 200 l 1
 400 133.333007812 l 1025
66.6669921875 66.6669921875 m 1
 200 66.6669921875 l 1
 200 133.333007812 l 1
 66.6669921875 133.333007812 l 1
 66.6669921875 66.6669921875 l 1025
333.333007812 66.6669921875 m 1
 466.666992188 66.6669921875 l 1
 466.666992188 133.333007812 l 1
 333.333007812 133.333007812 l 1
 333.333007812 66.6669921875 l 1025
133.333007812 -0 m 1
 400 -0 l 1
 400 66.6669921875 l 1
 133.333007812 66.6669921875 l 1
 133.333007812 -0 l 1
EndSplineSet
EndChar

StartChar: six
Encoding: 54 54 23
Width: 600
VWidth: 0
Flags: HW
LayerCount: 2
Back
Fore
SplineSet
133.333007812 600 m 1
 400 600 l 1
 400 666.666992188 l 1
 133.333007812 666.666992188 l 1
 133.333007812 600 l 1025
66.6669921875 533.333007812 m 1
 200 533.333007812 l 1
 200 600 l 1
 66.6669921875 600 l 1
 66.6669921875 533.333007812 l 1025
333.333007812 533.333007812 m 1
 466.666992188 533.333007812 l 1
 466.666992188 600 l 1
 333.333007812 600 l 1
 333.333007812 533.333007812 l 1025
0 466.666992188 m 1
 133.333007812 466.666992188 l 1
 133.333007812 533.333007812 l 1
 0 533.333007812 l 1
 0 466.666992188 l 1025
400 466.666992188 m 1
 466.666992188 466.666992188 l 1
 466.666992188 533.333007812 l 1
 400 533.333007812 l 1
 400 466.666992188 l 1025
0 400 m 1
 133.333007812 400 l 1
 133.333007812 466.666992188 l 1
 0 466.666992188 l 1
 0 400 l 1025
0 333.333007812 m 1
 133.333007812 333.333007812 l 1
 133.333007812 400 l 1
 0 400 l 1
 0 333.333007812 l 1025
200 333.333007812 m 1
 400 333.333007812 l 1
 400 400 l 1
 200 400 l 1
 200 333.333007812 l 1025
0 266.666992188 m 1
 200 266.666992188 l 1
 200 333.333007812 l 1
 0 333.333007812 l 1
 0 266.666992188 l 1025
333.333007812 266.666992188 m 1
 466.666992188 266.666992188 l 1
 466.666992188 333.333007812 l 1
 333.333007812 333.333007812 l 1
 333.333007812 266.666992188 l 1025
0 200 m 1
 133.333007812 200 l 1
 133.333007812 266.666992188 l 1
 0 266.666992188 l 1
 0 200 l 1025
400 200 m 1
 533.333007812 200 l 1
 533.333007812 266.666992188 l 1
 400 266.666992188 l 1
 400 200 l 1025
0 133.333007812 m 1
 133.333007812 133.333007812 l 1
 133.333007812 200 l 1
 0 200 l 1
 0 133.333007812 l 1025
400 133.333007812 m 1
 533.333007812 133.333007812 l 1
 533.333007812 200 l 1
 400 200 l 1
 400 133.333007812 l 1025
66.6669921875 66.6669921875 m 1
 200 66.6669921875 l 1
 200 133.333007812 l 1
 66.6669921875 133.333007812 l 1
 66.6669921875 66.6669921875 l 1025
333.333007812 66.6669921875 m 1
 466.666992188 66.6669921875 l 1
 466.666992188 133.333007812 l 1
 333.333007812 133.333007812 l 1
 333.333007812 66.6669921875 l 1025
133.333007812 -0 m 1
 400 -0 l 1
 400 66.6669921875 l 1
 133.333007812 66.6669921875 l 1
 133.333007812 -0 l 1
EndSplineSet
EndChar

StartChar: seven
Encoding: 55 55 24
Width: 600
VWidth: 0
Flags: HW
LayerCount: 2
Back
Fore
SplineSet
0 600 m 1
 533.333007812 600 l 1
 533.333007812 666.666992188 l 1
 0 666.666992188 l 1
 0 600 l 1025
400 533.333007812 m 1
 533.333007812 533.333007812 l 1
 533.333007812 600 l 1
 400 600 l 1
 400 533.333007812 l 1025
400 466.666992188 m 1
 533.333007812 466.666992188 l 1
 533.333007812 533.333007812 l 1
 400 533.333007812 l 1
 400 466.666992188 l 1025
333.333007812 400 m 1
 466.666992188 400 l 1
 466.666992188 466.666992188 l 1
 333.333007812 466.666992188 l 1
 333.333007812 400 l 1025
266.666992188 333.333007812 m 1
 400 333.333007812 l 1
 400 400 l 1
 266.666992188 400 l 1
 266.666992188 333.333007812 l 1025
266.666992188 266.666992188 m 1
 400 266.666992188 l 1
 400 333.333007812 l 1
 266.666992188 333.333007812 l 1
 266.666992188 266.666992188 l 1025
200 200 m 1
 333.333007812 200 l 1
 333.333007812 266.666992188 l 1
 200 266.666992188 l 1
 200 200 l 1025
200 133.333007812 m 1
 333.333007812 133.333007812 l 1
 333.333007812 200 l 1
 200 200 l 1
 200 133.333007812 l 1025
200 66.6669921875 m 1
 333.333007812 66.6669921875 l 1
 333.333007812 133.333007812 l 1
 200 133.333007812 l 1
 200 66.6669921875 l 1025
200 -0 m 1
 333.333007812 -0 l 1
 333.333007812 66.6669921875 l 1
 200 66.6669921875 l 1
 200 -0 l 1
EndSplineSet
EndChar

StartChar: eight
Encoding: 56 56 25
Width: 600
VWidth: 0
Flags: HW
LayerCount: 2
Back
Fore
SplineSet
133.333007812 600 m 1
 400 600 l 1
 400 666.666992188 l 1
 133.333007812 666.666992188 l 1
 133.333007812 600 l 1025
66.6669921875 533.333007812 m 1
 200 533.333007812 l 1
 200 600 l 1
 66.6669921875 600 l 1
 66.6669921875 533.333007812 l 1025
333.333007812 533.333007812 m 1
 466.666992188 533.333007812 l 1
 466.666992188 600 l 1
 333.333007812 600 l 1
 333.333007812 533.333007812 l 1025
0 466.666992188 m 1
 133.333007812 466.666992188 l 1
 133.333007812 533.333007812 l 1
 0 533.333007812 l 1
 0 466.666992188 l 1025
400 466.666992188 m 1
 533.333007812 466.666992188 l 1
 533.333007812 533.333007812 l 1
 400 533.333007812 l 1
 400 466.666992188 l 1025
66.6669921875 400 m 1
 200 400 l 1
 200 466.666992188 l 1
 66.6669921875 466.666992188 l 1
 66.6669921875 400 l 1025
333.333007812 400 m 1
 466.666992188 400 l 1
 466.666992188 466.666992188 l 1
 333.333007812 466.666992188 l 1
 333.333007812 400 l 1025
133.333007812 333.333007812 m 1
 400 333.333007812 l 1
 400 400 l 1
 133.333007812 400 l 1
 133.333007812 333.333007812 l 1025
66.6669921875 266.666992188 m 1
 200 266.666992188 l 1
 200 333.333007812 l 1
 66.6669921875 333.333007812 l 1
 66.6669921875 266.666992188 l 1025
333.333007812 266.666992188 m 1
 466.666992188 266.666992188 l 1
 466.666992188 333.333007812 l 1
 333.333007812 333.333007812 l 1
 333.333007812 266.666992188 l 1025
0 200 m 1
 133.333007812 200 l 1
 133.333007812 266.666992188 l 1
 0 266.666992188 l 1
 0 200 l 1025
400 200 m 1
 533.333007812 200 l 1
 533.333007812 266.666992188 l 1
 400 266.666992188 l 1
 400 200 l 1025
0 133.333007812 m 1
 133.333007812 133.333007812 l 1
 133.333007812 200 l 1
 0 200 l 1
 0 133.333007812 l 1025
400 133.333007812 m 1
 533.333007812 133.333007812 l 1
 533.333007812 200 l 1
 400 200 l 1
 400 133.333007812 l 1025
66.6669921875 66.6669921875 m 1
 200 66.6669921875 l 1
 200 133.333007812 l 1
 66.6669921875 133.333007812 l 1
 66.6669921875 66.6669921875 l 1025
333.333007812 66.6669921875 m 1
 466.666992188 66.6669921875 l 1
 466.666992188 133.333007812 l 1
 333.333007812 133.333007812 l 1
 333.333007812 66.6669921875 l 1025
133.333007812 -0 m 1
 400 -0 l 1
 400 66.6669921875 l 1
 133.333007812 66.6669921875 l 1
 133.333007812 -0 l 1
EndSplineSet
EndChar

StartChar: nine
Encoding: 57 57 26
Width: 600
VWidth: 0
Flags: HW
LayerCount: 2
Back
Fore
SplineSet
133.333007812 600 m 1
 400 600 l 1
 400 666.666992188 l 1
 133.333007812 666.666992188 l 1
 133.333007812 600 l 1025
66.6669921875 533.333007812 m 1
 200 533.333007812 l 1
 200 600 l 1
 66.6669921875 600 l 1
 66.6669921875 533.333007812 l 1025
333.333007812 533.333007812 m 1
 466.666992188 533.333007812 l 1
 466.666992188 600 l 1
 333.333007812 600 l 1
 333.333007812 533.333007812 l 1025
0 466.666992188 m 1
 133.333007812 466.666992188 l 1
 133.333007812 533.333007812 l 1
 0 533.333007812 l 1
 0 466.666992188 l 1025
400 466.666992188 m 1
 533.333007812 466.666992188 l 1
 533.333007812 533.333007812 l 1
 400 533.333007812 l 1
 400 466.666992188 l 1025
0 400 m 1
 133.333007812 400 l 1
 133.333007812 466.666992188 l 1
 0 466.666992188 l 1
 0 400 l 1025
400 400 m 1
 533.333007812 400 l 1
 533.333007812 466.666992188 l 1
 400 466.666992188 l 1
 400 400 l 1025
66.6669921875 333.333007812 m 1
 200 333.333007812 l 1
 200 400 l 1
 66.6669921875 400 l 1
 66.6669921875 333.333007812 l 1025
333.333007812 333.333007812 m 1
 533.333007812 333.333007812 l 1
 533.333007812 400 l 1
 333.333007812 400 l 1
 333.333007812 333.333007812 l 1025
133.333007812 266.666992188 m 1
 333.333007812 266.666992188 l 1
 333.333007812 333.333007812 l 1
 133.333007812 333.333007812 l 1
 133.333007812 266.666992188 l 1025
400 266.666992188 m 1
 533.333007812 266.666992188 l 1
 533.333007812 333.333007812 l 1
 400 333.333007812 l 1
 400 266.666992188 l 1025
400 200 m 1
 533.333007812 200 l 1
 533.333007812 266.666992188 l 1
 400 266.666992188 l 1
 400 200 l 1025
66.6669921875 133.333007812 m 1
 133.333007812 133.333007812 l 1
 133.333007812 200 l 1
 66.6669921875 200 l 1
 66.6669921875 133.333007812 l 1025
400 133.333007812 m 1
 533.333007812 133.333007812 l 1
 533.333007812 200 l 1
 400 200 l 1
 400 133.333007812 l 1025
66.6669921875 66.6669921875 m 1
 200 66.6669921875 l 1
 200 133.333007812 l 1
 66.6669921875 133.333007812 l 1
 66.6669921875 66.6669921875 l 1025
333.333007812 66.6669921875 m 1
 466.666992188 66.6669921875 l 1
 466.666992188 133.333007812 l 1
 333.333007812 133.333007812 l 1
 333.333007812 66.6669921875 l 1025
133.333007812 -0 m 1
 400 -0 l 1
 400 66.6669921875 l 1
 133.333007812 66.6669921875 l 1
 133.333007812 -0 l 1
EndSplineSet
EndChar

StartChar: colon
Encoding: 58 58 27
Width: 600
VWidth: 0
Flags: HW
LayerCount: 2
Back
Fore
SplineSet
200 400 m 1
 333.333007812 400 l 1
 333.333007812 466.666992188 l 1
 200 466.666992188 l 1
 200 400 l 1025
133.333007812 333.333007812 m 1
 400 333.333007812 l 1
 400 400 l 1
 133.333007812 400 l 1
 133.333007812 333.333007812 l 1025
200 266.666992188 m 1
 333.333007812 266.666992188 l 1
 333.333007812 333.333007812 l 1
 200 333.333007812 l 1
 200 266.666992188 l 1025
200 66.6669921875 m 1
 333.333007812 66.6669921875 l 1
 333.333007812 133.333007812 l 1
 200 133.333007812 l 1
 200 66.6669921875 l 1025
133.333007812 -0 m 1
 400 -0 l 1
 400 66.6669921875 l 1
 133.333007812 66.6669921875 l 1
 133.333007812 -0 l 1025
200 -66.6669921875 m 1
 333.333007812 -66.6669921875 l 1
 333.333007812 -0 l 1
 200 -0 l 1
 200 -66.6669921875 l 1
EndSplineSet
EndChar

StartChar: semicolon
Encoding: 59 59 28
Width: 600
VWidth: 0
Flags: HW
LayerCount: 2
Back
Fore
SplineSet
200 400 m 1
 333.333007812 400 l 1
 333.333007812 466.666992188 l 1
 200 466.666992188 l 1
 200 400 l 1025
133.333007812 333.333007812 m 1
 400 333.333007812 l 1
 400 400 l 1
 133.333007812 400 l 1
 133.333007812 333.333007812 l 1025
200 266.666992188 m 1
 333.333007812 266.666992188 l 1
 333.333007812 333.333007812 l 1
 200 333.333007812 l 1
 200 266.666992188 l 1025
200 66.6669921875 m 1
 400 66.6669921875 l 1
 400 133.333007812 l 1
 200 133.333007812 l 1
 200 66.6669921875 l 1025
200 -0 m 1
 400 -0 l 1
 400 66.6669921875 l 1
 200 66.6669921875 l 1
 200 -0 l 1025
266.666992188 -66.6669921875 m 1
 400 -66.6669921875 l 1
 400 -0 l 1
 266.666992188 -0 l 1
 266.666992188 -66.6669921875 l 1025
266.666992188 -133.333007812 m 1
 400 -133.333007812 l 1
 400 -66.6669921875 l 1
 266.666992188 -66.6669921875 l 1
 266.666992188 -133.333007812 l 1025
200 -200 m 1
 333.333007812 -200 l 1
 333.333007812 -133.333007812 l 1
 200 -133.333007812 l 1
 200 -200 l 1
EndSplineSet
EndChar

StartChar: less
Encoding: 60 60 29
Width: 600
VWidth: 0
Flags: HW
LayerCount: 2
Back
Fore
SplineSet
333.333007812 600 m 1
 466.666992188 600 l 1
 466.666992188 666.666992188 l 1
 333.333007812 666.666992188 l 1
 333.333007812 600 l 1025
266.666992188 533.333007812 m 1
 400 533.333007812 l 1
 400 600 l 1
 266.666992188 600 l 1
 266.666992188 533.333007812 l 1025
200 466.666992188 m 1
 333.333007812 466.666992188 l 1
 333.333007812 533.333007812 l 1
 200 533.333007812 l 1
 200 466.666992188 l 1025
133.333007812 400 m 1
 266.666992188 400 l 1
 266.666992188 466.666992188 l 1
 133.333007812 466.666992188 l 1
 133.333007812 400 l 1025
66.6669921875 333.333007812 m 1
 200 333.333007812 l 1
 200 400 l 1
 66.6669921875 400 l 1
 66.6669921875 333.333007812 l 1025
66.6669921875 266.666992188 m 1
 200 266.666992188 l 1
 200 333.333007812 l 1
 66.6669921875 333.333007812 l 1
 66.6669921875 266.666992188 l 1025
133.333007812 200 m 1
 266.666992188 200 l 1
 266.666992188 266.666992188 l 1
 133.333007812 266.666992188 l 1
 133.333007812 200 l 1025
200 133.333007812 m 1
 333.333007812 133.333007812 l 1
 333.333007812 200 l 1
 200 200 l 1
 200 133.333007812 l 1025
266.666992188 66.6669921875 m 1
 400 66.6669921875 l 1
 400 133.333007812 l 1
 266.666992188 133.333007812 l 1
 266.666992188 66.6669921875 l 1025
333.333007812 -0 m 1
 466.666992188 -0 l 1
 466.666992188 66.6669921875 l 1
 333.333007812 66.6669921875 l 1
 333.333007812 -0 l 1
EndSplineSet
EndChar

StartChar: equal
Encoding: 61 61 30
Width: 600
VWidth: 0
Flags: HW
LayerCount: 2
Back
Fore
SplineSet
0 333.333007812 m 1
 533.333007812 333.333007812 l 1
 533.333007812 400 l 1
 0 400 l 1
 0 333.333007812 l 1025
0 133.333007812 m 1
 533.333007812 133.333007812 l 1
 533.333007812 200 l 1
 0 200 l 1
 0 133.333007812 l 1
EndSplineSet
EndChar

StartChar: greater
Encoding: 62 62 31
Width: 600
VWidth: 0
Flags: HW
LayerCount: 2
Back
Fore
SplineSet
66.6669921875 600 m 1
 200 600 l 1
 200 666.666992188 l 1
 66.6669921875 666.666992188 l 1
 66.6669921875 600 l 1025
133.333007812 533.333007812 m 1
 266.666992188 533.333007812 l 1
 266.666992188 600 l 1
 133.333007812 600 l 1
 133.333007812 533.333007812 l 1025
200 466.666992188 m 1
 333.333007812 466.666992188 l 1
 333.333007812 533.333007812 l 1
 200 533.333007812 l 1
 200 466.666992188 l 1025
266.666992188 400 m 1
 400 400 l 1
 400 466.666992188 l 1
 266.666992188 466.666992188 l 1
 266.666992188 400 l 1025
333.333007812 333.333007812 m 1
 466.666992188 333.333007812 l 1
 466.666992188 400 l 1
 333.333007812 400 l 1
 333.333007812 333.333007812 l 1025
333.333007812 266.666992188 m 1
 466.666992188 266.666992188 l 1
 466.666992188 333.333007812 l 1
 333.333007812 333.333007812 l 1
 333.333007812 266.666992188 l 1025
266.666992188 200 m 1
 400 200 l 1
 400 266.666992188 l 1
 266.666992188 266.666992188 l 1
 266.666992188 200 l 1025
200 133.333007812 m 1
 333.333007812 133.333007812 l 1
 333.333007812 200 l 1
 200 200 l 1
 200 133.333007812 l 1025
133.333007812 66.6669921875 m 1
 266.666992188 66.6669921875 l 1
 266.666992188 133.333007812 l 1
 133.333007812 133.333007812 l 1
 133.333007812 66.6669921875 l 1025
66.6669921875 -0 m 1
 200 -0 l 1
 200 66.6669921875 l 1
 66.6669921875 66.6669921875 l 1
 66.6669921875 -0 l 1
EndSplineSet
EndChar

StartChar: question
Encoding: 63 63 32
Width: 600
VWidth: 0
Flags: HW
LayerCount: 2
Back
Fore
SplineSet
133.333007812 600 m 1
 466.666992188 600 l 1
 466.666992188 666.666992188 l 1
 133.333007812 666.666992188 l 1
 133.333007812 600 l 1025
66.6669921875 533.333007812 m 1
 200 533.333007812 l 1
 200 600 l 1
 66.6669921875 600 l 1
 66.6669921875 533.333007812 l 1025
400 533.333007812 m 1
 533.333007812 533.333007812 l 1
 533.333007812 600 l 1
 400 600 l 1
 400 533.333007812 l 1025
66.6669921875 466.666992188 m 1
 200 466.666992188 l 1
 200 533.333007812 l 1
 66.6669921875 533.333007812 l 1
 66.6669921875 466.666992188 l 1025
400 466.666992188 m 1
 533.333007812 466.666992188 l 1
 533.333007812 533.333007812 l 1
 400 533.333007812 l 1
 400 466.666992188 l 1025
400 400 m 1
 533.333007812 400 l 1
 533.333007812 466.666992188 l 1
 400 466.666992188 l 1
 400 400 l 1025
333.333007812 333.333007812 m 1
 466.666992188 333.333007812 l 1
 466.666992188 400 l 1
 333.333007812 400 l 1
 333.333007812 333.333007812 l 1025
266.666992188 266.666992188 m 1
 400 266.666992188 l 1
 400 333.333007812 l 1
 266.666992188 333.333007812 l 1
 266.666992188 266.666992188 l 1025
200 200 m 1
 333.333007812 200 l 1
 333.333007812 266.666992188 l 1
 200 266.666992188 l 1
 200 200 l 1025
200 66.6669921875 m 1
 333.333007812 66.6669921875 l 1
 333.333007812 133.333007812 l 1
 200 133.333007812 l 1
 200 66.6669921875 l 1025
200 -0 m 1
 333.333007812 -0 l 1
 333.333007812 66.6669921875 l 1
 200 66.6669921875 l 1
 200 -0 l 1
EndSplineSet
EndChar

StartChar: at
Encoding: 64 64 33
Width: 600
VWidth: 0
Flags: HW
LayerCount: 2
Back
Fore
SplineSet
133.333007812 600 m 1
 400 600 l 1
 400 666.666992188 l 1
 133.333007812 666.666992188 l 1
 133.333007812 600 l 1025
66.6669921875 533.333007812 m 1
 200 533.333007812 l 1
 200 600 l 1
 66.6669921875 600 l 1
 66.6669921875 533.333007812 l 1025
333.333007812 533.333007812 m 1
 466.666992188 533.333007812 l 1
 466.666992188 600 l 1
 333.333007812 600 l 1
 333.333007812 533.333007812 l 1025
0 466.666992188 m 1
 133.333007812 466.666992188 l 1
 133.333007812 533.333007812 l 1
 0 533.333007812 l 1
 0 466.666992188 l 1025
400 466.666992188 m 1
 533.333007812 466.666992188 l 1
 533.333007812 533.333007812 l 1
 400 533.333007812 l 1
 400 466.666992188 l 1025
0 400 m 1
 133.333007812 400 l 1
 133.333007812 466.666992188 l 1
 0 466.666992188 l 1
 0 400 l 1025
266.666992188 400 m 1
 533.333007812 400 l 1
 533.333007812 466.666992188 l 1
 266.666992188 466.666992188 l 1
 266.666992188 400 l 1025
0 333.333007812 m 1
 133.333007812 333.333007812 l 1
 133.333007812 400 l 1
 0 400 l 1
 0 333.333007812 l 1025
200 333.333007812 m 1
 333.333007812 333.333007812 l 1
 333.333007812 400 l 1
 200 400 l 1
 200 333.333007812 l 1025
400 333.333007812 m 1
 533.333007812 333.333007812 l 1
 533.333007812 400 l 1
 400 400 l 1
 400 333.333007812 l 1025
0 266.666992188 m 1
 133.333007812 266.666992188 l 1
 133.333007812 333.333007812 l 1
 0 333.333007812 l 1
 0 266.666992188 l 1025
200 266.666992188 m 1
 333.333007812 266.666992188 l 1
 333.333007812 333.333007812 l 1
 200 333.333007812 l 1
 200 266.666992188 l 1025
400 266.666992188 m 1
 533.333007812 266.666992188 l 1
 533.333007812 333.333007812 l 1
 400 333.333007812 l 1
 400 266.666992188 l 1025
0 200 m 1
 133.333007812 200 l 1
 133.333007812 266.666992188 l 1
 0 266.666992188 l 1
 0 200 l 1025
266.666992188 200 m 1
 466.666992188 200 l 1
 466.666992188 266.666992188 l 1
 266.666992188 266.666992188 l 1
 266.666992188 200 l 1025
0 133.333007812 m 1
 133.333007812 133.333007812 l 1
 133.333007812 200 l 1
 0 200 l 1
 0 133.333007812 l 1025
66.6669921875 66.6669921875 m 1
 200 66.6669921875 l 1
 200 133.333007812 l 1
 66.6669921875 133.333007812 l 1
 66.6669921875 66.6669921875 l 1025
400 66.6669921875 m 1
 533.333007812 66.6669921875 l 1
 533.333007812 133.333007812 l 1
 400 133.333007812 l 1
 400 66.6669921875 l 1025
133.333007812 -0 m 1
 466.666992188 -0 l 1
 466.666992188 66.6669921875 l 1
 133.333007812 66.6669921875 l 1
 133.333007812 -0 l 1
EndSplineSet
EndChar

StartChar: A
Encoding: 65 65 34
Width: 600
VWidth: 0
Flags: HW
LayerCount: 2
Back
Fore
SplineSet
200 600 m 1
 333.333007812 600 l 1
 333.333007812 666.666992188 l 1
 200 666.666992188 l 1
 200 600 l 1025
133.333007812 533.333007812 m 1
 400 533.333007812 l 1
 400 600 l 1
 133.333007812 600 l 1
 133.333007812 533.333007812 l 1025
66.6669921875 466.666992188 m 1
 200 466.666992188 l 1
 200 533.333007812 l 1
 66.6669921875 533.333007812 l 1
 66.6669921875 466.666992188 l 1025
333.333007812 466.666992188 m 1
 466.666992188 466.666992188 l 1
 466.666992188 533.333007812 l 1
 333.333007812 533.333007812 l 1
 333.333007812 466.666992188 l 1025
0 400 m 1
 133.333007812 400 l 1
 133.333007812 466.666992188 l 1
 0 466.666992188 l 1
 0 400 l 1025
400 400 m 1
 533.333007812 400 l 1
 533.333007812 466.666992188 l 1
 400 466.666992188 l 1
 400 400 l 1025
0 333.333007812 m 1
 133.333007812 333.333007812 l 1
 133.333007812 400 l 1
 0 400 l 1
 0 333.333007812 l 1025
400 333.333007812 m 1
 533.333007812 333.333007812 l 1
 533.333007812 400 l 1
 400 400 l 1
 400 333.333007812 l 1025
0 266.666992188 m 1
 133.333007812 266.666992188 l 1
 133.333007812 333.333007812 l 1
 0 333.333007812 l 1
 0 266.666992188 l 1025
400 266.666992188 m 1
 533.333007812 266.666992188 l 1
 533.333007812 333.333007812 l 1
 400 333.333007812 l 1
 400 266.666992188 l 1025
0 200 m 1
 533.333007812 200 l 1
 533.333007812 266.666992188 l 1
 0 266.666992188 l 1
 0 200 l 1025
0 133.333007812 m 1
 133.333007812 133.333007812 l 1
 133.333007812 200 l 1
 0 200 l 1
 0 133.333007812 l 1025
400 133.333007812 m 1
 533.333007812 133.333007812 l 1
 533.333007812 200 l 1
 400 200 l 1
 400 133.333007812 l 1025
0 66.6669921875 m 1
 133.333007812 66.6669921875 l 1
 133.333007812 133.333007812 l 1
 0 133.333007812 l 1
 0 66.6669921875 l 1025
400 66.6669921875 m 1
 533.333007812 66.6669921875 l 1
 533.333007812 133.333007812 l 1
 400 133.333007812 l 1
 400 66.6669921875 l 1025
0 -0 m 1
 133.333007812 -0 l 1
 133.333007812 66.6669921875 l 1
 0 66.6669921875 l 1
 0 -0 l 1025
400 -0 m 1
 533.333007812 -0 l 1
 533.333007812 66.6669921875 l 1
 400 66.6669921875 l 1
 400 -0 l 1
EndSplineSet
EndChar

StartChar: B
Encoding: 66 66 35
Width: 600
VWidth: 0
Flags: HW
LayerCount: 2
Back
Fore
SplineSet
0 600 m 1
 400 600 l 1
 400 666.666992188 l 1
 0 666.666992188 l 1
 0 600 l 1025
0 533.333007812 m 1
 133.333007812 533.333007812 l 1
 133.333007812 600 l 1
 0 600 l 1
 0 533.333007812 l 1025
333.333007812 533.333007812 m 1
 466.666992188 533.333007812 l 1
 466.666992188 600 l 1
 333.333007812 600 l 1
 333.333007812 533.333007812 l 1025
0 466.666992188 m 1
 133.333007812 466.666992188 l 1
 133.333007812 533.333007812 l 1
 0 533.333007812 l 1
 0 466.666992188 l 1025
400 466.666992188 m 1
 533.333007812 466.666992188 l 1
 533.333007812 533.333007812 l 1
 400 533.333007812 l 1
 400 466.666992188 l 1025
0 400 m 1
 133.333007812 400 l 1
 133.333007812 466.666992188 l 1
 0 466.666992188 l 1
 0 400 l 1025
333.333007812 400 m 1
 466.666992188 400 l 1
 466.666992188 466.666992188 l 1
 333.333007812 466.666992188 l 1
 333.333007812 400 l 1025
0 333.333007812 m 1
 400 333.333007812 l 1
 400 400 l 1
 0 400 l 1
 0 333.333007812 l 1025
0 266.666992188 m 1
 133.333007812 266.666992188 l 1
 133.333007812 333.333007812 l 1
 0 333.333007812 l 1
 0 266.666992188 l 1025
333.333007812 266.666992188 m 1
 466.666992188 266.666992188 l 1
 466.666992188 333.333007812 l 1
 333.333007812 333.333007812 l 1
 333.333007812 266.666992188 l 1025
0 200 m 1
 133.333007812 200 l 1
 133.333007812 266.666992188 l 1
 0 266.666992188 l 1
 0 200 l 1025
400 200 m 1
 533.333007812 200 l 1
 533.333007812 266.666992188 l 1
 400 266.666992188 l 1
 400 200 l 1025
0 133.333007812 m 1
 133.333007812 133.333007812 l 1
 133.333007812 200 l 1
 0 200 l 1
 0 133.333007812 l 1025
400 133.333007812 m 1
 533.333007812 133.333007812 l 1
 533.333007812 200 l 1
 400 200 l 1
 400 133.333007812 l 1025
0 66.6669921875 m 1
 133.333007812 66.6669921875 l 1
 133.333007812 133.333007812 l 1
 0 133.333007812 l 1
 0 66.6669921875 l 1025
333.333007812 66.6669921875 m 1
 466.666992188 66.6669921875 l 1
 466.666992188 133.333007812 l 1
 333.333007812 133.333007812 l 1
 333.333007812 66.6669921875 l 1025
0 -0 m 1
 400 -0 l 1
 400 66.6669921875 l 1
 0 66.6669921875 l 1
 0 -0 l 1
EndSplineSet
EndChar

StartChar: C
Encoding: 67 67 36
Width: 600
VWidth: 0
Flags: HW
LayerCount: 2
Back
Fore
SplineSet
133.333007812 600 m 1
 466.666992188 600 l 1
 466.666992188 666.666992188 l 1
 133.333007812 666.666992188 l 1
 133.333007812 600 l 1025
66.6669921875 533.333007812 m 1
 200 533.333007812 l 1
 200 600 l 1
 66.6669921875 600 l 1
 66.6669921875 533.333007812 l 1025
400 533.333007812 m 1
 533.333007812 533.333007812 l 1
 533.333007812 600 l 1
 400 600 l 1
 400 533.333007812 l 1025
0 466.666992188 m 1
 133.333007812 466.666992188 l 1
 133.333007812 533.333007812 l 1
 0 533.333007812 l 1
 0 466.666992188 l 1025
466.666992188 466.666992188 m 1
 533.333007812 466.666992188 l 1
 533.333007812 533.333007812 l 1
 466.666992188 533.333007812 l 1
 466.666992188 466.666992188 l 1025
0 400 m 1
 133.333007812 400 l 1
 133.333007812 466.666992188 l 1
 0 466.666992188 l 1
 0 400 l 1025
0 333.333007812 m 1
 133.333007812 333.333007812 l 1
 133.333007812 400 l 1
 0 400 l 1
 0 333.333007812 l 1025
0 266.666992188 m 1
 133.333007812 266.666992188 l 1
 133.333007812 333.333007812 l 1
 0 333.333007812 l 1
 0 266.666992188 l 1025
0 200 m 1
 133.333007812 200 l 1
 133.333007812 266.666992188 l 1
 0 266.666992188 l 1
 0 200 l 1025
0 133.333007812 m 1
 133.333007812 133.333007812 l 1
 133.333007812 200 l 1
 0 200 l 1
 0 133.333007812 l 1025
466.666992188 133.333007812 m 1
 533.333007812 133.333007812 l 1
 533.333007812 200 l 1
 466.666992188 200 l 1
 466.666992188 133.333007812 l 1025
66.6669921875 66.6669921875 m 1
 200 66.6669921875 l 1
 200 133.333007812 l 1
 66.6669921875 133.333007812 l 1
 66.6669921875 66.6669921875 l 1025
400 66.6669921875 m 1
 533.333007812 66.6669921875 l 1
 533.333007812 133.333007812 l 1
 400 133.333007812 l 1
 400 66.6669921875 l 1025
133.333007812 -0 m 1
 466.666992188 -0 l 1
 466.666992188 66.6669921875 l 1
 133.333007812 66.6669921875 l 1
 133.333007812 -0 l 1
EndSplineSet
EndChar

StartChar: D
Encoding: 68 68 37
Width: 600
VWidth: 0
Flags: HW
LayerCount: 2
Back
Fore
SplineSet
0 600 m 1
 400 600 l 1
 400 666.666992188 l 1
 0 666.666992188 l 1
 0 600 l 1025
0 533.333007812 m 1
 133.333007812 533.333007812 l 1
 133.333007812 600 l 1
 0 600 l 1
 0 533.333007812 l 1025
333.333007812 533.333007812 m 1
 466.666992188 533.333007812 l 1
 466.666992188 600 l 1
 333.333007812 600 l 1
 333.333007812 533.333007812 l 1025
0 466.666992188 m 1
 133.333007812 466.666992188 l 1
 133.333007812 533.333007812 l 1
 0 533.333007812 l 1
 0 466.666992188 l 1025
400 466.666992188 m 1
 533.333007812 466.666992188 l 1
 533.333007812 533.333007812 l 1
 400 533.333007812 l 1
 400 466.666992188 l 1025
0 400 m 1
 133.333007812 400 l 1
 133.333007812 466.666992188 l 1
 0 466.666992188 l 1
 0 400 l 1025
400 400 m 1
 533.333007812 400 l 1
 533.333007812 466.666992188 l 1
 400 466.666992188 l 1
 400 400 l 1025
0 333.333007812 m 1
 133.333007812 333.333007812 l 1
 133.333007812 400 l 1
 0 400 l 1
 0 333.333007812 l 1025
400 333.333007812 m 1
 533.333007812 333.333007812 l 1
 533.333007812 400 l 1
 400 400 l 1
 400 333.333007812 l 1025
0 266.666992188 m 1
 133.333007812 266.666992188 l 1
 133.333007812 333.333007812 l 1
 0 333.333007812 l 1
 0 266.666992188 l 1025
400 266.666992188 m 1
 533.333007812 266.666992188 l 1
 533.333007812 333.333007812 l 1
 400 333.333007812 l 1
 400 266.666992188 l 1025
0 200 m 1
 133.333007812 200 l 1
 133.333007812 266.666992188 l 1
 0 266.666992188 l 1
 0 200 l 1025
400 200 m 1
 533.333007812 200 l 1
 533.333007812 266.666992188 l 1
 400 266.666992188 l 1
 400 200 l 1025
0 133.333007812 m 1
 133.333007812 133.333007812 l 1
 133.333007812 200 l 1
 0 200 l 1
 0 133.333007812 l 1025
400 133.333007812 m 1
 533.333007812 133.333007812 l 1
 533.333007812 200 l 1
 400 200 l 1
 400 133.333007812 l 1025
0 66.6669921875 m 1
 133.333007812 66.6669921875 l 1
 133.333007812 133.333007812 l 1
 0 133.333007812 l 1
 0 66.6669921875 l 1025
333.333007812 66.6669921875 m 1
 466.666992188 66.6669921875 l 1
 466.666992188 133.333007812 l 1
 333.333007812 133.333007812 l 1
 333.333007812 66.6669921875 l 1025
0 -0 m 1
 400 -0 l 1
 400 66.6669921875 l 1
 0 66.6669921875 l 1
 0 -0 l 1
EndSplineSet
EndChar

StartChar: E
Encoding: 69 69 38
Width: 600
VWidth: 0
Flags: HW
LayerCount: 2
Back
Fore
SplineSet
66.6669921875 600 m 1
 533.333007812 600 l 1
 533.333007812 666.666992188 l 1
 66.6669921875 666.666992188 l 1
 66.6669921875 600 l 1025
66.6669921875 533.333007812 m 1
 200 533.333007812 l 1
 200 600 l 1
 66.6669921875 600 l 1
 66.6669921875 533.333007812 l 1025
66.6669921875 466.666992188 m 1
 200 466.666992188 l 1
 200 533.333007812 l 1
 66.6669921875 533.333007812 l 1
 66.6669921875 466.666992188 l 1025
66.6669921875 400 m 1
 200 400 l 1
 200 466.666992188 l 1
 66.6669921875 466.666992188 l 1
 66.6669921875 400 l 1025
66.6669921875 333.333007812 m 1
 466.666992188 333.333007812 l 1
 466.666992188 400 l 1
 66.6669921875 400 l 1
 66.6669921875 333.333007812 l 1025
66.6669921875 266.666992188 m 1
 200 266.666992188 l 1
 200 333.333007812 l 1
 66.6669921875 333.333007812 l 1
 66.6669921875 266.666992188 l 1025
66.6669921875 200 m 1
 200 200 l 1
 200 266.666992188 l 1
 66.6669921875 266.666992188 l 1
 66.6669921875 200 l 1025
66.6669921875 133.333007812 m 1
 200 133.333007812 l 1
 200 200 l 1
 66.6669921875 200 l 1
 66.6669921875 133.333007812 l 1025
66.6669921875 66.6669921875 m 1
 200 66.6669921875 l 1
 200 133.333007812 l 1
 66.6669921875 133.333007812 l 1
 66.6669921875 66.6669921875 l 1025
66.6669921875 -0 m 1
 533.333007812 -0 l 1
 533.333007812 66.6669921875 l 1
 66.6669921875 66.6669921875 l 1
 66.6669921875 -0 l 1
EndSplineSet
EndChar

StartChar: F
Encoding: 70 70 39
Width: 600
VWidth: 0
Flags: HW
LayerCount: 2
Back
Fore
SplineSet
0 600 m 1
 533.333007812 600 l 1
 533.333007812 666.666992188 l 1
 0 666.666992188 l 1
 0 600 l 1025
0 533.333007812 m 1
 133.333007812 533.333007812 l 1
 133.333007812 600 l 1
 0 600 l 1
 0 533.333007812 l 1025
0 466.666992188 m 1
 133.333007812 466.666992188 l 1
 133.333007812 533.333007812 l 1
 0 533.333007812 l 1
 0 466.666992188 l 1025
0 400 m 1
 133.333007812 400 l 1
 133.333007812 466.666992188 l 1
 0 466.666992188 l 1
 0 400 l 1025
0 333.333007812 m 1
 400 333.333007812 l 1
 400 400 l 1
 0 400 l 1
 0 333.333007812 l 1025
0 266.666992188 m 1
 133.333007812 266.666992188 l 1
 133.333007812 333.333007812 l 1
 0 333.333007812 l 1
 0 266.666992188 l 1025
0 200 m 1
 133.333007812 200 l 1
 133.333007812 266.666992188 l 1
 0 266.666992188 l 1
 0 200 l 1025
0 133.333007812 m 1
 133.333007812 133.333007812 l 1
 133.333007812 200 l 1
 0 200 l 1
 0 133.333007812 l 1025
0 66.6669921875 m 1
 133.333007812 66.6669921875 l 1
 133.333007812 133.333007812 l 1
 0 133.333007812 l 1
 0 66.6669921875 l 1025
0 -0 m 1
 133.333007812 -0 l 1
 133.333007812 66.6669921875 l 1
 0 66.6669921875 l 1
 0 -0 l 1
EndSplineSet
EndChar

StartChar: G
Encoding: 71 71 40
Width: 600
VWidth: 0
Flags: HW
LayerCount: 2
Back
Fore
SplineSet
133.333007812 600 m 1
 466.666992188 600 l 1
 466.666992188 666.666992188 l 1
 133.333007812 666.666992188 l 1
 133.333007812 600 l 1025
66.6669921875 533.333007812 m 1
 200 533.333007812 l 1
 200 600 l 1
 66.6669921875 600 l 1
 66.6669921875 533.333007812 l 1025
400 533.333007812 m 1
 533.333007812 533.333007812 l 1
 533.333007812 600 l 1
 400 600 l 1
 400 533.333007812 l 1025
0 466.666992188 m 1
 133.333007812 466.666992188 l 1
 133.333007812 533.333007812 l 1
 0 533.333007812 l 1
 0 466.666992188 l 1025
0 400 m 1
 133.333007812 400 l 1
 133.333007812 466.666992188 l 1
 0 466.666992188 l 1
 0 400 l 1025
0 333.333007812 m 1
 133.333007812 333.333007812 l 1
 133.333007812 400 l 1
 0 400 l 1
 0 333.333007812 l 1025
0 266.666992188 m 1
 133.333007812 266.666992188 l 1
 133.333007812 333.333007812 l 1
 0 333.333007812 l 1
 0 266.666992188 l 1025
333.333007812 266.666992188 m 1
 533.333007812 266.666992188 l 1
 533.333007812 333.333007812 l 1
 333.333007812 333.333007812 l 1
 333.333007812 266.666992188 l 1025
0 200 m 1
 133.333007812 200 l 1
 133.333007812 266.666992188 l 1
 0 266.666992188 l 1
 0 200 l 1025
400 200 m 1
 533.333007812 200 l 1
 533.333007812 266.666992188 l 1
 400 266.666992188 l 1
 400 200 l 1025
0 133.333007812 m 1
 133.333007812 133.333007812 l 1
 133.333007812 200 l 1
 0 200 l 1
 0 133.333007812 l 1025
400 133.333007812 m 1
 533.333007812 133.333007812 l 1
 533.333007812 200 l 1
 400 200 l 1
 400 133.333007812 l 1025
66.6669921875 66.6669921875 m 1
 200 66.6669921875 l 1
 200 133.333007812 l 1
 66.6669921875 133.333007812 l 1
 66.6669921875 66.6669921875 l 1025
400 66.6669921875 m 1
 533.333007812 66.6669921875 l 1
 533.333007812 133.333007812 l 1
 400 133.333007812 l 1
 400 66.6669921875 l 1025
133.333007812 -0 m 1
 466.666992188 -0 l 1
 466.666992188 66.6669921875 l 1
 133.333007812 66.6669921875 l 1
 133.333007812 -0 l 1
EndSplineSet
EndChar

StartChar: H
Encoding: 72 72 41
Width: 600
VWidth: 0
Flags: HW
LayerCount: 2
Back
Fore
SplineSet
0 600 m 1
 133.333007812 600 l 1
 133.333007812 666.666992188 l 1
 0 666.666992188 l 1
 0 600 l 1025
400 600 m 1
 533.333007812 600 l 1
 533.333007812 666.666992188 l 1
 400 666.666992188 l 1
 400 600 l 1025
0 533.333007812 m 1
 133.333007812 533.333007812 l 1
 133.333007812 600 l 1
 0 600 l 1
 0 533.333007812 l 1025
400 533.333007812 m 1
 533.333007812 533.333007812 l 1
 533.333007812 600 l 1
 400 600 l 1
 400 533.333007812 l 1025
0 466.666992188 m 1
 133.333007812 466.666992188 l 1
 133.333007812 533.333007812 l 1
 0 533.333007812 l 1
 0 466.666992188 l 1025
400 466.666992188 m 1
 533.333007812 466.666992188 l 1
 533.333007812 533.333007812 l 1
 400 533.333007812 l 1
 400 466.666992188 l 1025
0 400 m 1
 133.333007812 400 l 1
 133.333007812 466.666992188 l 1
 0 466.666992188 l 1
 0 400 l 1025
400 400 m 1
 533.333007812 400 l 1
 533.333007812 466.666992188 l 1
 400 466.666992188 l 1
 400 400 l 1025
0 333.333007812 m 1
 533.333007812 333.333007812 l 1
 533.333007812 400 l 1
 0 400 l 1
 0 333.333007812 l 1025
0 266.666992188 m 1
 133.333007812 266.666992188 l 1
 133.333007812 333.333007812 l 1
 0 333.333007812 l 1
 0 266.666992188 l 1025
400 266.666992188 m 1
 533.333007812 266.666992188 l 1
 533.333007812 333.333007812 l 1
 400 333.333007812 l 1
 400 266.666992188 l 1025
0 200 m 1
 133.333007812 200 l 1
 133.333007812 266.666992188 l 1
 0 266.666992188 l 1
 0 200 l 1025
400 200 m 1
 533.333007812 200 l 1
 533.333007812 266.666992188 l 1
 400 266.666992188 l 1
 400 200 l 1025
0 133.333007812 m 1
 133.333007812 133.333007812 l 1
 133.333007812 200 l 1
 0 200 l 1
 0 133.333007812 l 1025
400 133.333007812 m 1
 533.333007812 133.333007812 l 1
 533.333007812 200 l 1
 400 200 l 1
 400 133.333007812 l 1025
0 66.6669921875 m 1
 133.333007812 66.6669921875 l 1
 133.333007812 133.333007812 l 1
 0 133.333007812 l 1
 0 66.6669921875 l 1025
400 66.6669921875 m 1
 533.333007812 66.6669921875 l 1
 533.333007812 133.333007812 l 1
 400 133.333007812 l 1
 400 66.6669921875 l 1025
0 -0 m 1
 133.333007812 -0 l 1
 133.333007812 66.6669921875 l 1
 0 66.6669921875 l 1
 0 -0 l 1025
400 -0 m 1
 533.333007812 -0 l 1
 533.333007812 66.6669921875 l 1
 400 66.6669921875 l 1
 400 -0 l 1
EndSplineSet
EndChar

StartChar: I
Encoding: 73 73 42
Width: 600
VWidth: 0
Flags: HW
LayerCount: 2
Back
Fore
SplineSet
66.6669921875 600 m 1
 466.666992188 600 l 1
 466.666992188 666.666992188 l 1
 66.6669921875 666.666992188 l 1
 66.6669921875 600 l 1025
200 533.333007812 m 1
 333.333007812 533.333007812 l 1
 333.333007812 600 l 1
 200 600 l 1
 200 533.333007812 l 1025
200 466.666992188 m 1
 333.333007812 466.666992188 l 1
 333.333007812 533.333007812 l 1
 200 533.333007812 l 1
 200 466.666992188 l 1025
200 400 m 1
 333.333007812 400 l 1
 333.333007812 466.666992188 l 1
 200 466.666992188 l 1
 200 400 l 1025
200 333.333007812 m 1
 333.333007812 333.333007812 l 1
 333.333007812 400 l 1
 200 400 l 1
 200 333.333007812 l 1025
200 266.666992188 m 1
 333.333007812 266.666992188 l 1
 333.333007812 333.333007812 l 1
 200 333.333007812 l 1
 200 266.666992188 l 1025
200 200 m 1
 333.333007812 200 l 1
 333.333007812 266.666992188 l 1
 200 266.666992188 l 1
 200 200 l 1025
200 133.333007812 m 1
 333.333007812 133.333007812 l 1
 333.333007812 200 l 1
 200 200 l 1
 200 133.333007812 l 1025
200 66.6669921875 m 1
 333.333007812 66.6669921875 l 1
 333.333007812 133.333007812 l 1
 200 133.333007812 l 1
 200 66.6669921875 l 1025
66.6669921875 -0 m 1
 466.666992188 -0 l 1
 466.666992188 66.6669921875 l 1
 66.6669921875 66.6669921875 l 1
 66.6669921875 -0 l 1
EndSplineSet
EndChar

StartChar: J
Encoding: 74 74 43
Width: 600
VWidth: 0
Flags: HW
LayerCount: 2
Back
Fore
SplineSet
200 600 m 1
 466.666992188 600 l 1
 466.666992188 666.666992188 l 1
 200 666.666992188 l 1
 200 600 l 1025
333.333007812 533.333007812 m 1
 466.666992188 533.333007812 l 1
 466.666992188 600 l 1
 333.333007812 600 l 1
 333.333007812 533.333007812 l 1025
333.333007812 466.666992188 m 1
 466.666992188 466.666992188 l 1
 466.666992188 533.333007812 l 1
 333.333007812 533.333007812 l 1
 333.333007812 466.666992188 l 1025
333.333007812 400 m 1
 466.666992188 400 l 1
 466.666992188 466.666992188 l 1
 333.333007812 466.666992188 l 1
 333.333007812 400 l 1025
333.333007812 333.333007812 m 1
 466.666992188 333.333007812 l 1
 466.666992188 400 l 1
 333.333007812 400 l 1
 333.333007812 333.333007812 l 1025
333.333007812 266.666992188 m 1
 466.666992188 266.666992188 l 1
 466.666992188 333.333007812 l 1
 333.333007812 333.333007812 l 1
 333.333007812 266.666992188 l 1025
333.333007812 200 m 1
 466.666992188 200 l 1
 466.666992188 266.666992188 l 1
 333.333007812 266.666992188 l 1
 333.333007812 200 l 1025
66.6669921875 133.333007812 m 1
 133.333007812 133.333007812 l 1
 133.333007812 200 l 1
 66.6669921875 200 l 1
 66.6669921875 133.333007812 l 1025
333.333007812 133.333007812 m 1
 466.666992188 133.333007812 l 1
 466.666992188 200 l 1
 333.333007812 200 l 1
 333.333007812 133.333007812 l 1025
66.6669921875 66.6669921875 m 1
 200 66.6669921875 l 1
 200 133.333007812 l 1
 66.6669921875 133.333007812 l 1
 66.6669921875 66.6669921875 l 1025
266.666992188 66.6669921875 m 1
 400 66.6669921875 l 1
 400 133.333007812 l 1
 266.666992188 133.333007812 l 1
 266.666992188 66.6669921875 l 1025
133.333007812 -0 m 1
 333.333007812 -0 l 1
 333.333007812 66.6669921875 l 1
 133.333007812 66.6669921875 l 1
 133.333007812 -0 l 1
EndSplineSet
EndChar

StartChar: K
Encoding: 75 75 44
Width: 600
VWidth: 0
Flags: HW
LayerCount: 2
Back
Fore
SplineSet
0 600 m 1
 133.333007812 600 l 1
 133.333007812 666.666992188 l 1
 0 666.666992188 l 1
 0 600 l 1025
400 600 m 1
 533.333007812 600 l 1
 533.333007812 666.666992188 l 1
 400 666.666992188 l 1
 400 600 l 1025
0 533.333007812 m 1
 133.333007812 533.333007812 l 1
 133.333007812 600 l 1
 0 600 l 1
 0 533.333007812 l 1025
333.333007812 533.333007812 m 1
 466.666992188 533.333007812 l 1
 466.666992188 600 l 1
 333.333007812 600 l 1
 333.333007812 533.333007812 l 1025
0 466.666992188 m 1
 133.333007812 466.666992188 l 1
 133.333007812 533.333007812 l 1
 0 533.333007812 l 1
 0 466.666992188 l 1025
266.666992188 466.666992188 m 1
 400 466.666992188 l 1
 400 533.333007812 l 1
 266.666992188 533.333007812 l 1
 266.666992188 466.666992188 l 1025
0 400 m 1
 133.333007812 400 l 1
 133.333007812 466.666992188 l 1
 0 466.666992188 l 1
 0 400 l 1025
200 400 m 1
 333.333007812 400 l 1
 333.333007812 466.666992188 l 1
 200 466.666992188 l 1
 200 400 l 1025
0 333.333007812 m 1
 266.666992188 333.333007812 l 1
 266.666992188 400 l 1
 0 400 l 1
 0 333.333007812 l 1025
0 266.666992188 m 1
 266.666992188 266.666992188 l 1
 266.666992188 333.333007812 l 1
 0 333.333007812 l 1
 0 266.666992188 l 1025
0 200 m 1
 133.333007812 200 l 1
 133.333007812 266.666992188 l 1
 0 266.666992188 l 1
 0 200 l 1025
200 200 m 1
 333.333007812 200 l 1
 333.333007812 266.666992188 l 1
 200 266.666992188 l 1
 200 200 l 1025
0 133.333007812 m 1
 133.333007812 133.333007812 l 1
 133.333007812 200 l 1
 0 200 l 1
 0 133.333007812 l 1025
266.666992188 133.333007812 m 1
 400 133.333007812 l 1
 400 200 l 1
 266.666992188 200 l 1
 266.666992188 133.333007812 l 1025
0 66.6669921875 m 1
 133.333007812 66.6669921875 l 1
 133.333007812 133.333007812 l 1
 0 133.333007812 l 1
 0 66.6669921875 l 1025
333.333007812 66.6669921875 m 1
 466.666992188 66.6669921875 l 1
 466.666992188 133.333007812 l 1
 333.333007812 133.333007812 l 1
 333.333007812 66.6669921875 l 1025
0 -0 m 1
 133.333007812 -0 l 1
 133.333007812 66.6669921875 l 1
 0 66.6669921875 l 1
 0 -0 l 1025
400 -0 m 1
 533.333007812 -0 l 1
 533.333007812 66.6669921875 l 1
 400 66.6669921875 l 1
 400 -0 l 1
EndSplineSet
EndChar

StartChar: L
Encoding: 76 76 45
Width: 600
VWidth: 0
Flags: HW
LayerCount: 2
Back
Fore
SplineSet
66.6669921875 600 m 1
 200 600 l 1
 200 666.666992188 l 1
 66.6669921875 666.666992188 l 1
 66.6669921875 600 l 1025
66.6669921875 533.333007812 m 1
 200 533.333007812 l 1
 200 600 l 1
 66.6669921875 600 l 1
 66.6669921875 533.333007812 l 1025
66.6669921875 466.666992188 m 1
 200 466.666992188 l 1
 200 533.333007812 l 1
 66.6669921875 533.333007812 l 1
 66.6669921875 466.666992188 l 1025
66.6669921875 400 m 1
 200 400 l 1
 200 466.666992188 l 1
 66.6669921875 466.666992188 l 1
 66.6669921875 400 l 1025
66.6669921875 333.333007812 m 1
 200 333.333007812 l 1
 200 400 l 1
 66.6669921875 400 l 1
 66.6669921875 333.333007812 l 1025
66.6669921875 266.666992188 m 1
 200 266.666992188 l 1
 200 333.333007812 l 1
 66.6669921875 333.333007812 l 1
 66.6669921875 266.666992188 l 1025
66.6669921875 200 m 1
 200 200 l 1
 200 266.666992188 l 1
 66.6669921875 266.666992188 l 1
 66.6669921875 200 l 1025
66.6669921875 133.333007812 m 1
 200 133.333007812 l 1
 200 200 l 1
 66.6669921875 200 l 1
 66.6669921875 133.333007812 l 1025
66.6669921875 66.6669921875 m 1
 200 66.6669921875 l 1
 200 133.333007812 l 1
 66.6669921875 133.333007812 l 1
 66.6669921875 66.6669921875 l 1025
66.6669921875 -0 m 1
 533.333007812 -0 l 1
 533.333007812 66.6669921875 l 1
 66.6669921875 66.6669921875 l 1
 66.6669921875 -0 l 1
EndSplineSet
EndChar

StartChar: M
Encoding: 77 77 46
Width: 600
VWidth: 0
Flags: HW
LayerCount: 2
Back
Fore
SplineSet
0 600 m 1
 133.333007812 600 l 1
 133.333007812 666.666992188 l 1
 0 666.666992188 l 1
 0 600 l 1025
400 600 m 1
 533.333007812 600 l 1
 533.333007812 666.666992188 l 1
 400 666.666992188 l 1
 400 600 l 1025
0 533.333007812 m 1
 200 533.333007812 l 1
 200 600 l 1
 0 600 l 1
 0 533.333007812 l 1025
333.333007812 533.333007812 m 1
 533.333007812 533.333007812 l 1
 533.333007812 600 l 1
 333.333007812 600 l 1
 333.333007812 533.333007812 l 1025
0 466.666992188 m 1
 533.333007812 466.666992188 l 1
 533.333007812 533.333007812 l 1
 0 533.333007812 l 1
 0 466.666992188 l 1025
0 400 m 1
 133.333007812 400 l 1
 133.333007812 466.666992188 l 1
 0 466.666992188 l 1
 0 400 l 1025
200 400 m 1
 333.333007812 400 l 1
 333.333007812 466.666992188 l 1
 200 466.666992188 l 1
 200 400 l 1025
400 400 m 1
 533.333007812 400 l 1
 533.333007812 466.666992188 l 1
 400 466.666992188 l 1
 400 400 l 1025
0 333.333007812 m 1
 133.333007812 333.333007812 l 1
 133.333007812 400 l 1
 0 400 l 1
 0 333.333007812 l 1025
200 333.333007812 m 1
 333.333007812 333.333007812 l 1
 333.333007812 400 l 1
 200 400 l 1
 200 333.333007812 l 1025
400 333.333007812 m 1
 533.333007812 333.333007812 l 1
 533.333007812 400 l 1
 400 400 l 1
 400 333.333007812 l 1025
0 266.666992188 m 1
 133.333007812 266.666992188 l 1
 133.333007812 333.333007812 l 1
 0 333.333007812 l 1
 0 266.666992188 l 1025
200 266.666992188 m 1
 333.333007812 266.666992188 l 1
 333.333007812 333.333007812 l 1
 200 333.333007812 l 1
 200 266.666992188 l 1025
400 266.666992188 m 1
 533.333007812 266.666992188 l 1
 533.333007812 333.333007812 l 1
 400 333.333007812 l 1
 400 266.666992188 l 1025
0 200 m 1
 133.333007812 200 l 1
 133.333007812 266.666992188 l 1
 0 266.666992188 l 1
 0 200 l 1025
400 200 m 1
 533.333007812 200 l 1
 533.333007812 266.666992188 l 1
 400 266.666992188 l 1
 400 200 l 1025
0 133.333007812 m 1
 133.333007812 133.333007812 l 1
 133.333007812 200 l 1
 0 200 l 1
 0 133.333007812 l 1025
400 133.333007812 m 1
 533.333007812 133.333007812 l 1
 533.333007812 200 l 1
 400 200 l 1
 400 133.333007812 l 1025
0 66.6669921875 m 1
 133.333007812 66.6669921875 l 1
 133.333007812 133.333007812 l 1
 0 133.333007812 l 1
 0 66.6669921875 l 1025
400 66.6669921875 m 1
 533.333007812 66.6669921875 l 1
 533.333007812 133.333007812 l 1
 400 133.333007812 l 1
 400 66.6669921875 l 1025
0 -0 m 1
 133.333007812 -0 l 1
 133.333007812 66.6669921875 l 1
 0 66.6669921875 l 1
 0 -0 l 1025
400 -0 m 1
 533.333007812 -0 l 1
 533.333007812 66.6669921875 l 1
 400 66.6669921875 l 1
 400 -0 l 1
EndSplineSet
EndChar

StartChar: N
Encoding: 78 78 47
Width: 600
VWidth: 0
Flags: HW
LayerCount: 2
Back
Fore
SplineSet
0 600 m 1
 133.333007812 600 l 1
 133.333007812 666.666992188 l 1
 0 666.666992188 l 1
 0 600 l 1025
400 600 m 1
 533.333007812 600 l 1
 533.333007812 666.666992188 l 1
 400 666.666992188 l 1
 400 600 l 1025
0 533.333007812 m 1
 200 533.333007812 l 1
 200 600 l 1
 0 600 l 1
 0 533.333007812 l 1025
400 533.333007812 m 1
 533.333007812 533.333007812 l 1
 533.333007812 600 l 1
 400 600 l 1
 400 533.333007812 l 1025
0 466.666992188 m 1
 266.666992188 466.666992188 l 1
 266.666992188 533.333007812 l 1
 0 533.333007812 l 1
 0 466.666992188 l 1025
400 466.666992188 m 1
 533.333007812 466.666992188 l 1
 533.333007812 533.333007812 l 1
 400 533.333007812 l 1
 400 466.666992188 l 1025
0 400 m 1
 266.666992188 400 l 1
 266.666992188 466.666992188 l 1
 0 466.666992188 l 1
 0 400 l 1025
400 400 m 1
 533.333007812 400 l 1
 533.333007812 466.666992188 l 1
 400 466.666992188 l 1
 400 400 l 1025
0 333.333007812 m 1
 133.333007812 333.333007812 l 1
 133.333007812 400 l 1
 0 400 l 1
 0 333.333007812 l 1025
200 333.333007812 m 1
 333.333007812 333.333007812 l 1
 333.333007812 400 l 1
 200 400 l 1
 200 333.333007812 l 1025
400 333.333007812 m 1
 533.333007812 333.333007812 l 1
 533.333007812 400 l 1
 400 400 l 1
 400 333.333007812 l 1025
0 266.666992188 m 1
 133.333007812 266.666992188 l 1
 133.333007812 333.333007812 l 1
 0 333.333007812 l 1
 0 266.666992188 l 1025
200 266.666992188 m 1
 333.333007812 266.666992188 l 1
 333.333007812 333.333007812 l 1
 200 333.333007812 l 1
 200 266.666992188 l 1025
400 266.666992188 m 1
 533.333007812 266.666992188 l 1
 533.333007812 333.333007812 l 1
 400 333.333007812 l 1
 400 266.666992188 l 1025
0 200 m 1
 133.333007812 200 l 1
 133.333007812 266.666992188 l 1
 0 266.666992188 l 1
 0 200 l 1025
266.666992188 200 m 1
 533.333007812 200 l 1
 533.333007812 266.666992188 l 1
 266.666992188 266.666992188 l 1
 266.666992188 200 l 1025
0 133.333007812 m 1
 133.333007812 133.333007812 l 1
 133.333007812 200 l 1
 0 200 l 1
 0 133.333007812 l 1025
333.333007812 133.333007812 m 1
 533.333007812 133.333007812 l 1
 533.333007812 200 l 1
 333.333007812 200 l 1
 333.333007812 133.333007812 l 1025
0 66.6669921875 m 1
 133.333007812 66.6669921875 l 1
 133.333007812 133.333007812 l 1
 0 133.333007812 l 1
 0 66.6669921875 l 1025
333.333007812 66.6669921875 m 1
 533.333007812 66.6669921875 l 1
 533.333007812 133.333007812 l 1
 333.333007812 133.333007812 l 1
 333.333007812 66.6669921875 l 1025
0 -0 m 1
 133.333007812 -0 l 1
 133.333007812 66.6669921875 l 1
 0 66.6669921875 l 1
 0 -0 l 1025
400 -0 m 1
 533.333007812 -0 l 1
 533.333007812 66.6669921875 l 1
 400 66.6669921875 l 1
 400 -0 l 1
EndSplineSet
EndChar

StartChar: O
Encoding: 79 79 48
Width: 600
VWidth: 0
Flags: HW
LayerCount: 2
Back
Fore
SplineSet
133.333007812 600 m 1
 400 600 l 1
 400 666.666992188 l 1
 133.333007812 666.666992188 l 1
 133.333007812 600 l 1025
66.6669921875 533.333007812 m 1
 200 533.333007812 l 1
 200 600 l 1
 66.6669921875 600 l 1
 66.6669921875 533.333007812 l 1025
333.333007812 533.333007812 m 1
 466.666992188 533.333007812 l 1
 466.666992188 600 l 1
 333.333007812 600 l 1
 333.333007812 533.333007812 l 1025
0 466.666992188 m 1
 133.333007812 466.666992188 l 1
 133.333007812 533.333007812 l 1
 0 533.333007812 l 1
 0 466.666992188 l 1025
400 466.666992188 m 1
 533.333007812 466.666992188 l 1
 533.333007812 533.333007812 l 1
 400 533.333007812 l 1
 400 466.666992188 l 1025
0 400 m 1
 133.333007812 400 l 1
 133.333007812 466.666992188 l 1
 0 466.666992188 l 1
 0 400 l 1025
400 400 m 1
 533.333007812 400 l 1
 533.333007812 466.666992188 l 1
 400 466.666992188 l 1
 400 400 l 1025
0 333.333007812 m 1
 133.333007812 333.333007812 l 1
 133.333007812 400 l 1
 0 400 l 1
 0 333.333007812 l 1025
400 333.333007812 m 1
 533.333007812 333.333007812 l 1
 533.333007812 400 l 1
 400 400 l 1
 400 333.333007812 l 1025
0 266.666992188 m 1
 133.333007812 266.666992188 l 1
 133.333007812 333.333007812 l 1
 0 333.333007812 l 1
 0 266.666992188 l 1025
400 266.666992188 m 1
 533.333007812 266.666992188 l 1
 533.333007812 333.333007812 l 1
 400 333.333007812 l 1
 400 266.666992188 l 1025
0 200 m 1
 133.333007812 200 l 1
 133.333007812 266.666992188 l 1
 0 266.666992188 l 1
 0 200 l 1025
400 200 m 1
 533.333007812 200 l 1
 533.333007812 266.666992188 l 1
 400 266.666992188 l 1
 400 200 l 1025
0 133.333007812 m 1
 133.333007812 133.333007812 l 1
 133.333007812 200 l 1
 0 200 l 1
 0 133.333007812 l 1025
400 133.333007812 m 1
 533.333007812 133.333007812 l 1
 533.333007812 200 l 1
 400 200 l 1
 400 133.333007812 l 1025
66.6669921875 66.6669921875 m 1
 200 66.6669921875 l 1
 200 133.333007812 l 1
 66.6669921875 133.333007812 l 1
 66.6669921875 66.6669921875 l 1025
333.333007812 66.6669921875 m 1
 466.666992188 66.6669921875 l 1
 466.666992188 133.333007812 l 1
 333.333007812 133.333007812 l 1
 333.333007812 66.6669921875 l 1025
133.333007812 -0 m 1
 400 -0 l 1
 400 66.6669921875 l 1
 133.333007812 66.6669921875 l 1
 133.333007812 -0 l 1
EndSplineSet
EndChar

StartChar: P
Encoding: 80 80 49
Width: 600
VWidth: 0
Flags: HW
LayerCount: 2
Back
Fore
SplineSet
0 600 m 1
 466.666992188 600 l 1
 466.666992188 666.666992188 l 1
 0 666.666992188 l 1
 0 600 l 1025
0 533.333007812 m 1
 133.333007812 533.333007812 l 1
 133.333007812 600 l 1
 0 600 l 1
 0 533.333007812 l 1025
400 533.333007812 m 1
 533.333007812 533.333007812 l 1
 533.333007812 600 l 1
 400 600 l 1
 400 533.333007812 l 1025
0 466.666992188 m 1
 133.333007812 466.666992188 l 1
 133.333007812 533.333007812 l 1
 0 533.333007812 l 1
 0 466.666992188 l 1025
400 466.666992188 m 1
 533.333007812 466.666992188 l 1
 533.333007812 533.333007812 l 1
 400 533.333007812 l 1
 400 466.666992188 l 1025
0 400 m 1
 133.333007812 400 l 1
 133.333007812 466.666992188 l 1
 0 466.666992188 l 1
 0 400 l 1025
400 400 m 1
 533.333007812 400 l 1
 533.333007812 466.666992188 l 1
 400 466.666992188 l 1
 400 400 l 1025
0 333.333007812 m 1
 466.666992188 333.333007812 l 1
 466.666992188 400 l 1
 0 400 l 1
 0 333.333007812 l 1025
0 266.666992188 m 1
 133.333007812 266.666992188 l 1
 133.333007812 333.333007812 l 1
 0 333.333007812 l 1
 0 266.666992188 l 1025
0 200 m 1
 133.333007812 200 l 1
 133.333007812 266.666992188 l 1
 0 266.666992188 l 1
 0 200 l 1025
0 133.333007812 m 1
 133.333007812 133.333007812 l 1
 133.333007812 200 l 1
 0 200 l 1
 0 133.333007812 l 1025
0 66.6669921875 m 1
 133.333007812 66.6669921875 l 1
 133.333007812 133.333007812 l 1
 0 133.333007812 l 1
 0 66.6669921875 l 1025
0 -0 m 1
 133.333007812 -0 l 1
 133.333007812 66.6669921875 l 1
 0 66.6669921875 l 1
 0 -0 l 1
EndSplineSet
EndChar

StartChar: Q
Encoding: 81 81 50
Width: 600
VWidth: 0
Flags: HW
LayerCount: 2
Back
Fore
SplineSet
133.333007812 600 m 1
 400 600 l 1
 400 666.666992188 l 1
 133.333007812 666.666992188 l 1
 133.333007812 600 l 1025
66.6669921875 533.333007812 m 1
 200 533.333007812 l 1
 200 600 l 1
 66.6669921875 600 l 1
 66.6669921875 533.333007812 l 1025
333.333007812 533.333007812 m 1
 466.666992188 533.333007812 l 1
 466.666992188 600 l 1
 333.333007812 600 l 1
 333.333007812 533.333007812 l 1025
0 466.666992188 m 1
 133.333007812 466.666992188 l 1
 133.333007812 533.333007812 l 1
 0 533.333007812 l 1
 0 466.666992188 l 1025
400 466.666992188 m 1
 533.333007812 466.666992188 l 1
 533.333007812 533.333007812 l 1
 400 533.333007812 l 1
 400 466.666992188 l 1025
0 400 m 1
 133.333007812 400 l 1
 133.333007812 466.666992188 l 1
 0 466.666992188 l 1
 0 400 l 1025
400 400 m 1
 533.333007812 400 l 1
 533.333007812 466.666992188 l 1
 400 466.666992188 l 1
 400 400 l 1025
0 333.333007812 m 1
 133.333007812 333.333007812 l 1
 133.333007812 400 l 1
 0 400 l 1
 0 333.333007812 l 1025
400 333.333007812 m 1
 533.333007812 333.333007812 l 1
 533.333007812 400 l 1
 400 400 l 1
 400 333.333007812 l 1025
0 266.666992188 m 1
 133.333007812 266.666992188 l 1
 133.333007812 333.333007812 l 1
 0 333.333007812 l 1
 0 266.666992188 l 1025
400 266.666992188 m 1
 533.333007812 266.666992188 l 1
 533.333007812 333.333007812 l 1
 400 333.333007812 l 1
 400 266.666992188 l 1025
0 200 m 1
 133.333007812 200 l 1
 133.333007812 266.666992188 l 1
 0 266.666992188 l 1
 0 200 l 1025
200 200 m 1
 333.333007812 200 l 1
 333.333007812 266.666992188 l 1
 200 266.666992188 l 1
 200 200 l 1025
400 200 m 1
 533.333007812 200 l 1
 533.333007812 266.666992188 l 1
 400 266.666992188 l 1
 400 200 l 1025
0 133.333007812 m 1
 133.333007812 133.333007812 l 1
 133.333007812 200 l 1
 0 200 l 1
 0 133.333007812 l 1025
266.666992188 133.333007812 m 1
 533.333007812 133.333007812 l 1
 533.333007812 200 l 1
 266.666992188 200 l 1
 266.666992188 133.333007812 l 1025
66.6669921875 66.6669921875 m 1
 200 66.6669921875 l 1
 200 133.333007812 l 1
 66.6669921875 133.333007812 l 1
 66.6669921875 66.6669921875 l 1025
333.333007812 66.6669921875 m 1
 466.666992188 66.6669921875 l 1
 466.666992188 133.333007812 l 1
 333.333007812 133.333007812 l 1
 333.333007812 66.6669921875 l 1025
133.333007812 -0 m 1
 400 -0 l 1
 400 66.6669921875 l 1
 133.333007812 66.6669921875 l 1
 133.333007812 -0 l 1025
466.666992188 -0 m 1
 533.333007812 -0 l 1
 533.333007812 66.6669921875 l 1
 466.666992188 66.6669921875 l 1
 466.666992188 -0 l 1
EndSplineSet
EndChar

StartChar: R
Encoding: 82 82 51
Width: 600
VWidth: 0
Flags: HW
LayerCount: 2
Back
Fore
SplineSet
0 600 m 1
 466.666992188 600 l 1
 466.666992188 666.666992188 l 1
 0 666.666992188 l 1
 0 600 l 1025
0 533.333007812 m 1
 133.333007812 533.333007812 l 1
 133.333007812 600 l 1
 0 600 l 1
 0 533.333007812 l 1025
400 533.333007812 m 1
 533.333007812 533.333007812 l 1
 533.333007812 600 l 1
 400 600 l 1
 400 533.333007812 l 1025
0 466.666992188 m 1
 133.333007812 466.666992188 l 1
 133.333007812 533.333007812 l 1
 0 533.333007812 l 1
 0 466.666992188 l 1025
400 466.666992188 m 1
 533.333007812 466.666992188 l 1
 533.333007812 533.333007812 l 1
 400 533.333007812 l 1
 400 466.666992188 l 1025
0 400 m 1
 133.333007812 400 l 1
 133.333007812 466.666992188 l 1
 0 466.666992188 l 1
 0 400 l 1025
400 400 m 1
 533.333007812 400 l 1
 533.333007812 466.666992188 l 1
 400 466.666992188 l 1
 400 400 l 1025
0 333.333007812 m 1
 466.666992188 333.333007812 l 1
 466.666992188 400 l 1
 0 400 l 1
 0 333.333007812 l 1025
0 266.666992188 m 1
 333.333007812 266.666992188 l 1
 333.333007812 333.333007812 l 1
 0 333.333007812 l 1
 0 266.666992188 l 1025
0 200 m 1
 133.333007812 200 l 1
 133.333007812 266.666992188 l 1
 0 266.666992188 l 1
 0 200 l 1025
266.666992188 200 m 1
 400 200 l 1
 400 266.666992188 l 1
 266.666992188 266.666992188 l 1
 266.666992188 200 l 1025
0 133.333007812 m 1
 133.333007812 133.333007812 l 1
 133.333007812 200 l 1
 0 200 l 1
 0 133.333007812 l 1025
333.333007812 133.333007812 m 1
 466.666992188 133.333007812 l 1
 466.666992188 200 l 1
 333.333007812 200 l 1
 333.333007812 133.333007812 l 1025
0 66.6669921875 m 1
 133.333007812 66.6669921875 l 1
 133.333007812 133.333007812 l 1
 0 133.333007812 l 1
 0 66.6669921875 l 1025
400 66.6669921875 m 1
 533.333007812 66.6669921875 l 1
 533.333007812 133.333007812 l 1
 400 133.333007812 l 1
 400 66.6669921875 l 1025
0 -0 m 1
 133.333007812 -0 l 1
 133.333007812 66.6669921875 l 1
 0 66.6669921875 l 1
 0 -0 l 1025
400 -0 m 1
 533.333007812 -0 l 1
 533.333007812 66.6669921875 l 1
 400 66.6669921875 l 1
 400 -0 l 1
EndSplineSet
EndChar

StartChar: S
Encoding: 83 83 52
Width: 600
VWidth: 0
Flags: HW
LayerCount: 2
Back
Fore
SplineSet
66.6669921875 600 m 1
 466.666992188 600 l 1
 466.666992188 666.666992188 l 1
 66.6669921875 666.666992188 l 1
 66.6669921875 600 l 1025
0 533.333007812 m 1
 133.333007812 533.333007812 l 1
 133.333007812 600 l 1
 0 600 l 1
 0 533.333007812 l 1025
400 533.333007812 m 1
 533.333007812 533.333007812 l 1
 533.333007812 600 l 1
 400 600 l 1
 400 533.333007812 l 1025
0 466.666992188 m 1
 133.333007812 466.666992188 l 1
 133.333007812 533.333007812 l 1
 0 533.333007812 l 1
 0 466.666992188 l 1025
0 400 m 1
 133.333007812 400 l 1
 133.333007812 466.666992188 l 1
 0 466.666992188 l 1
 0 400 l 1025
66.6669921875 333.333007812 m 1
 466.666992188 333.333007812 l 1
 466.666992188 400 l 1
 66.6669921875 400 l 1
 66.6669921875 333.333007812 l 1025
400 266.666992188 m 1
 533.333007812 266.666992188 l 1
 533.333007812 333.333007812 l 1
 400 333.333007812 l 1
 400 266.666992188 l 1025
400 200 m 1
 533.333007812 200 l 1
 533.333007812 266.666992188 l 1
 400 266.666992188 l 1
 400 200 l 1025
400 133.333007812 m 1
 533.333007812 133.333007812 l 1
 533.333007812 200 l 1
 400 200 l 1
 400 133.333007812 l 1025
0 66.6669921875 m 1
 133.333007812 66.6669921875 l 1
 133.333007812 133.333007812 l 1
 0 133.333007812 l 1
 0 66.6669921875 l 1025
400 66.6669921875 m 1
 533.333007812 66.6669921875 l 1
 533.333007812 133.333007812 l 1
 400 133.333007812 l 1
 400 66.6669921875 l 1025
66.6669921875 -0 m 1
 466.666992188 -0 l 1
 466.666992188 66.6669921875 l 1
 66.6669921875 66.6669921875 l 1
 66.6669921875 -0 l 1
EndSplineSet
EndChar

StartChar: T
Encoding: 84 84 53
Width: 600
VWidth: 0
Flags: HW
LayerCount: 2
Back
Fore
SplineSet
0 600 m 1
 533.333007812 600 l 1
 533.333007812 666.666992188 l 1
 0 666.666992188 l 1
 0 600 l 1025
200 533.333007812 m 1
 333.333007812 533.333007812 l 1
 333.333007812 600 l 1
 200 600 l 1
 200 533.333007812 l 1025
200 466.666992188 m 1
 333.333007812 466.666992188 l 1
 333.333007812 533.333007812 l 1
 200 533.333007812 l 1
 200 466.666992188 l 1025
200 400 m 1
 333.333007812 400 l 1
 333.333007812 466.666992188 l 1
 200 466.666992188 l 1
 200 400 l 1025
200 333.333007812 m 1
 333.333007812 333.333007812 l 1
 333.333007812 400 l 1
 200 400 l 1
 200 333.333007812 l 1025
200 266.666992188 m 1
 333.333007812 266.666992188 l 1
 333.333007812 333.333007812 l 1
 200 333.333007812 l 1
 200 266.666992188 l 1025
200 200 m 1
 333.333007812 200 l 1
 333.333007812 266.666992188 l 1
 200 266.666992188 l 1
 200 200 l 1025
200 133.333007812 m 1
 333.333007812 133.333007812 l 1
 333.333007812 200 l 1
 200 200 l 1
 200 133.333007812 l 1025
200 66.6669921875 m 1
 333.333007812 66.6669921875 l 1
 333.333007812 133.333007812 l 1
 200 133.333007812 l 1
 200 66.6669921875 l 1025
200 -0 m 1
 333.333007812 -0 l 1
 333.333007812 66.6669921875 l 1
 200 66.6669921875 l 1
 200 -0 l 1
EndSplineSet
EndChar

StartChar: U
Encoding: 85 85 54
Width: 600
VWidth: 0
Flags: HW
LayerCount: 2
Back
Fore
SplineSet
0 600 m 1
 133.333007812 600 l 1
 133.333007812 666.666992188 l 1
 0 666.666992188 l 1
 0 600 l 1025
400 600 m 1
 533.333007812 600 l 1
 533.333007812 666.666992188 l 1
 400 666.666992188 l 1
 400 600 l 1025
0 533.333007812 m 1
 133.333007812 533.333007812 l 1
 133.333007812 600 l 1
 0 600 l 1
 0 533.333007812 l 1025
400 533.333007812 m 1
 533.333007812 533.333007812 l 1
 533.333007812 600 l 1
 400 600 l 1
 400 533.333007812 l 1025
0 466.666992188 m 1
 133.333007812 466.666992188 l 1
 133.333007812 533.333007812 l 1
 0 533.333007812 l 1
 0 466.666992188 l 1025
400 466.666992188 m 1
 533.333007812 466.666992188 l 1
 533.333007812 533.333007812 l 1
 400 533.333007812 l 1
 400 466.666992188 l 1025
0 400 m 1
 133.333007812 400 l 1
 133.333007812 466.666992188 l 1
 0 466.666992188 l 1
 0 400 l 1025
400 400 m 1
 533.333007812 400 l 1
 533.333007812 466.666992188 l 1
 400 466.666992188 l 1
 400 400 l 1025
0 333.333007812 m 1
 133.333007812 333.333007812 l 1
 133.333007812 400 l 1
 0 400 l 1
 0 333.333007812 l 1025
400 333.333007812 m 1
 533.333007812 333.333007812 l 1
 533.333007812 400 l 1
 400 400 l 1
 400 333.333007812 l 1025
0 266.666992188 m 1
 133.333007812 266.666992188 l 1
 133.333007812 333.333007812 l 1
 0 333.333007812 l 1
 0 266.666992188 l 1025
400 266.666992188 m 1
 533.333007812 266.666992188 l 1
 533.333007812 333.333007812 l 1
 400 333.333007812 l 1
 400 266.666992188 l 1025
0 200 m 1
 133.333007812 200 l 1
 133.333007812 266.666992188 l 1
 0 266.666992188 l 1
 0 200 l 1025
400 200 m 1
 533.333007812 200 l 1
 533.333007812 266.666992188 l 1
 400 266.666992188 l 1
 400 200 l 1025
0 133.333007812 m 1
 133.333007812 133.333007812 l 1
 133.333007812 200 l 1
 0 200 l 1
 0 133.333007812 l 1025
400 133.333007812 m 1
 533.333007812 133.333007812 l 1
 533.333007812 200 l 1
 400 200 l 1
 400 133.333007812 l 1025
66.6669921875 66.6669921875 m 1
 200 66.6669921875 l 1
 200 133.333007812 l 1
 66.6669921875 133.333007812 l 1
 66.6669921875 66.6669921875 l 1025
333.333007812 66.6669921875 m 1
 466.666992188 66.6669921875 l 1
 466.666992188 133.333007812 l 1
 333.333007812 133.333007812 l 1
 333.333007812 66.6669921875 l 1025
133.333007812 -0 m 1
 400 -0 l 1
 400 66.6669921875 l 1
 133.333007812 66.6669921875 l 1
 133.333007812 -0 l 1
EndSplineSet
EndChar

StartChar: V
Encoding: 86 86 55
Width: 600
VWidth: 0
Flags: HW
LayerCount: 2
Back
Fore
SplineSet
0 600 m 1
 133.333007812 600 l 1
 133.333007812 666.666992188 l 1
 0 666.666992188 l 1
 0 600 l 1025
400 600 m 1
 533.333007812 600 l 1
 533.333007812 666.666992188 l 1
 400 666.666992188 l 1
 400 600 l 1025
0 533.333007812 m 1
 133.333007812 533.333007812 l 1
 133.333007812 600 l 1
 0 600 l 1
 0 533.333007812 l 1025
400 533.333007812 m 1
 533.333007812 533.333007812 l 1
 533.333007812 600 l 1
 400 600 l 1
 400 533.333007812 l 1025
0 466.666992188 m 1
 133.333007812 466.666992188 l 1
 133.333007812 533.333007812 l 1
 0 533.333007812 l 1
 0 466.666992188 l 1025
400 466.666992188 m 1
 533.333007812 466.666992188 l 1
 533.333007812 533.333007812 l 1
 400 533.333007812 l 1
 400 466.666992188 l 1025
66.6669921875 400 m 1
 200 400 l 1
 200 466.666992188 l 1
 66.6669921875 466.666992188 l 1
 66.6669921875 400 l 1025
333.333007812 400 m 1
 466.666992188 400 l 1
 466.666992188 466.666992188 l 1
 333.333007812 466.666992188 l 1
 333.333007812 400 l 1025
66.6669921875 333.333007812 m 1
 200 333.333007812 l 1
 200 400 l 1
 66.6669921875 400 l 1
 66.6669921875 333.333007812 l 1025
333.333007812 333.333007812 m 1
 466.666992188 333.333007812 l 1
 466.666992188 400 l 1
 333.333007812 400 l 1
 333.333007812 333.333007812 l 1025
66.6669921875 266.666992188 m 1
 200 266.666992188 l 1
 200 333.333007812 l 1
 66.6669921875 333.333007812 l 1
 66.6669921875 266.666992188 l 1025
333.333007812 266.666992188 m 1
 466.666992188 266.666992188 l 1
 466.666992188 333.333007812 l 1
 333.333007812 333.333007812 l 1
 333.333007812 266.666992188 l 1025
133.333007812 200 m 1
 400 200 l 1
 400 266.666992188 l 1
 133.333007812 266.666992188 l 1
 133.333007812 200 l 1025
133.333007812 133.333007812 m 1
 400 133.333007812 l 1
 400 200 l 1
 133.333007812 200 l 1
 133.333007812 133.333007812 l 1025
200 66.6669921875 m 1
 333.333007812 66.6669921875 l 1
 333.333007812 133.333007812 l 1
 200 133.333007812 l 1
 200 66.6669921875 l 1025
200 -0 m 1
 333.333007812 -0 l 1
 333.333007812 66.6669921875 l 1
 200 66.6669921875 l 1
 200 -0 l 1
EndSplineSet
EndChar

StartChar: W
Encoding: 87 87 56
Width: 600
VWidth: 0
Flags: HW
LayerCount: 2
Back
Fore
SplineSet
0 600 m 1
 133.333007812 600 l 1
 133.333007812 666.666992188 l 1
 0 666.666992188 l 1
 0 600 l 1025
400 600 m 1
 533.333007812 600 l 1
 533.333007812 666.666992188 l 1
 400 666.666992188 l 1
 400 600 l 1025
0 533.333007812 m 1
 133.333007812 533.333007812 l 1
 133.333007812 600 l 1
 0 600 l 1
 0 533.333007812 l 1025
400 533.333007812 m 1
 533.333007812 533.333007812 l 1
 533.333007812 600 l 1
 400 600 l 1
 400 533.333007812 l 1025
0 466.666992188 m 1
 133.333007812 466.666992188 l 1
 133.333007812 533.333007812 l 1
 0 533.333007812 l 1
 0 466.666992188 l 1025
400 466.666992188 m 1
 533.333007812 466.666992188 l 1
 533.333007812 533.333007812 l 1
 400 533.333007812 l 1
 400 466.666992188 l 1025
0 400 m 1
 133.333007812 400 l 1
 133.333007812 466.666992188 l 1
 0 466.666992188 l 1
 0 400 l 1025
400 400 m 1
 533.333007812 400 l 1
 533.333007812 466.666992188 l 1
 400 466.666992188 l 1
 400 400 l 1025
0 333.333007812 m 1
 133.333007812 333.333007812 l 1
 133.333007812 400 l 1
 0 400 l 1
 0 333.333007812 l 1025
200 333.333007812 m 1
 333.333007812 333.333007812 l 1
 333.333007812 400 l 1
 200 400 l 1
 200 333.333007812 l 1025
400 333.333007812 m 1
 533.333007812 333.333007812 l 1
 533.333007812 400 l 1
 400 400 l 1
 400 333.333007812 l 1025
0 266.666992188 m 1
 133.333007812 266.666992188 l 1
 133.333007812 333.333007812 l 1
 0 333.333007812 l 1
 0 266.666992188 l 1025
200 266.666992188 m 1
 333.333007812 266.666992188 l 1
 333.333007812 333.333007812 l 1
 200 333.333007812 l 1
 200 266.666992188 l 1025
400 266.666992188 m 1
 533.333007812 266.666992188 l 1
 533.333007812 333.333007812 l 1
 400 333.333007812 l 1
 400 266.666992188 l 1025
0 200 m 1
 133.333007812 200 l 1
 133.333007812 266.666992188 l 1
 0 266.666992188 l 1
 0 200 l 1025
200 200 m 1
 333.333007812 200 l 1
 333.333007812 266.666992188 l 1
 200 266.666992188 l 1
 200 200 l 1025
400 200 m 1
 533.333007812 200 l 1
 533.333007812 266.666992188 l 1
 400 266.666992188 l 1
 400 200 l 1025
0 133.333007812 m 1
 533.333007812 133.333007812 l 1
 533.333007812 200 l 1
 0 200 l 1
 0 133.333007812 l 1025
0 66.6669921875 m 1
 200 66.6669921875 l 1
 200 133.333007812 l 1
 0 133.333007812 l 1
 0 66.6669921875 l 1025
333.333007812 66.6669921875 m 1
 533.333007812 66.6669921875 l 1
 533.333007812 133.333007812 l 1
 333.333007812 133.333007812 l 1
 333.333007812 66.6669921875 l 1025
0 -0 m 1
 133.333007812 -0 l 1
 133.333007812 66.6669921875 l 1
 0 66.6669921875 l 1
 0 -0 l 1025
400 -0 m 1
 533.333007812 -0 l 1
 533.333007812 66.6669921875 l 1
 400 66.6669921875 l 1
 400 -0 l 1
EndSplineSet
EndChar

StartChar: X
Encoding: 88 88 57
Width: 600
VWidth: 0
Flags: HW
LayerCount: 2
Back
Fore
SplineSet
0 600 m 1
 133.333007812 600 l 1
 133.333007812 666.666992188 l 1
 0 666.666992188 l 1
 0 600 l 1025
400 600 m 1
 533.333007812 600 l 1
 533.333007812 666.666992188 l 1
 400 666.666992188 l 1
 400 600 l 1025
0 533.333007812 m 1
 133.333007812 533.333007812 l 1
 133.333007812 600 l 1
 0 600 l 1
 0 533.333007812 l 1025
400 533.333007812 m 1
 533.333007812 533.333007812 l 1
 533.333007812 600 l 1
 400 600 l 1
 400 533.333007812 l 1025
66.6669921875 466.666992188 m 1
 200 466.666992188 l 1
 200 533.333007812 l 1
 66.6669921875 533.333007812 l 1
 66.6669921875 466.666992188 l 1025
333.333007812 466.666992188 m 1
 466.666992188 466.666992188 l 1
 466.666992188 533.333007812 l 1
 333.333007812 533.333007812 l 1
 333.333007812 466.666992188 l 1025
133.333007812 400 m 1
 400 400 l 1
 400 466.666992188 l 1
 133.333007812 466.666992188 l 1
 133.333007812 400 l 1025
200 333.333007812 m 1
 333.333007812 333.333007812 l 1
 333.333007812 400 l 1
 200 400 l 1
 200 333.333007812 l 1025
200 266.666992188 m 1
 333.333007812 266.666992188 l 1
 333.333007812 333.333007812 l 1
 200 333.333007812 l 1
 200 266.666992188 l 1025
133.333007812 200 m 1
 400 200 l 1
 400 266.666992188 l 1
 133.333007812 266.666992188 l 1
 133.333007812 200 l 1025
66.6669921875 133.333007812 m 1
 200 133.333007812 l 1
 200 200 l 1
 66.6669921875 200 l 1
 66.6669921875 133.333007812 l 1025
333.333007812 133.333007812 m 1
 466.666992188 133.333007812 l 1
 466.666992188 200 l 1
 333.333007812 200 l 1
 333.333007812 133.333007812 l 1025
0 66.6669921875 m 1
 133.333007812 66.6669921875 l 1
 133.333007812 133.333007812 l 1
 0 133.333007812 l 1
 0 66.6669921875 l 1025
400 66.6669921875 m 1
 533.333007812 66.6669921875 l 1
 533.333007812 133.333007812 l 1
 400 133.333007812 l 1
 400 66.6669921875 l 1025
0 -0 m 1
 133.333007812 -0 l 1
 133.333007812 66.6669921875 l 1
 0 66.6669921875 l 1
 0 -0 l 1025
400 -0 m 1
 533.333007812 -0 l 1
 533.333007812 66.6669921875 l 1
 400 66.6669921875 l 1
 400 -0 l 1
EndSplineSet
EndChar

StartChar: Y
Encoding: 89 89 58
Width: 600
VWidth: 0
Flags: HW
LayerCount: 2
Back
Fore
SplineSet
0 600 m 1
 133.333007812 600 l 1
 133.333007812 666.666992188 l 1
 0 666.666992188 l 1
 0 600 l 1025
400 600 m 1
 533.333007812 600 l 1
 533.333007812 666.666992188 l 1
 400 666.666992188 l 1
 400 600 l 1025
0 533.333007812 m 1
 133.333007812 533.333007812 l 1
 133.333007812 600 l 1
 0 600 l 1
 0 533.333007812 l 1025
400 533.333007812 m 1
 533.333007812 533.333007812 l 1
 533.333007812 600 l 1
 400 600 l 1
 400 533.333007812 l 1025
66.6669921875 466.666992188 m 1
 200 466.666992188 l 1
 200 533.333007812 l 1
 66.6669921875 533.333007812 l 1
 66.6669921875 466.666992188 l 1025
333.333007812 466.666992188 m 1
 466.666992188 466.666992188 l 1
 466.666992188 533.333007812 l 1
 333.333007812 533.333007812 l 1
 333.333007812 466.666992188 l 1025
133.333007812 400 m 1
 400 400 l 1
 400 466.666992188 l 1
 133.333007812 466.666992188 l 1
 133.333007812 400 l 1025
200 333.333007812 m 1
 333.333007812 333.333007812 l 1
 333.333007812 400 l 1
 200 400 l 1
 200 333.333007812 l 1025
200 266.666992188 m 1
 333.333007812 266.666992188 l 1
 333.333007812 333.333007812 l 1
 200 333.333007812 l 1
 200 266.666992188 l 1025
200 200 m 1
 333.333007812 200 l 1
 333.333007812 266.666992188 l 1
 200 266.666992188 l 1
 200 200 l 1025
200 133.333007812 m 1
 333.333007812 133.333007812 l 1
 333.333007812 200 l 1
 200 200 l 1
 200 133.333007812 l 1025
200 66.6669921875 m 1
 333.333007812 66.6669921875 l 1
 333.333007812 133.333007812 l 1
 200 133.333007812 l 1
 200 66.6669921875 l 1025
200 -0 m 1
 333.333007812 -0 l 1
 333.333007812 66.6669921875 l 1
 200 66.6669921875 l 1
 200 -0 l 1
EndSplineSet
EndChar

StartChar: Z
Encoding: 90 90 59
Width: 600
VWidth: 0
Flags: HW
LayerCount: 2
Back
Fore
SplineSet
66.6669921875 600 m 1
 533.333007812 600 l 1
 533.333007812 666.666992188 l 1
 66.6669921875 666.666992188 l 1
 66.6669921875 600 l 1025
400 533.333007812 m 1
 533.333007812 533.333007812 l 1
 533.333007812 600 l 1
 400 600 l 1
 400 533.333007812 l 1025
400 466.666992188 m 1
 533.333007812 466.666992188 l 1
 533.333007812 533.333007812 l 1
 400 533.333007812 l 1
 400 466.666992188 l 1025
333.333007812 400 m 1
 466.666992188 400 l 1
 466.666992188 466.666992188 l 1
 333.333007812 466.666992188 l 1
 333.333007812 400 l 1025
266.666992188 333.333007812 m 1
 400 333.333007812 l 1
 400 400 l 1
 266.666992188 400 l 1
 266.666992188 333.333007812 l 1025
200 266.666992188 m 1
 333.333007812 266.666992188 l 1
 333.333007812 333.333007812 l 1
 200 333.333007812 l 1
 200 266.666992188 l 1025
133.333007812 200 m 1
 266.666992188 200 l 1
 266.666992188 266.666992188 l 1
 133.333007812 266.666992188 l 1
 133.333007812 200 l 1025
66.6669921875 133.333007812 m 1
 200 133.333007812 l 1
 200 200 l 1
 66.6669921875 200 l 1
 66.6669921875 133.333007812 l 1025
66.6669921875 66.6669921875 m 1
 200 66.6669921875 l 1
 200 133.333007812 l 1
 66.6669921875 133.333007812 l 1
 66.6669921875 66.6669921875 l 1025
66.6669921875 -0 m 1
 533.333007812 -0 l 1
 533.333007812 66.6669921875 l 1
 66.6669921875 66.6669921875 l 1
 66.6669921875 -0 l 1
EndSplineSet
EndChar

StartChar: bracketleft
Encoding: 91 91 60
Width: 600
VWidth: 0
Flags: HW
LayerCount: 2
Back
Fore
SplineSet
133.333007812 666.666992188 m 1
 466.666992188 666.666992188 l 1
 466.666992188 733.333007812 l 1
 133.333007812 733.333007812 l 1
 133.333007812 666.666992188 l 1025
133.333007812 600 m 1
 266.666992188 600 l 1
 266.666992188 666.666992188 l 1
 133.333007812 666.666992188 l 1
 133.333007812 600 l 1025
133.333007812 533.333007812 m 1
 266.666992188 533.333007812 l 1
 266.666992188 600 l 1
 133.333007812 600 l 1
 133.333007812 533.333007812 l 1025
133.333007812 466.666992188 m 1
 266.666992188 466.666992188 l 1
 266.666992188 533.333007812 l 1
 133.333007812 533.333007812 l 1
 133.333007812 466.666992188 l 1025
133.333007812 400 m 1
 266.666992188 400 l 1
 266.666992188 466.666992188 l 1
 133.333007812 466.666992188 l 1
 133.333007812 400 l 1025
133.333007812 333.333007812 m 1
 266.666992188 333.333007812 l 1
 266.666992188 400 l 1
 133.333007812 400 l 1
 133.333007812 333.333007812 l 1025
133.333007812 266.666992188 m 1
 266.666992188 266.666992188 l 1
 266.666992188 333.333007812 l 1
 133.333007812 333.333007812 l 1
 133.333007812 266.666992188 l 1025
133.333007812 200 m 1
 266.666992188 200 l 1
 266.666992188 266.666992188 l 1
 133.333007812 266.666992188 l 1
 133.333007812 200 l 1025
133.333007812 133.333007812 m 1
 266.666992188 133.333007812 l 1
 266.666992188 200 l 1
 133.333007812 200 l 1
 133.333007812 133.333007812 l 1025
133.333007812 66.6669921875 m 1
 266.666992188 66.6669921875 l 1
 266.666992188 133.333007812 l 1
 133.333007812 133.333007812 l 1
 133.333007812 66.6669921875 l 1025
133.333007812 -0 m 1
 266.666992188 -0 l 1
 266.666992188 66.6669921875 l 1
 133.333007812 66.6669921875 l 1
 133.333007812 -0 l 1025
133.333007812 -66.6669921875 m 1
 466.666992188 -66.6669921875 l 1
 466.666992188 -0 l 1
 133.333007812 -0 l 1
 133.333007812 -66.6669921875 l 1
EndSplineSet
EndChar

StartChar: backslash
Encoding: 92 92 61
Width: 600
VWidth: 0
Flags: HW
LayerCount: 2
Back
Fore
SplineSet
0 600 m 1
 133.333007812 600 l 1
 133.333007812 666.666992188 l 1
 0 666.666992188 l 1
 0 600 l 1025
66.6669921875 533.333007812 m 1
 200 533.333007812 l 1
 200 600 l 1
 66.6669921875 600 l 1
 66.6669921875 533.333007812 l 1025
66.6669921875 466.666992188 m 1
 200 466.666992188 l 1
 200 533.333007812 l 1
 66.6669921875 533.333007812 l 1
 66.6669921875 466.666992188 l 1025
133.333007812 400 m 1
 266.666992188 400 l 1
 266.666992188 466.666992188 l 1
 133.333007812 466.666992188 l 1
 133.333007812 400 l 1025
200 333.333007812 m 1
 333.333007812 333.333007812 l 1
 333.333007812 400 l 1
 200 400 l 1
 200 333.333007812 l 1025
200 266.666992188 m 1
 333.333007812 266.666992188 l 1
 333.333007812 333.333007812 l 1
 200 333.333007812 l 1
 200 266.666992188 l 1025
266.666992188 200 m 1
 400 200 l 1
 400 266.666992188 l 1
 266.666992188 266.666992188 l 1
 266.666992188 200 l 1025
333.333007812 133.333007812 m 1
 466.666992188 133.333007812 l 1
 466.666992188 200 l 1
 333.333007812 200 l 1
 333.333007812 133.333007812 l 1025
333.333007812 66.6669921875 m 1
 466.666992188 66.6669921875 l 1
 466.666992188 133.333007812 l 1
 333.333007812 133.333007812 l 1
 333.333007812 66.6669921875 l 1025
400 -0 m 1
 533.333007812 -0 l 1
 533.333007812 66.6669921875 l 1
 400 66.6669921875 l 1
 400 -0 l 1
EndSplineSet
EndChar

StartChar: bracketright
Encoding: 93 93 62
Width: 600
VWidth: 0
Flags: HW
LayerCount: 2
Back
Fore
SplineSet
133.333007812 666.666992188 m 1
 466.666992188 666.666992188 l 1
 466.666992188 733.333007812 l 1
 133.333007812 733.333007812 l 1
 133.333007812 666.666992188 l 1025
333.333007812 600 m 1
 466.666992188 600 l 1
 466.666992188 666.666992188 l 1
 333.333007812 666.666992188 l 1
 333.333007812 600 l 1025
333.333007812 533.333007812 m 1
 466.666992188 533.333007812 l 1
 466.666992188 600 l 1
 333.333007812 600 l 1
 333.333007812 533.333007812 l 1025
333.333007812 466.666992188 m 1
 466.666992188 466.666992188 l 1
 466.666992188 533.333007812 l 1
 333.333007812 533.333007812 l 1
 333.333007812 466.666992188 l 1025
333.333007812 400 m 1
 466.666992188 400 l 1
 466.666992188 466.666992188 l 1
 333.333007812 466.666992188 l 1
 333.333007812 400 l 1025
333.333007812 333.333007812 m 1
 466.666992188 333.333007812 l 1
 466.666992188 400 l 1
 333.333007812 400 l 1
 333.333007812 333.333007812 l 1025
333.333007812 266.666992188 m 1
 466.666992188 266.666992188 l 1
 466.666992188 333.333007812 l 1
 333.333007812 333.333007812 l 1
 333.333007812 266.666992188 l 1025
333.333007812 200 m 1
 466.666992188 200 l 1
 466.666992188 266.666992188 l 1
 333.333007812 266.666992188 l 1
 333.333007812 200 l 1025
333.333007812 133.333007812 m 1
 466.666992188 133.333007812 l 1
 466.666992188 200 l 1
 333.333007812 200 l 1
 333.333007812 133.333007812 l 1025
333.333007812 66.6669921875 m 1
 466.666992188 66.6669921875 l 1
 466.666992188 133.333007812 l 1
 333.333007812 133.333007812 l 1
 333.333007812 66.6669921875 l 1025
333.333007812 -0 m 1
 466.666992188 -0 l 1
 466.666992188 66.6669921875 l 1
 333.333007812 66.6669921875 l 1
 333.333007812 -0 l 1025
133.333007812 -66.6669921875 m 1
 466.666992188 -66.6669921875 l 1
 466.666992188 -0 l 1
 133.333007812 -0 l 1
 133.333007812 -66.6669921875 l 1
EndSplineSet
EndChar

StartChar: asciicircum
Encoding: 94 94 63
Width: 600
VWidth: 0
Flags: HW
LayerCount: 2
Back
Fore
SplineSet
200 600 m 1
 333.333007812 600 l 1
 333.333007812 666.666992188 l 1
 200 666.666992188 l 1
 200 600 l 1025
133.333007812 533.333007812 m 1
 400 533.333007812 l 1
 400 600 l 1
 133.333007812 600 l 1
 133.333007812 533.333007812 l 1025
66.6669921875 466.666992188 m 1
 200 466.666992188 l 1
 200 533.333007812 l 1
 66.6669921875 533.333007812 l 1
 66.6669921875 466.666992188 l 1025
333.333007812 466.666992188 m 1
 466.666992188 466.666992188 l 1
 466.666992188 533.333007812 l 1
 333.333007812 533.333007812 l 1
 333.333007812 466.666992188 l 1025
66.6669921875 400 m 1
 133.333007812 400 l 1
 133.333007812 466.666992188 l 1
 66.6669921875 466.666992188 l 1
 66.6669921875 400 l 1025
400 400 m 1
 466.666992188 400 l 1
 466.666992188 466.666992188 l 1
 400 466.666992188 l 1
 400 400 l 1
EndSplineSet
EndChar

StartChar: underscore
Encoding: 95 95 64
Width: 600
VWidth: 0
Flags: HW
LayerCount: 2
Back
Fore
SplineSet
0 -66.6669921875 m 1
 533.333007812 -66.6669921875 l 1
 533.333007812 -0 l 1
 0 -0 l 1
 0 -66.6669921875 l 1
EndSplineSet
EndChar

StartChar: grave
Encoding: 96 96 65
Width: 600
VWidth: 0
Flags: HW
LayerCount: 2
Back
Fore
SplineSet
133.333007812 666.666992188 m 1
 266.666992188 666.666992188 l 1
 266.666992188 733.333007812 l 1
 133.333007812 733.333007812 l 1
 133.333007812 666.666992188 l 1025
200 600 m 1
 333.333007812 600 l 1
 333.333007812 666.666992188 l 1
 200 666.666992188 l 1
 200 600 l 1025
266.666992188 533.333007812 m 1
 400 533.333007812 l 1
 400 600 l 1
 266.666992188 600 l 1
 266.666992188 533.333007812 l 1
EndSplineSet
EndChar

StartChar: a
Encoding: 97 97 66
Width: 600
VWidth: 0
Flags: HW
LayerCount: 2
Back
Fore
SplineSet
133.333007812 400 m 1
 466.666992188 400 l 1
 466.666992188 466.666992188 l 1
 133.333007812 466.666992188 l 1
 133.333007812 400 l 1025
66.6669921875 333.333007812 m 1
 200 333.333007812 l 1
 200 400 l 1
 66.6669921875 400 l 1
 66.6669921875 333.333007812 l 1025
400 333.333007812 m 1
 533.333007812 333.333007812 l 1
 533.333007812 400 l 1
 400 400 l 1
 400 333.333007812 l 1025
400 266.666992188 m 1
 533.333007812 266.666992188 l 1
 533.333007812 333.333007812 l 1
 400 333.333007812 l 1
 400 266.666992188 l 1025
66.6669921875 200 m 1
 533.333007812 200 l 1
 533.333007812 266.666992188 l 1
 66.6669921875 266.666992188 l 1
 66.6669921875 200 l 1025
0 133.333007812 m 1
 133.333007812 133.333007812 l 1
 133.333007812 200 l 1
 0 200 l 1
 0 133.333007812 l 1025
400 133.333007812 m 1
 533.333007812 133.333007812 l 1
 533.333007812 200 l 1
 400 200 l 1
 400 133.333007812 l 1025
0 66.6669921875 m 1
 133.333007812 66.6669921875 l 1
 133.333007812 133.333007812 l 1
 0 133.333007812 l 1
 0 66.6669921875 l 1025
333.333007812 66.6669921875 m 1
 533.333007812 66.6669921875 l 1
 533.333007812 133.333007812 l 1
 333.333007812 133.333007812 l 1
 333.333007812 66.6669921875 l 1025
66.6669921875 -0 m 1
 333.333007812 -0 l 1
 333.333007812 66.6669921875 l 1
 66.6669921875 66.6669921875 l 1
 66.6669921875 -0 l 1025
400 -0 m 1
 533.333007812 -0 l 1
 533.333007812 66.6669921875 l 1
 400 66.6669921875 l 1
 400 -0 l 1
EndSplineSet
EndChar

StartChar: b
Encoding: 98 98 67
Width: 600
VWidth: 0
Flags: HW
LayerCount: 2
Back
Fore
SplineSet
0 600 m 1
 133.333007812 600 l 1
 133.333007812 666.666992188 l 1
 0 666.666992188 l 1
 0 600 l 1025
0 533.333007812 m 1
 133.333007812 533.333007812 l 1
 133.333007812 600 l 1
 0 600 l 1
 0 533.333007812 l 1025
0 466.666992188 m 1
 133.333007812 466.666992188 l 1
 133.333007812 533.333007812 l 1
 0 533.333007812 l 1
 0 466.666992188 l 1025
0 400 m 1
 133.333007812 400 l 1
 133.333007812 466.666992188 l 1
 0 466.666992188 l 1
 0 400 l 1025
200 400 m 1
 400 400 l 1
 400 466.666992188 l 1
 200 466.666992188 l 1
 200 400 l 1025
0 333.333007812 m 1
 200 333.333007812 l 1
 200 400 l 1
 0 400 l 1
 0 333.333007812 l 1025
333.333007812 333.333007812 m 1
 466.666992188 333.333007812 l 1
 466.666992188 400 l 1
 333.333007812 400 l 1
 333.333007812 333.333007812 l 1025
0 266.666992188 m 1
 133.333007812 266.666992188 l 1
 133.333007812 333.333007812 l 1
 0 333.333007812 l 1
 0 266.666992188 l 1025
400 266.666992188 m 1
 533.333007812 266.666992188 l 1
 533.333007812 333.333007812 l 1
 400 333.333007812 l 1
 400 266.666992188 l 1025
0 200 m 1
 133.333007812 200 l 1
 133.333007812 266.666992188 l 1
 0 266.666992188 l 1
 0 200 l 1025
400 200 m 1
 533.333007812 200 l 1
 533.333007812 266.666992188 l 1
 400 266.666992188 l 1
 400 200 l 1025
0 133.333007812 m 1
 133.333007812 133.333007812 l 1
 133.333007812 200 l 1
 0 200 l 1
 0 133.333007812 l 1025
400 133.333007812 m 1
 533.333007812 133.333007812 l 1
 533.333007812 200 l 1
 400 200 l 1
 400 133.333007812 l 1025
0 66.6669921875 m 1
 200 66.6669921875 l 1
 200 133.333007812 l 1
 0 133.333007812 l 1
 0 66.6669921875 l 1025
333.333007812 66.6669921875 m 1
 466.666992188 66.6669921875 l 1
 466.666992188 133.333007812 l 1
 333.333007812 133.333007812 l 1
 333.333007812 66.6669921875 l 1025
0 -0 m 1
 133.333007812 -0 l 1
 133.333007812 66.6669921875 l 1
 0 66.6669921875 l 1
 0 -0 l 1025
200 -0 m 1
 400 -0 l 1
 400 66.6669921875 l 1
 200 66.6669921875 l 1
 200 -0 l 1
EndSplineSet
EndChar

StartChar: c
Encoding: 99 99 68
Width: 600
VWidth: 0
Flags: HW
LayerCount: 2
Back
Fore
SplineSet
133.333007812 400 m 1
 466.666992188 400 l 1
 466.666992188 466.666992188 l 1
 133.333007812 466.666992188 l 1
 133.333007812 400 l 1025
66.6669921875 333.333007812 m 1
 200 333.333007812 l 1
 200 400 l 1
 66.6669921875 400 l 1
 66.6669921875 333.333007812 l 1025
400 333.333007812 m 1
 533.333007812 333.333007812 l 1
 533.333007812 400 l 1
 400 400 l 1
 400 333.333007812 l 1025
0 266.666992188 m 1
 133.333007812 266.666992188 l 1
 133.333007812 333.333007812 l 1
 0 333.333007812 l 1
 0 266.666992188 l 1025
0 200 m 1
 133.333007812 200 l 1
 133.333007812 266.666992188 l 1
 0 266.666992188 l 1
 0 200 l 1025
0 133.333007812 m 1
 133.333007812 133.333007812 l 1
 133.333007812 200 l 1
 0 200 l 1
 0 133.333007812 l 1025
66.6669921875 66.6669921875 m 1
 200 66.6669921875 l 1
 200 133.333007812 l 1
 66.6669921875 133.333007812 l 1
 66.6669921875 66.6669921875 l 1025
400 66.6669921875 m 1
 533.333007812 66.6669921875 l 1
 533.333007812 133.333007812 l 1
 400 133.333007812 l 1
 400 66.6669921875 l 1025
133.333007812 -0 m 1
 466.666992188 -0 l 1
 466.666992188 66.6669921875 l 1
 133.333007812 66.6669921875 l 1
 133.333007812 -0 l 1
EndSplineSet
EndChar

StartChar: d
Encoding: 100 100 69
Width: 600
VWidth: 0
Flags: HW
LayerCount: 2
Back
Fore
SplineSet
400 600 m 1
 533.333007812 600 l 1
 533.333007812 666.666992188 l 1
 400 666.666992188 l 1
 400 600 l 1025
400 533.333007812 m 1
 533.333007812 533.333007812 l 1
 533.333007812 600 l 1
 400 600 l 1
 400 533.333007812 l 1025
400 466.666992188 m 1
 533.333007812 466.666992188 l 1
 533.333007812 533.333007812 l 1
 400 533.333007812 l 1
 400 466.666992188 l 1025
133.333007812 400 m 1
 333.333007812 400 l 1
 333.333007812 466.666992188 l 1
 133.333007812 466.666992188 l 1
 133.333007812 400 l 1025
400 400 m 1
 533.333007812 400 l 1
 533.333007812 466.666992188 l 1
 400 466.666992188 l 1
 400 400 l 1025
66.6669921875 333.333007812 m 1
 200 333.333007812 l 1
 200 400 l 1
 66.6669921875 400 l 1
 66.6669921875 333.333007812 l 1025
333.333007812 333.333007812 m 1
 533.333007812 333.333007812 l 1
 533.333007812 400 l 1
 333.333007812 400 l 1
 333.333007812 333.333007812 l 1025
0 266.666992188 m 1
 133.333007812 266.666992188 l 1
 133.333007812 333.333007812 l 1
 0 333.333007812 l 1
 0 266.666992188 l 1025
400 266.666992188 m 1
 533.333007812 266.666992188 l 1
 533.333007812 333.333007812 l 1
 400 333.333007812 l 1
 400 266.666992188 l 1025
0 200 m 1
 133.333007812 200 l 1
 133.333007812 266.666992188 l 1
 0 266.666992188 l 1
 0 200 l 1025
400 200 m 1
 533.333007812 200 l 1
 533.333007812 266.666992188 l 1
 400 266.666992188 l 1
 400 200 l 1025
0 133.333007812 m 1
 133.333007812 133.333007812 l 1
 133.333007812 200 l 1
 0 200 l 1
 0 133.333007812 l 1025
400 133.333007812 m 1
 533.333007812 133.333007812 l 1
 533.333007812 200 l 1
 400 200 l 1
 400 133.333007812 l 1025
66.6669921875 66.6669921875 m 1
 200 66.6669921875 l 1
 200 133.333007812 l 1
 66.6669921875 133.333007812 l 1
 66.6669921875 66.6669921875 l 1025
333.333007812 66.6669921875 m 1
 533.333007812 66.6669921875 l 1
 533.333007812 133.333007812 l 1
 333.333007812 133.333007812 l 1
 333.333007812 66.6669921875 l 1025
133.333007812 -0 m 1
 333.333007812 -0 l 1
 333.333007812 66.6669921875 l 1
 133.333007812 66.6669921875 l 1
 133.333007812 -0 l 1025
400 -0 m 1
 533.333007812 -0 l 1
 533.333007812 66.6669921875 l 1
 400 66.6669921875 l 1
 400 -0 l 1
EndSplineSet
EndChar

StartChar: e
Encoding: 101 101 70
Width: 600
VWidth: 0
Flags: HW
LayerCount: 2
Back
Fore
SplineSet
133.333007812 400 m 1
 400 400 l 1
 400 466.666992188 l 1
 133.333007812 466.666992188 l 1
 133.333007812 400 l 1025
66.6669921875 333.333007812 m 1
 200 333.333007812 l 1
 200 400 l 1
 66.6669921875 400 l 1
 66.6669921875 333.333007812 l 1025
333.333007812 333.333007812 m 1
 466.666992188 333.333007812 l 1
 466.666992188 400 l 1
 333.333007812 400 l 1
 333.333007812 333.333007812 l 1025
0 266.666992188 m 1
 133.333007812 266.666992188 l 1
 133.333007812 333.333007812 l 1
 0 333.333007812 l 1
 0 266.666992188 l 1025
400 266.666992188 m 1
 533.333007812 266.666992188 l 1
 533.333007812 333.333007812 l 1
 400 333.333007812 l 1
 400 266.666992188 l 1025
0 200 m 1
 533.333007812 200 l 1
 533.333007812 266.666992188 l 1
 0 266.666992188 l 1
 0 200 l 1025
0 133.333007812 m 1
 133.333007812 133.333007812 l 1
 133.333007812 200 l 1
 0 200 l 1
 0 133.333007812 l 1025
66.6669921875 66.6669921875 m 1
 200 66.6669921875 l 1
 200 133.333007812 l 1
 66.6669921875 133.333007812 l 1
 66.6669921875 66.6669921875 l 1025
400 66.6669921875 m 1
 533.333007812 66.6669921875 l 1
 533.333007812 133.333007812 l 1
 400 133.333007812 l 1
 400 66.6669921875 l 1025
133.333007812 -0 m 1
 466.666992188 -0 l 1
 466.666992188 66.6669921875 l 1
 133.333007812 66.6669921875 l 1
 133.333007812 -0 l 1
EndSplineSet
EndChar

StartChar: f
Encoding: 102 102 71
Width: 600
VWidth: 0
Flags: HW
LayerCount: 2
Back
Fore
SplineSet
200 600 m 1
 466.666992188 600 l 1
 466.666992188 666.666992188 l 1
 200 666.666992188 l 1
 200 600 l 1025
133.333007812 533.333007812 m 1
 266.666992188 533.333007812 l 1
 266.666992188 600 l 1
 133.333007812 600 l 1
 133.333007812 533.333007812 l 1025
400 533.333007812 m 1
 533.333007812 533.333007812 l 1
 533.333007812 600 l 1
 400 600 l 1
 400 533.333007812 l 1025
133.333007812 466.666992188 m 1
 266.666992188 466.666992188 l 1
 266.666992188 533.333007812 l 1
 133.333007812 533.333007812 l 1
 133.333007812 466.666992188 l 1025
400 466.666992188 m 1
 533.333007812 466.666992188 l 1
 533.333007812 533.333007812 l 1
 400 533.333007812 l 1
 400 466.666992188 l 1025
133.333007812 400 m 1
 266.666992188 400 l 1
 266.666992188 466.666992188 l 1
 133.333007812 466.666992188 l 1
 133.333007812 400 l 1025
133.333007812 333.333007812 m 1
 266.666992188 333.333007812 l 1
 266.666992188 400 l 1
 133.333007812 400 l 1
 133.333007812 333.333007812 l 1025
0 266.666992188 m 1
 400 266.666992188 l 1
 400 333.333007812 l 1
 0 333.333007812 l 1
 0 266.666992188 l 1025
133.333007812 200 m 1
 266.666992188 200 l 1
 266.666992188 266.666992188 l 1
 133.333007812 266.666992188 l 1
 133.333007812 200 l 1025
133.333007812 133.333007812 m 1
 266.666992188 133.333007812 l 1
 266.666992188 200 l 1
 133.333007812 200 l 1
 133.333007812 133.333007812 l 1025
133.333007812 66.6669921875 m 1
 266.666992188 66.6669921875 l 1
 266.666992188 133.333007812 l 1
 133.333007812 133.333007812 l 1
 133.333007812 66.6669921875 l 1025
133.333007812 -0 m 1
 266.666992188 -0 l 1
 266.666992188 66.6669921875 l 1
 133.333007812 66.6669921875 l 1
 133.333007812 -0 l 1
EndSplineSet
EndChar

StartChar: g
Encoding: 103 103 72
Width: 600
VWidth: 0
Flags: HW
LayerCount: 2
Back
Fore
SplineSet
66.6669921875 400 m 1
 400 400 l 1
 400 466.666992188 l 1
 66.6669921875 466.666992188 l 1
 66.6669921875 400 l 1025
466.666992188 400 m 1
 533.333007812 400 l 1
 533.333007812 466.666992188 l 1
 466.666992188 466.666992188 l 1
 466.666992188 400 l 1025
0 333.333007812 m 1
 133.333007812 333.333007812 l 1
 133.333007812 400 l 1
 0 400 l 1
 0 333.333007812 l 1025
333.333007812 333.333007812 m 1
 533.333007812 333.333007812 l 1
 533.333007812 400 l 1
 333.333007812 400 l 1
 333.333007812 333.333007812 l 1025
0 266.666992188 m 1
 133.333007812 266.666992188 l 1
 133.333007812 333.333007812 l 1
 0 333.333007812 l 1
 0 266.666992188 l 1025
333.333007812 266.666992188 m 1
 466.666992188 266.666992188 l 1
 466.666992188 333.333007812 l 1
 333.333007812 333.333007812 l 1
 333.333007812 266.666992188 l 1025
0 200 m 1
 133.333007812 200 l 1
 133.333007812 266.666992188 l 1
 0 266.666992188 l 1
 0 200 l 1025
333.333007812 200 m 1
 466.666992188 200 l 1
 466.666992188 266.666992188 l 1
 333.333007812 266.666992188 l 1
 333.333007812 200 l 1025
66.6669921875 133.333007812 m 1
 400 133.333007812 l 1
 400 200 l 1
 66.6669921875 200 l 1
 66.6669921875 133.333007812 l 1025
0 66.6669921875 m 1
 133.333007812 66.6669921875 l 1
 133.333007812 133.333007812 l 1
 0 133.333007812 l 1
 0 66.6669921875 l 1025
66.6669921875 -0 m 1
 466.666992188 -0 l 1
 466.666992188 66.6669921875 l 1
 66.6669921875 66.6669921875 l 1
 66.6669921875 -0 l 1025
0 -66.6669921875 m 1
 133.333007812 -66.6669921875 l 1
 133.333007812 -0 l 1
 0 -0 l 1
 0 -66.6669921875 l 1025
400 -66.6669921875 m 1
 533.333007812 -66.6669921875 l 1
 533.333007812 -0 l 1
 400 -0 l 1
 400 -66.6669921875 l 1025
0 -133.333007812 m 1
 133.333007812 -133.333007812 l 1
 133.333007812 -66.6669921875 l 1
 0 -66.6669921875 l 1
 0 -133.333007812 l 1025
400 -133.333007812 m 1
 533.333007812 -133.333007812 l 1
 533.333007812 -66.6669921875 l 1
 400 -66.6669921875 l 1
 400 -133.333007812 l 1025
66.6669921875 -200 m 1
 466.666992188 -200 l 1
 466.666992188 -133.333007812 l 1
 66.6669921875 -133.333007812 l 1
 66.6669921875 -200 l 1
EndSplineSet
EndChar

StartChar: h
Encoding: 104 104 73
Width: 600
VWidth: 0
Flags: HW
LayerCount: 2
Back
Fore
SplineSet
0 600 m 1
 133.333007812 600 l 1
 133.333007812 666.666992188 l 1
 0 666.666992188 l 1
 0 600 l 1025
0 533.333007812 m 1
 133.333007812 533.333007812 l 1
 133.333007812 600 l 1
 0 600 l 1
 0 533.333007812 l 1025
0 466.666992188 m 1
 133.333007812 466.666992188 l 1
 133.333007812 533.333007812 l 1
 0 533.333007812 l 1
 0 466.666992188 l 1025
0 400 m 1
 133.333007812 400 l 1
 133.333007812 466.666992188 l 1
 0 466.666992188 l 1
 0 400 l 1025
200 400 m 1
 400 400 l 1
 400 466.666992188 l 1
 200 466.666992188 l 1
 200 400 l 1025
0 333.333007812 m 1
 200 333.333007812 l 1
 200 400 l 1
 0 400 l 1
 0 333.333007812 l 1025
333.333007812 333.333007812 m 1
 466.666992188 333.333007812 l 1
 466.666992188 400 l 1
 333.333007812 400 l 1
 333.333007812 333.333007812 l 1025
0 266.666992188 m 1
 133.333007812 266.666992188 l 1
 133.333007812 333.333007812 l 1
 0 333.333007812 l 1
 0 266.666992188 l 1025
400 266.666992188 m 1
 533.333007812 266.666992188 l 1
 533.333007812 333.333007812 l 1
 400 333.333007812 l 1
 400 266.666992188 l 1025
0 200 m 1
 133.333007812 200 l 1
 133.333007812 266.666992188 l 1
 0 266.666992188 l 1
 0 200 l 1025
400 200 m 1
 533.333007812 200 l 1
 533.333007812 266.666992188 l 1
 400 266.666992188 l 1
 400 200 l 1025
0 133.333007812 m 1
 133.333007812 133.333007812 l 1
 133.333007812 200 l 1
 0 200 l 1
 0 133.333007812 l 1025
400 133.333007812 m 1
 533.333007812 133.333007812 l 1
 533.333007812 200 l 1
 400 200 l 1
 400 133.333007812 l 1025
0 66.6669921875 m 1
 133.333007812 66.6669921875 l 1
 133.333007812 133.333007812 l 1
 0 133.333007812 l 1
 0 66.6669921875 l 1025
400 66.6669921875 m 1
 533.333007812 66.6669921875 l 1
 533.333007812 133.333007812 l 1
 400 133.333007812 l 1
 400 66.6669921875 l 1025
0 -0 m 1
 133.333007812 -0 l 1
 133.333007812 66.6669921875 l 1
 0 66.6669921875 l 1
 0 -0 l 1025
400 -0 m 1
 533.333007812 -0 l 1
 533.333007812 66.6669921875 l 1
 400 66.6669921875 l 1
 400 -0 l 1
EndSplineSet
EndChar

StartChar: i
Encoding: 105 105 74
Width: 600
VWidth: 0
Flags: HW
LayerCount: 2
Back
Fore
SplineSet
200 600 m 1
 333.333007812 600 l 1
 333.333007812 666.666992188 l 1
 200 666.666992188 l 1
 200 600 l 1025
200 533.333007812 m 1
 333.333007812 533.333007812 l 1
 333.333007812 600 l 1
 200 600 l 1
 200 533.333007812 l 1025
133.333007812 400 m 1
 333.333007812 400 l 1
 333.333007812 466.666992188 l 1
 133.333007812 466.666992188 l 1
 133.333007812 400 l 1025
200 333.333007812 m 1
 333.333007812 333.333007812 l 1
 333.333007812 400 l 1
 200 400 l 1
 200 333.333007812 l 1025
200 266.666992188 m 1
 333.333007812 266.666992188 l 1
 333.333007812 333.333007812 l 1
 200 333.333007812 l 1
 200 266.666992188 l 1025
200 200 m 1
 333.333007812 200 l 1
 333.333007812 266.666992188 l 1
 200 266.666992188 l 1
 200 200 l 1025
200 133.333007812 m 1
 333.333007812 133.333007812 l 1
 333.333007812 200 l 1
 200 200 l 1
 200 133.333007812 l 1025
200 66.6669921875 m 1
 333.333007812 66.6669921875 l 1
 333.333007812 133.333007812 l 1
 200 133.333007812 l 1
 200 66.6669921875 l 1025
66.6669921875 -0 m 1
 466.666992188 -0 l 1
 466.666992188 66.6669921875 l 1
 66.6669921875 66.6669921875 l 1
 66.6669921875 -0 l 1
EndSplineSet
EndChar

StartChar: j
Encoding: 106 106 75
Width: 600
VWidth: 0
Flags: HW
LayerCount: 2
Back
Fore
SplineSet
400 600 m 1
 533.333007812 600 l 1
 533.333007812 666.666992188 l 1
 400 666.666992188 l 1
 400 600 l 1025
400 533.333007812 m 1
 533.333007812 533.333007812 l 1
 533.333007812 600 l 1
 400 600 l 1
 400 533.333007812 l 1025
266.666992188 400 m 1
 533.333007812 400 l 1
 533.333007812 466.666992188 l 1
 266.666992188 466.666992188 l 1
 266.666992188 400 l 1025
400 333.333007812 m 1
 533.333007812 333.333007812 l 1
 533.333007812 400 l 1
 400 400 l 1
 400 333.333007812 l 1025
400 266.666992188 m 1
 533.333007812 266.666992188 l 1
 533.333007812 333.333007812 l 1
 400 333.333007812 l 1
 400 266.666992188 l 1025
400 200 m 1
 533.333007812 200 l 1
 533.333007812 266.666992188 l 1
 400 266.666992188 l 1
 400 200 l 1025
400 133.333007812 m 1
 533.333007812 133.333007812 l 1
 533.333007812 200 l 1
 400 200 l 1
 400 133.333007812 l 1025
400 66.6669921875 m 1
 533.333007812 66.6669921875 l 1
 533.333007812 133.333007812 l 1
 400 133.333007812 l 1
 400 66.6669921875 l 1025
66.6669921875 -0 m 1
 200 -0 l 1
 200 66.6669921875 l 1
 66.6669921875 66.6669921875 l 1
 66.6669921875 -0 l 1025
400 -0 m 1
 533.333007812 -0 l 1
 533.333007812 66.6669921875 l 1
 400 66.6669921875 l 1
 400 -0 l 1025
66.6669921875 -66.6669921875 m 1
 200 -66.6669921875 l 1
 200 -0 l 1
 66.6669921875 -0 l 1
 66.6669921875 -66.6669921875 l 1025
400 -66.6669921875 m 1
 533.333007812 -66.6669921875 l 1
 533.333007812 -0 l 1
 400 -0 l 1
 400 -66.6669921875 l 1025
66.6669921875 -133.333007812 m 1
 200 -133.333007812 l 1
 200 -66.6669921875 l 1
 66.6669921875 -66.6669921875 l 1
 66.6669921875 -133.333007812 l 1025
400 -133.333007812 m 1
 533.333007812 -133.333007812 l 1
 533.333007812 -66.6669921875 l 1
 400 -66.6669921875 l 1
 400 -133.333007812 l 1025
133.333007812 -200 m 1
 466.666992188 -200 l 1
 466.666992188 -133.333007812 l 1
 133.333007812 -133.333007812 l 1
 133.333007812 -200 l 1
EndSplineSet
EndChar

StartChar: k
Encoding: 107 107 76
Width: 600
VWidth: 0
Flags: HW
LayerCount: 2
Back
Fore
SplineSet
66.6669921875 600 m 1
 200 600 l 1
 200 666.666992188 l 1
 66.6669921875 666.666992188 l 1
 66.6669921875 600 l 1025
66.6669921875 533.333007812 m 1
 200 533.333007812 l 1
 200 600 l 1
 66.6669921875 600 l 1
 66.6669921875 533.333007812 l 1025
66.6669921875 466.666992188 m 1
 200 466.666992188 l 1
 200 533.333007812 l 1
 66.6669921875 533.333007812 l 1
 66.6669921875 466.666992188 l 1025
66.6669921875 400 m 1
 200 400 l 1
 200 466.666992188 l 1
 66.6669921875 466.666992188 l 1
 66.6669921875 400 l 1025
333.333007812 400 m 1
 466.666992188 400 l 1
 466.666992188 466.666992188 l 1
 333.333007812 466.666992188 l 1
 333.333007812 400 l 1025
66.6669921875 333.333007812 m 1
 200 333.333007812 l 1
 200 400 l 1
 66.6669921875 400 l 1
 66.6669921875 333.333007812 l 1025
266.666992188 333.333007812 m 1
 400 333.333007812 l 1
 400 400 l 1
 266.666992188 400 l 1
 266.666992188 333.333007812 l 1025
66.6669921875 266.666992188 m 1
 333.333007812 266.666992188 l 1
 333.333007812 333.333007812 l 1
 66.6669921875 333.333007812 l 1
 66.6669921875 266.666992188 l 1025
66.6669921875 200 m 1
 333.333007812 200 l 1
 333.333007812 266.666992188 l 1
 66.6669921875 266.666992188 l 1
 66.6669921875 200 l 1025
66.6669921875 133.333007812 m 1
 200 133.333007812 l 1
 200 200 l 1
 66.6669921875 200 l 1
 66.6669921875 133.333007812 l 1025
266.666992188 133.333007812 m 1
 400 133.333007812 l 1
 400 200 l 1
 266.666992188 200 l 1
 266.666992188 133.333007812 l 1025
66.6669921875 66.6669921875 m 1
 200 66.6669921875 l 1
 200 133.333007812 l 1
 66.6669921875 133.333007812 l 1
 66.6669921875 66.6669921875 l 1025
333.333007812 66.6669921875 m 1
 466.666992188 66.6669921875 l 1
 466.666992188 133.333007812 l 1
 333.333007812 133.333007812 l 1
 333.333007812 66.6669921875 l 1025
66.6669921875 -0 m 1
 200 -0 l 1
 200 66.6669921875 l 1
 66.6669921875 66.6669921875 l 1
 66.6669921875 -0 l 1025
400 -0 m 1
 533.333007812 -0 l 1
 533.333007812 66.6669921875 l 1
 400 66.6669921875 l 1
 400 -0 l 1
EndSplineSet
EndChar

StartChar: l
Encoding: 108 108 77
Width: 600
VWidth: 0
Flags: HW
LayerCount: 2
Back
Fore
SplineSet
133.333007812 600 m 1
 333.333007812 600 l 1
 333.333007812 666.666992188 l 1
 133.333007812 666.666992188 l 1
 133.333007812 600 l 1025
200 533.333007812 m 1
 333.333007812 533.333007812 l 1
 333.333007812 600 l 1
 200 600 l 1
 200 533.333007812 l 1025
200 466.666992188 m 1
 333.333007812 466.666992188 l 1
 333.333007812 533.333007812 l 1
 200 533.333007812 l 1
 200 466.666992188 l 1025
200 400 m 1
 333.333007812 400 l 1
 333.333007812 466.666992188 l 1
 200 466.666992188 l 1
 200 400 l 1025
200 333.333007812 m 1
 333.333007812 333.333007812 l 1
 333.333007812 400 l 1
 200 400 l 1
 200 333.333007812 l 1025
200 266.666992188 m 1
 333.333007812 266.666992188 l 1
 333.333007812 333.333007812 l 1
 200 333.333007812 l 1
 200 266.666992188 l 1025
200 200 m 1
 333.333007812 200 l 1
 333.333007812 266.666992188 l 1
 200 266.666992188 l 1
 200 200 l 1025
200 133.333007812 m 1
 333.333007812 133.333007812 l 1
 333.333007812 200 l 1
 200 200 l 1
 200 133.333007812 l 1025
200 66.6669921875 m 1
 333.333007812 66.6669921875 l 1
 333.333007812 133.333007812 l 1
 200 133.333007812 l 1
 200 66.6669921875 l 1025
66.6669921875 -0 m 1
 466.666992188 -0 l 1
 466.666992188 66.6669921875 l 1
 66.6669921875 66.6669921875 l 1
 66.6669921875 -0 l 1
EndSplineSet
EndChar

StartChar: m
Encoding: 109 109 78
Width: 600
VWidth: 0
Flags: HW
LayerCount: 2
Back
Fore
SplineSet
0 400 m 1
 66.6669921875 400 l 1
 66.6669921875 466.666992188 l 1
 0 466.666992188 l 1
 0 400 l 1025
133.333007812 400 m 1
 266.666992188 400 l 1
 266.666992188 466.666992188 l 1
 133.333007812 466.666992188 l 1
 133.333007812 400 l 1025
333.333007812 400 m 1
 466.666992188 400 l 1
 466.666992188 466.666992188 l 1
 333.333007812 466.666992188 l 1
 333.333007812 400 l 1025
0 333.333007812 m 1
 133.333007812 333.333007812 l 1
 133.333007812 400 l 1
 0 400 l 1
 0 333.333007812 l 1025
200 333.333007812 m 1
 333.333007812 333.333007812 l 1
 333.333007812 400 l 1
 200 400 l 1
 200 333.333007812 l 1025
400 333.333007812 m 1
 533.333007812 333.333007812 l 1
 533.333007812 400 l 1
 400 400 l 1
 400 333.333007812 l 1025
0 266.666992188 m 1
 133.333007812 266.666992188 l 1
 133.333007812 333.333007812 l 1
 0 333.333007812 l 1
 0 266.666992188 l 1025
200 266.666992188 m 1
 333.333007812 266.666992188 l 1
 333.333007812 333.333007812 l 1
 200 333.333007812 l 1
 200 266.666992188 l 1025
400 266.666992188 m 1
 533.333007812 266.666992188 l 1
 533.333007812 333.333007812 l 1
 400 333.333007812 l 1
 400 266.666992188 l 1025
0 200 m 1
 133.333007812 200 l 1
 133.333007812 266.666992188 l 1
 0 266.666992188 l 1
 0 200 l 1025
200 200 m 1
 333.333007812 200 l 1
 333.333007812 266.666992188 l 1
 200 266.666992188 l 1
 200 200 l 1025
400 200 m 1
 533.333007812 200 l 1
 533.333007812 266.666992188 l 1
 400 266.666992188 l 1
 400 200 l 1025
0 133.333007812 m 1
 133.333007812 133.333007812 l 1
 133.333007812 200 l 1
 0 200 l 1
 0 133.333007812 l 1025
200 133.333007812 m 1
 333.333007812 133.333007812 l 1
 333.333007812 200 l 1
 200 200 l 1
 200 133.333007812 l 1025
400 133.333007812 m 1
 533.333007812 133.333007812 l 1
 533.333007812 200 l 1
 400 200 l 1
 400 133.333007812 l 1025
0 66.6669921875 m 1
 133.333007812 66.6669921875 l 1
 133.333007812 133.333007812 l 1
 0 133.333007812 l 1
 0 66.6669921875 l 1025
200 66.6669921875 m 1
 333.333007812 66.6669921875 l 1
 333.333007812 133.333007812 l 1
 200 133.333007812 l 1
 200 66.6669921875 l 1025
400 66.6669921875 m 1
 533.333007812 66.6669921875 l 1
 533.333007812 133.333007812 l 1
 400 133.333007812 l 1
 400 66.6669921875 l 1025
0 -0 m 1
 133.333007812 -0 l 1
 133.333007812 66.6669921875 l 1
 0 66.6669921875 l 1
 0 -0 l 1025
200 -0 m 1
 333.333007812 -0 l 1
 333.333007812 66.6669921875 l 1
 200 66.6669921875 l 1
 200 -0 l 1025
400 -0 m 1
 533.333007812 -0 l 1
 533.333007812 66.6669921875 l 1
 400 66.6669921875 l 1
 400 -0 l 1
EndSplineSet
EndChar

StartChar: n
Encoding: 110 110 79
Width: 600
VWidth: 0
Flags: HW
LayerCount: 2
Back
Fore
SplineSet
0 400 m 1
 133.333007812 400 l 1
 133.333007812 466.666992188 l 1
 0 466.666992188 l 1
 0 400 l 1025
200 400 m 1
 400 400 l 1
 400 466.666992188 l 1
 200 466.666992188 l 1
 200 400 l 1025
0 333.333007812 m 1
 200 333.333007812 l 1
 200 400 l 1
 0 400 l 1
 0 333.333007812 l 1025
333.333007812 333.333007812 m 1
 466.666992188 333.333007812 l 1
 466.666992188 400 l 1
 333.333007812 400 l 1
 333.333007812 333.333007812 l 1025
0 266.666992188 m 1
 133.333007812 266.666992188 l 1
 133.333007812 333.333007812 l 1
 0 333.333007812 l 1
 0 266.666992188 l 1025
400 266.666992188 m 1
 533.333007812 266.666992188 l 1
 533.333007812 333.333007812 l 1
 400 333.333007812 l 1
 400 266.666992188 l 1025
0 200 m 1
 133.333007812 200 l 1
 133.333007812 266.666992188 l 1
 0 266.666992188 l 1
 0 200 l 1025
400 200 m 1
 533.333007812 200 l 1
 533.333007812 266.666992188 l 1
 400 266.666992188 l 1
 400 200 l 1025
0 133.333007812 m 1
 133.333007812 133.333007812 l 1
 133.333007812 200 l 1
 0 200 l 1
 0 133.333007812 l 1025
400 133.333007812 m 1
 533.333007812 133.333007812 l 1
 533.333007812 200 l 1
 400 200 l 1
 400 133.333007812 l 1025
0 66.6669921875 m 1
 133.333007812 66.6669921875 l 1
 133.333007812 133.333007812 l 1
 0 133.333007812 l 1
 0 66.6669921875 l 1025
400 66.6669921875 m 1
 533.333007812 66.6669921875 l 1
 533.333007812 133.333007812 l 1
 400 133.333007812 l 1
 400 66.6669921875 l 1025
0 -0 m 1
 133.333007812 -0 l 1
 133.333007812 66.6669921875 l 1
 0 66.6669921875 l 1
 0 -0 l 1025
400 -0 m 1
 533.333007812 -0 l 1
 533.333007812 66.6669921875 l 1
 400 66.6669921875 l 1
 400 -0 l 1
EndSplineSet
EndChar

StartChar: o
Encoding: 111 111 80
Width: 600
VWidth: 0
Flags: HW
LayerCount: 2
Back
Fore
SplineSet
133.333007812 400 m 1
 400 400 l 1
 400 466.666992188 l 1
 133.333007812 466.666992188 l 1
 133.333007812 400 l 1025
66.6669921875 333.333007812 m 1
 200 333.333007812 l 1
 200 400 l 1
 66.6669921875 400 l 1
 66.6669921875 333.333007812 l 1025
333.333007812 333.333007812 m 1
 466.666992188 333.333007812 l 1
 466.666992188 400 l 1
 333.333007812 400 l 1
 333.333007812 333.333007812 l 1025
0 266.666992188 m 1
 133.333007812 266.666992188 l 1
 133.333007812 333.333007812 l 1
 0 333.333007812 l 1
 0 266.666992188 l 1025
400 266.666992188 m 1
 533.333007812 266.666992188 l 1
 533.333007812 333.333007812 l 1
 400 333.333007812 l 1
 400 266.666992188 l 1025
0 200 m 1
 133.333007812 200 l 1
 133.333007812 266.666992188 l 1
 0 266.666992188 l 1
 0 200 l 1025
400 200 m 1
 533.333007812 200 l 1
 533.333007812 266.666992188 l 1
 400 266.666992188 l 1
 400 200 l 1025
0 133.333007812 m 1
 133.333007812 133.333007812 l 1
 133.333007812 200 l 1
 0 200 l 1
 0 133.333007812 l 1025
400 133.333007812 m 1
 533.333007812 133.333007812 l 1
 533.333007812 200 l 1
 400 200 l 1
 400 133.333007812 l 1025
66.6669921875 66.6669921875 m 1
 200 66.6669921875 l 1
 200 133.333007812 l 1
 66.6669921875 133.333007812 l 1
 66.6669921875 66.6669921875 l 1025
333.333007812 66.6669921875 m 1
 466.666992188 66.6669921875 l 1
 466.666992188 133.333007812 l 1
 333.333007812 133.333007812 l 1
 333.333007812 66.6669921875 l 1025
133.333007812 -0 m 1
 400 -0 l 1
 400 66.6669921875 l 1
 133.333007812 66.6669921875 l 1
 133.333007812 -0 l 1
EndSplineSet
EndChar

StartChar: p
Encoding: 112 112 81
Width: 600
VWidth: 0
Flags: HW
LayerCount: 2
Back
Fore
SplineSet
0 400 m 1
 133.333007812 400 l 1
 133.333007812 466.666992188 l 1
 0 466.666992188 l 1
 0 400 l 1025
200 400 m 1
 400 400 l 1
 400 466.666992188 l 1
 200 466.666992188 l 1
 200 400 l 1025
0 333.333007812 m 1
 200 333.333007812 l 1
 200 400 l 1
 0 400 l 1
 0 333.333007812 l 1025
333.333007812 333.333007812 m 1
 466.666992188 333.333007812 l 1
 466.666992188 400 l 1
 333.333007812 400 l 1
 333.333007812 333.333007812 l 1025
0 266.666992188 m 1
 133.333007812 266.666992188 l 1
 133.333007812 333.333007812 l 1
 0 333.333007812 l 1
 0 266.666992188 l 1025
400 266.666992188 m 1
 533.333007812 266.666992188 l 1
 533.333007812 333.333007812 l 1
 400 333.333007812 l 1
 400 266.666992188 l 1025
0 200 m 1
 133.333007812 200 l 1
 133.333007812 266.666992188 l 1
 0 266.666992188 l 1
 0 200 l 1025
400 200 m 1
 533.333007812 200 l 1
 533.333007812 266.666992188 l 1
 400 266.666992188 l 1
 400 200 l 1025
0 133.333007812 m 1
 133.333007812 133.333007812 l 1
 133.333007812 200 l 1
 0 200 l 1
 0 133.333007812 l 1025
400 133.333007812 m 1
 533.333007812 133.333007812 l 1
 533.333007812 200 l 1
 400 200 l 1
 400 133.333007812 l 1025
0 66.6669921875 m 1
 200 66.6669921875 l 1
 200 133.333007812 l 1
 0 133.333007812 l 1
 0 66.6669921875 l 1025
333.333007812 66.6669921875 m 1
 466.666992188 66.6669921875 l 1
 466.666992188 133.333007812 l 1
 333.333007812 133.333007812 l 1
 333.333007812 66.6669921875 l 1025
0 -0 m 1
 133.333007812 -0 l 1
 133.333007812 66.6669921875 l 1
 0 66.6669921875 l 1
 0 -0 l 1025
200 -0 m 1
 400 -0 l 1
 400 66.6669921875 l 1
 200 66.6669921875 l 1
 200 -0 l 1025
0 -66.6669921875 m 1
 133.333007812 -66.6669921875 l 1
 133.333007812 -0 l 1
 0 -0 l 1
 0 -66.6669921875 l 1025
0 -133.333007812 m 1
 133.333007812 -133.333007812 l 1
 133.333007812 -66.6669921875 l 1
 0 -66.6669921875 l 1
 0 -133.333007812 l 1025
0 -200 m 1
 133.333007812 -200 l 1
 133.333007812 -133.333007812 l 1
 0 -133.333007812 l 1
 0 -200 l 1
EndSplineSet
EndChar

StartChar: q
Encoding: 113 113 82
Width: 600
VWidth: 0
Flags: HW
LayerCount: 2
Back
Fore
SplineSet
133.333007812 400 m 1
 333.333007812 400 l 1
 333.333007812 466.666992188 l 1
 133.333007812 466.666992188 l 1
 133.333007812 400 l 1025
400 400 m 1
 533.333007812 400 l 1
 533.333007812 466.666992188 l 1
 400 466.666992188 l 1
 400 400 l 1025
66.6669921875 333.333007812 m 1
 200 333.333007812 l 1
 200 400 l 1
 66.6669921875 400 l 1
 66.6669921875 333.333007812 l 1025
333.333007812 333.333007812 m 1
 533.333007812 333.333007812 l 1
 533.333007812 400 l 1
 333.333007812 400 l 1
 333.333007812 333.333007812 l 1025
0 266.666992188 m 1
 133.333007812 266.666992188 l 1
 133.333007812 333.333007812 l 1
 0 333.333007812 l 1
 0 266.666992188 l 1025
400 266.666992188 m 1
 533.333007812 266.666992188 l 1
 533.333007812 333.333007812 l 1
 400 333.333007812 l 1
 400 266.666992188 l 1025
0 200 m 1
 133.333007812 200 l 1
 133.333007812 266.666992188 l 1
 0 266.666992188 l 1
 0 200 l 1025
400 200 m 1
 533.333007812 200 l 1
 533.333007812 266.666992188 l 1
 400 266.666992188 l 1
 400 200 l 1025
0 133.333007812 m 1
 133.333007812 133.333007812 l 1
 133.333007812 200 l 1
 0 200 l 1
 0 133.333007812 l 1025
400 133.333007812 m 1
 533.333007812 133.333007812 l 1
 533.333007812 200 l 1
 400 200 l 1
 400 133.333007812 l 1025
66.6669921875 66.6669921875 m 1
 200 66.6669921875 l 1
 200 133.333007812 l 1
 66.6669921875 133.333007812 l 1
 66.6669921875 66.6669921875 l 1025
333.333007812 66.6669921875 m 1
 533.333007812 66.6669921875 l 1
 533.333007812 133.333007812 l 1
 333.333007812 133.333007812 l 1
 333.333007812 66.6669921875 l 1025
133.333007812 -0 m 1
 333.333007812 -0 l 1
 333.333007812 66.6669921875 l 1
 133.333007812 66.6669921875 l 1
 133.333007812 -0 l 1025
400 -0 m 1
 533.333007812 -0 l 1
 533.333007812 66.6669921875 l 1
 400 66.6669921875 l 1
 400 -0 l 1025
400 -66.6669921875 m 1
 533.333007812 -66.6669921875 l 1
 533.333007812 -0 l 1
 400 -0 l 1
 400 -66.6669921875 l 1025
400 -133.333007812 m 1
 533.333007812 -133.333007812 l 1
 533.333007812 -66.6669921875 l 1
 400 -66.6669921875 l 1
 400 -133.333007812 l 1025
400 -200 m 1
 533.333007812 -200 l 1
 533.333007812 -133.333007812 l 1
 400 -133.333007812 l 1
 400 -200 l 1
EndSplineSet
EndChar

StartChar: r
Encoding: 114 114 83
Width: 600
VWidth: 0
Flags: HW
LayerCount: 2
Back
Fore
SplineSet
0 400 m 1
 133.333007812 400 l 1
 133.333007812 466.666992188 l 1
 0 466.666992188 l 1
 0 400 l 1025
200 400 m 1
 466.666992188 400 l 1
 466.666992188 466.666992188 l 1
 200 466.666992188 l 1
 200 400 l 1025
66.6669921875 333.333007812 m 1
 266.666992188 333.333007812 l 1
 266.666992188 400 l 1
 66.6669921875 400 l 1
 66.6669921875 333.333007812 l 1025
400 333.333007812 m 1
 533.333007812 333.333007812 l 1
 533.333007812 400 l 1
 400 400 l 1
 400 333.333007812 l 1025
66.6669921875 266.666992188 m 1
 200 266.666992188 l 1
 200 333.333007812 l 1
 66.6669921875 333.333007812 l 1
 66.6669921875 266.666992188 l 1025
66.6669921875 200 m 1
 200 200 l 1
 200 266.666992188 l 1
 66.6669921875 266.666992188 l 1
 66.6669921875 200 l 1025
66.6669921875 133.333007812 m 1
 200 133.333007812 l 1
 200 200 l 1
 66.6669921875 200 l 1
 66.6669921875 133.333007812 l 1025
66.6669921875 66.6669921875 m 1
 200 66.6669921875 l 1
 200 133.333007812 l 1
 66.6669921875 133.333007812 l 1
 66.6669921875 66.6669921875 l 1025
66.6669921875 -0 m 1
 200 -0 l 1
 200 66.6669921875 l 1
 66.6669921875 66.6669921875 l 1
 66.6669921875 -0 l 1
EndSplineSet
EndChar

StartChar: s
Encoding: 115 115 84
Width: 600
VWidth: 0
Flags: HW
LayerCount: 2
Back
Fore
SplineSet
66.6669921875 400 m 1
 466.666992188 400 l 1
 466.666992188 466.666992188 l 1
 66.6669921875 466.666992188 l 1
 66.6669921875 400 l 1025
0 333.333007812 m 1
 133.333007812 333.333007812 l 1
 133.333007812 400 l 1
 0 400 l 1
 0 333.333007812 l 1025
400 333.333007812 m 1
 533.333007812 333.333007812 l 1
 533.333007812 400 l 1
 400 400 l 1
 400 333.333007812 l 1025
0 266.666992188 m 1
 133.333007812 266.666992188 l 1
 133.333007812 333.333007812 l 1
 0 333.333007812 l 1
 0 266.666992188 l 1025
66.6669921875 200 m 1
 466.666992188 200 l 1
 466.666992188 266.666992188 l 1
 66.6669921875 266.666992188 l 1
 66.6669921875 200 l 1025
400 133.333007812 m 1
 533.333007812 133.333007812 l 1
 533.333007812 200 l 1
 400 200 l 1
 400 133.333007812 l 1025
0 66.6669921875 m 1
 133.333007812 66.6669921875 l 1
 133.333007812 133.333007812 l 1
 0 133.333007812 l 1
 0 66.6669921875 l 1025
400 66.6669921875 m 1
 533.333007812 66.6669921875 l 1
 533.333007812 133.333007812 l 1
 400 133.333007812 l 1
 400 66.6669921875 l 1025
66.6669921875 -0 m 1
 466.666992188 -0 l 1
 466.666992188 66.6669921875 l 1
 66.6669921875 66.6669921875 l 1
 66.6669921875 -0 l 1
EndSplineSet
EndChar

StartChar: t
Encoding: 116 116 85
Width: 600
VWidth: 0
Flags: HW
LayerCount: 2
Back
Fore
SplineSet
133.333007812 533.333007812 m 1
 266.666992188 533.333007812 l 1
 266.666992188 600 l 1
 133.333007812 600 l 1
 133.333007812 533.333007812 l 1025
133.333007812 466.666992188 m 1
 266.666992188 466.666992188 l 1
 266.666992188 533.333007812 l 1
 133.333007812 533.333007812 l 1
 133.333007812 466.666992188 l 1025
0 400 m 1
 400 400 l 1
 400 466.666992188 l 1
 0 466.666992188 l 1
 0 400 l 1025
133.333007812 333.333007812 m 1
 266.666992188 333.333007812 l 1
 266.666992188 400 l 1
 133.333007812 400 l 1
 133.333007812 333.333007812 l 1025
133.333007812 266.666992188 m 1
 266.666992188 266.666992188 l 1
 266.666992188 333.333007812 l 1
 133.333007812 333.333007812 l 1
 133.333007812 266.666992188 l 1025
133.333007812 200 m 1
 266.666992188 200 l 1
 266.666992188 266.666992188 l 1
 133.333007812 266.666992188 l 1
 133.333007812 200 l 1025
133.333007812 133.333007812 m 1
 266.666992188 133.333007812 l 1
 266.666992188 200 l 1
 133.333007812 200 l 1
 133.333007812 133.333007812 l 1025
133.333007812 66.6669921875 m 1
 266.666992188 66.6669921875 l 1
 266.666992188 133.333007812 l 1
 133.333007812 133.333007812 l 1
 133.333007812 66.6669921875 l 1025
400 66.6669921875 m 1
 533.333007812 66.6669921875 l 1
 533.333007812 133.333007812 l 1
 400 133.333007812 l 1
 400 66.6669921875 l 1025
200 -0 m 1
 466.666992188 -0 l 1
 466.666992188 66.6669921875 l 1
 200 66.6669921875 l 1
 200 -0 l 1
EndSplineSet
EndChar

StartChar: u
Encoding: 117 117 86
Width: 600
VWidth: 0
Flags: HW
LayerCount: 2
Back
Fore
SplineSet
0 400 m 1
 133.333007812 400 l 1
 133.333007812 466.666992188 l 1
 0 466.666992188 l 1
 0 400 l 1025
400 400 m 1
 533.333007812 400 l 1
 533.333007812 466.666992188 l 1
 400 466.666992188 l 1
 400 400 l 1025
0 333.333007812 m 1
 133.333007812 333.333007812 l 1
 133.333007812 400 l 1
 0 400 l 1
 0 333.333007812 l 1025
400 333.333007812 m 1
 533.333007812 333.333007812 l 1
 533.333007812 400 l 1
 400 400 l 1
 400 333.333007812 l 1025
0 266.666992188 m 1
 133.333007812 266.666992188 l 1
 133.333007812 333.333007812 l 1
 0 333.333007812 l 1
 0 266.666992188 l 1025
400 266.666992188 m 1
 533.333007812 266.666992188 l 1
 533.333007812 333.333007812 l 1
 400 333.333007812 l 1
 400 266.666992188 l 1025
0 200 m 1
 133.333007812 200 l 1
 133.333007812 266.666992188 l 1
 0 266.666992188 l 1
 0 200 l 1025
400 200 m 1
 533.333007812 200 l 1
 533.333007812 266.666992188 l 1
 400 266.666992188 l 1
 400 200 l 1025
0 133.333007812 m 1
 133.333007812 133.333007812 l 1
 133.333007812 200 l 1
 0 200 l 1
 0 133.333007812 l 1025
400 133.333007812 m 1
 533.333007812 133.333007812 l 1
 533.333007812 200 l 1
 400 200 l 1
 400 133.333007812 l 1025
66.6669921875 66.6669921875 m 1
 200 66.6669921875 l 1
 200 133.333007812 l 1
 66.6669921875 133.333007812 l 1
 66.6669921875 66.6669921875 l 1025
333.333007812 66.6669921875 m 1
 533.333007812 66.6669921875 l 1
 533.333007812 133.333007812 l 1
 333.333007812 133.333007812 l 1
 333.333007812 66.6669921875 l 1025
133.333007812 -0 m 1
 333.333007812 -0 l 1
 333.333007812 66.6669921875 l 1
 133.333007812 66.6669921875 l 1
 133.333007812 -0 l 1025
400 -0 m 1
 533.333007812 -0 l 1
 533.333007812 66.6669921875 l 1
 400 66.6669921875 l 1
 400 -0 l 1
EndSplineSet
EndChar

StartChar: v
Encoding: 118 118 87
Width: 600
VWidth: 0
Flags: HW
LayerCount: 2
Back
Fore
SplineSet
0 400 m 1
 133.333007812 400 l 1
 133.333007812 466.666992188 l 1
 0 466.666992188 l 1
 0 400 l 1025
400 400 m 1
 533.333007812 400 l 1
 533.333007812 466.666992188 l 1
 400 466.666992188 l 1
 400 400 l 1025
0 333.333007812 m 1
 133.333007812 333.333007812 l 1
 133.333007812 400 l 1
 0 400 l 1
 0 333.333007812 l 1025
400 333.333007812 m 1
 533.333007812 333.333007812 l 1
 533.333007812 400 l 1
 400 400 l 1
 400 333.333007812 l 1025
66.6669921875 266.666992188 m 1
 200 266.666992188 l 1
 200 333.333007812 l 1
 66.6669921875 333.333007812 l 1
 66.6669921875 266.666992188 l 1025
333.333007812 266.666992188 m 1
 466.666992188 266.666992188 l 1
 466.666992188 333.333007812 l 1
 333.333007812 333.333007812 l 1
 333.333007812 266.666992188 l 1025
66.6669921875 200 m 1
 200 200 l 1
 200 266.666992188 l 1
 66.6669921875 266.666992188 l 1
 66.6669921875 200 l 1025
333.333007812 200 m 1
 466.666992188 200 l 1
 466.666992188 266.666992188 l 1
 333.333007812 266.666992188 l 1
 333.333007812 200 l 1025
133.333007812 133.333007812 m 1
 400 133.333007812 l 1
 400 200 l 1
 133.333007812 200 l 1
 133.333007812 133.333007812 l 1025
133.333007812 66.6669921875 m 1
 400 66.6669921875 l 1
 400 133.333007812 l 1
 133.333007812 133.333007812 l 1
 133.333007812 66.6669921875 l 1025
200 -0 m 1
 333.333007812 -0 l 1
 333.333007812 66.6669921875 l 1
 200 66.6669921875 l 1
 200 -0 l 1
EndSplineSet
EndChar

StartChar: w
Encoding: 119 119 88
Width: 600
VWidth: 0
Flags: HW
LayerCount: 2
Back
Fore
SplineSet
0 400 m 1
 133.333007812 400 l 1
 133.333007812 466.666992188 l 1
 0 466.666992188 l 1
 0 400 l 1025
400 400 m 1
 533.333007812 400 l 1
 533.333007812 466.666992188 l 1
 400 466.666992188 l 1
 400 400 l 1025
0 333.333007812 m 1
 133.333007812 333.333007812 l 1
 133.333007812 400 l 1
 0 400 l 1
 0 333.333007812 l 1025
400 333.333007812 m 1
 533.333007812 333.333007812 l 1
 533.333007812 400 l 1
 400 400 l 1
 400 333.333007812 l 1025
0 266.666992188 m 1
 133.333007812 266.666992188 l 1
 133.333007812 333.333007812 l 1
 0 333.333007812 l 1
 0 266.666992188 l 1025
200 266.666992188 m 1
 333.333007812 266.666992188 l 1
 333.333007812 333.333007812 l 1
 200 333.333007812 l 1
 200 266.666992188 l 1025
400 266.666992188 m 1
 533.333007812 266.666992188 l 1
 533.333007812 333.333007812 l 1
 400 333.333007812 l 1
 400 266.666992188 l 1025
0 200 m 1
 133.333007812 200 l 1
 133.333007812 266.666992188 l 1
 0 266.666992188 l 1
 0 200 l 1025
200 200 m 1
 333.333007812 200 l 1
 333.333007812 266.666992188 l 1
 200 266.666992188 l 1
 200 200 l 1025
400 200 m 1
 533.333007812 200 l 1
 533.333007812 266.666992188 l 1
 400 266.666992188 l 1
 400 200 l 1025
0 133.333007812 m 1
 133.333007812 133.333007812 l 1
 133.333007812 200 l 1
 0 200 l 1
 0 133.333007812 l 1025
200 133.333007812 m 1
 333.333007812 133.333007812 l 1
 333.333007812 200 l 1
 200 200 l 1
 200 133.333007812 l 1025
400 133.333007812 m 1
 533.333007812 133.333007812 l 1
 533.333007812 200 l 1
 400 200 l 1
 400 133.333007812 l 1025
0 66.6669921875 m 1
 533.333007812 66.6669921875 l 1
 533.333007812 133.333007812 l 1
 0 133.333007812 l 1
 0 66.6669921875 l 1025
66.6669921875 -0 m 1
 200 -0 l 1
 200 66.6669921875 l 1
 66.6669921875 66.6669921875 l 1
 66.6669921875 -0 l 1025
333.333007812 -0 m 1
 466.666992188 -0 l 1
 466.666992188 66.6669921875 l 1
 333.333007812 66.6669921875 l 1
 333.333007812 -0 l 1
EndSplineSet
EndChar

StartChar: x
Encoding: 120 120 89
Width: 600
VWidth: 0
Flags: HW
LayerCount: 2
Back
Fore
SplineSet
0 400 m 1
 133.333007812 400 l 1
 133.333007812 466.666992188 l 1
 0 466.666992188 l 1
 0 400 l 1025
400 400 m 1
 533.333007812 400 l 1
 533.333007812 466.666992188 l 1
 400 466.666992188 l 1
 400 400 l 1025
66.6669921875 333.333007812 m 1
 200 333.333007812 l 1
 200 400 l 1
 66.6669921875 400 l 1
 66.6669921875 333.333007812 l 1025
333.333007812 333.333007812 m 1
 466.666992188 333.333007812 l 1
 466.666992188 400 l 1
 333.333007812 400 l 1
 333.333007812 333.333007812 l 1025
133.333007812 266.666992188 m 1
 400 266.666992188 l 1
 400 333.333007812 l 1
 133.333007812 333.333007812 l 1
 133.333007812 266.666992188 l 1025
200 200 m 1
 333.333007812 200 l 1
 333.333007812 266.666992188 l 1
 200 266.666992188 l 1
 200 200 l 1025
133.333007812 133.333007812 m 1
 400 133.333007812 l 1
 400 200 l 1
 133.333007812 200 l 1
 133.333007812 133.333007812 l 1025
66.6669921875 66.6669921875 m 1
 200 66.6669921875 l 1
 200 133.333007812 l 1
 66.6669921875 133.333007812 l 1
 66.6669921875 66.6669921875 l 1025
333.333007812 66.6669921875 m 1
 466.666992188 66.6669921875 l 1
 466.666992188 133.333007812 l 1
 333.333007812 133.333007812 l 1
 333.333007812 66.6669921875 l 1025
0 -0 m 1
 133.333007812 -0 l 1
 133.333007812 66.6669921875 l 1
 0 66.6669921875 l 1
 0 -0 l 1025
400 -0 m 1
 533.333007812 -0 l 1
 533.333007812 66.6669921875 l 1
 400 66.6669921875 l 1
 400 -0 l 1
EndSplineSet
EndChar

StartChar: y
Encoding: 121 121 90
Width: 600
VWidth: 0
Flags: HW
LayerCount: 2
Back
Fore
SplineSet
0 400 m 1
 133.333007812 400 l 1
 133.333007812 466.666992188 l 1
 0 466.666992188 l 1
 0 400 l 1025
400 400 m 1
 533.333007812 400 l 1
 533.333007812 466.666992188 l 1
 400 466.666992188 l 1
 400 400 l 1025
0 333.333007812 m 1
 133.333007812 333.333007812 l 1
 133.333007812 400 l 1
 0 400 l 1
 0 333.333007812 l 1025
400 333.333007812 m 1
 533.333007812 333.333007812 l 1
 533.333007812 400 l 1
 400 400 l 1
 400 333.333007812 l 1025
0 266.666992188 m 1
 133.333007812 266.666992188 l 1
 133.333007812 333.333007812 l 1
 0 333.333007812 l 1
 0 266.666992188 l 1025
400 266.666992188 m 1
 533.333007812 266.666992188 l 1
 533.333007812 333.333007812 l 1
 400 333.333007812 l 1
 400 266.666992188 l 1025
0 200 m 1
 133.333007812 200 l 1
 133.333007812 266.666992188 l 1
 0 266.666992188 l 1
 0 200 l 1025
400 200 m 1
 533.333007812 200 l 1
 533.333007812 266.666992188 l 1
 400 266.666992188 l 1
 400 200 l 1025
0 133.333007812 m 1
 133.333007812 133.333007812 l 1
 133.333007812 200 l 1
 0 200 l 1
 0 133.333007812 l 1025
400 133.333007812 m 1
 533.333007812 133.333007812 l 1
 533.333007812 200 l 1
 400 200 l 1
 400 133.333007812 l 1025
66.6669921875 66.6669921875 m 1
 200 66.6669921875 l 1
 200 133.333007812 l 1
 66.6669921875 133.333007812 l 1
 66.6669921875 66.6669921875 l 1025
333.333007812 66.6669921875 m 1
 533.333007812 66.6669921875 l 1
 533.333007812 133.333007812 l 1
 333.333007812 133.333007812 l 1
 333.333007812 66.6669921875 l 1025
133.333007812 -0 m 1
 333.333007812 -0 l 1
 333.333007812 66.6669921875 l 1
 133.333007812 66.6669921875 l 1
 133.333007812 -0 l 1025
400 -0 m 1
 533.333007812 -0 l 1
 533.333007812 66.6669921875 l 1
 400 66.6669921875 l 1
 400 -0 l 1025
400 -66.6669921875 m 1
 533.333007812 -66.6669921875 l 1
 533.333007812 -0 l 1
 400 -0 l 1
 400 -66.6669921875 l 1025
0 -133.333007812 m 1
 133.333007812 -133.333007812 l 1
 133.333007812 -66.6669921875 l 1
 0 -66.6669921875 l 1
 0 -133.333007812 l 1025
333.333007812 -133.333007812 m 1
 466.666992188 -133.333007812 l 1
 466.666992188 -66.6669921875 l 1
 333.333007812 -66.6669921875 l 1
 333.333007812 -133.333007812 l 1025
66.6669921875 -200 m 1
 400 -200 l 1
 400 -133.333007812 l 1
 66.6669921875 -133.333007812 l 1
 66.6669921875 -200 l 1
EndSplineSet
EndChar

StartChar: z
Encoding: 122 122 91
Width: 600
VWidth: 0
Flags: HW
LayerCount: 2
Back
Fore
SplineSet
66.6669921875 400 m 1
 466.666992188 400 l 1
 466.666992188 466.666992188 l 1
 66.6669921875 466.666992188 l 1
 66.6669921875 400 l 1025
333.333007812 333.333007812 m 1
 466.666992188 333.333007812 l 1
 466.666992188 400 l 1
 333.333007812 400 l 1
 333.333007812 333.333007812 l 1025
266.666992188 266.666992188 m 1
 400 266.666992188 l 1
 400 333.333007812 l 1
 266.666992188 333.333007812 l 1
 266.666992188 266.666992188 l 1025
200 200 m 1
 333.333007812 200 l 1
 333.333007812 266.666992188 l 1
 200 266.666992188 l 1
 200 200 l 1025
133.333007812 133.333007812 m 1
 266.666992188 133.333007812 l 1
 266.666992188 200 l 1
 133.333007812 200 l 1
 133.333007812 133.333007812 l 1025
66.6669921875 66.6669921875 m 1
 200 66.6669921875 l 1
 200 133.333007812 l 1
 66.6669921875 133.333007812 l 1
 66.6669921875 66.6669921875 l 1025
66.6669921875 -0 m 1
 466.666992188 -0 l 1
 466.666992188 66.6669921875 l 1
 66.6669921875 66.6669921875 l 1
 66.6669921875 -0 l 1
EndSplineSet
EndChar

StartChar: braceleft
Encoding: 123 123 92
Width: 600
VWidth: 0
Flags: HW
LayerCount: 2
Back
Fore
SplineSet
266.666992188 666.666992188 m 1
 466.666992188 666.666992188 l 1
 466.666992188 733.333007812 l 1
 266.666992188 733.333007812 l 1
 266.666992188 666.666992188 l 1025
200 600 m 1
 333.333007812 600 l 1
 333.333007812 666.666992188 l 1
 200 666.666992188 l 1
 200 600 l 1025
200 533.333007812 m 1
 333.333007812 533.333007812 l 1
 333.333007812 600 l 1
 200 600 l 1
 200 533.333007812 l 1025
200 466.666992188 m 1
 333.333007812 466.666992188 l 1
 333.333007812 533.333007812 l 1
 200 533.333007812 l 1
 200 466.666992188 l 1025
200 400 m 1
 333.333007812 400 l 1
 333.333007812 466.666992188 l 1
 200 466.666992188 l 1
 200 400 l 1025
133.333007812 333.333007812 m 1
 266.666992188 333.333007812 l 1
 266.666992188 400 l 1
 133.333007812 400 l 1
 133.333007812 333.333007812 l 1025
133.333007812 266.666992188 m 1
 266.666992188 266.666992188 l 1
 266.666992188 333.333007812 l 1
 133.333007812 333.333007812 l 1
 133.333007812 266.666992188 l 1025
200 200 m 1
 333.333007812 200 l 1
 333.333007812 266.666992188 l 1
 200 266.666992188 l 1
 200 200 l 1025
200 133.333007812 m 1
 333.333007812 133.333007812 l 1
 333.333007812 200 l 1
 200 200 l 1
 200 133.333007812 l 1025
200 66.6669921875 m 1
 333.333007812 66.6669921875 l 1
 333.333007812 133.333007812 l 1
 200 133.333007812 l 1
 200 66.6669921875 l 1025
200 -0 m 1
 333.333007812 -0 l 1
 333.333007812 66.6669921875 l 1
 200 66.6669921875 l 1
 200 -0 l 1025
266.666992188 -66.6669921875 m 1
 466.666992188 -66.6669921875 l 1
 466.666992188 -0 l 1
 266.666992188 -0 l 1
 266.666992188 -66.6669921875 l 1
EndSplineSet
EndChar

StartChar: bar
Encoding: 124 124 93
Width: 600
VWidth: 0
Flags: HW
LayerCount: 2
Back
Fore
SplineSet
200 600 m 1
 333.333007812 600 l 1
 333.333007812 666.666992188 l 1
 200 666.666992188 l 1
 200 600 l 1025
200 533.333007812 m 1
 333.333007812 533.333007812 l 1
 333.333007812 600 l 1
 200 600 l 1
 200 533.333007812 l 1025
200 466.666992188 m 1
 333.333007812 466.666992188 l 1
 333.333007812 533.333007812 l 1
 200 533.333007812 l 1
 200 466.666992188 l 1025
200 400 m 1
 333.333007812 400 l 1
 333.333007812 466.666992188 l 1
 200 466.666992188 l 1
 200 400 l 1025
200 333.333007812 m 1
 333.333007812 333.333007812 l 1
 333.333007812 400 l 1
 200 400 l 1
 200 333.333007812 l 1025
200 266.666992188 m 1
 333.333007812 266.666992188 l 1
 333.333007812 333.333007812 l 1
 200 333.333007812 l 1
 200 266.666992188 l 1025
200 200 m 1
 333.333007812 200 l 1
 333.333007812 266.666992188 l 1
 200 266.666992188 l 1
 200 200 l 1025
200 133.333007812 m 1
 333.333007812 133.333007812 l 1
 333.333007812 200 l 1
 200 200 l 1
 200 133.333007812 l 1025
200 66.6669921875 m 1
 333.333007812 66.6669921875 l 1
 333.333007812 133.333007812 l 1
 200 133.333007812 l 1
 200 66.6669921875 l 1025
200 -0 m 1
 333.333007812 -0 l 1
 333.333007812 66.6669921875 l 1
 200 66.6669921875 l 1
 200 -0 l 1
EndSplineSet
EndChar

StartChar: braceright
Encoding: 125 125 94
Width: 600
VWidth: 0
Flags: HW
LayerCount: 2
Back
Fore
SplineSet
133.333007812 666.666992188 m 1
 333.333007812 666.666992188 l 1
 333.333007812 733.333007812 l 1
 133.333007812 733.333007812 l 1
 133.333007812 666.666992188 l 1025
266.666992188 600 m 1
 400 600 l 1
 400 666.666992188 l 1
 266.666992188 666.666992188 l 1
 266.666992188 600 l 1025
266.666992188 533.333007812 m 1
 400 533.333007812 l 1
 400 600 l 1
 266.666992188 600 l 1
 266.666992188 533.333007812 l 1025
266.666992188 466.666992188 m 1
 400 466.666992188 l 1
 400 533.333007812 l 1
 266.666992188 533.333007812 l 1
 266.666992188 466.666992188 l 1025
266.666992188 400 m 1
 400 400 l 1
 400 466.666992188 l 1
 266.666992188 466.666992188 l 1
 266.666992188 400 l 1025
333.333007812 333.333007812 m 1
 466.666992188 333.333007812 l 1
 466.666992188 400 l 1
 333.333007812 400 l 1
 333.333007812 333.333007812 l 1025
333.333007812 266.666992188 m 1
 466.666992188 266.666992188 l 1
 466.666992188 333.333007812 l 1
 333.333007812 333.333007812 l 1
 333.333007812 266.666992188 l 1025
266.666992188 200 m 1
 400 200 l 1
 400 266.666992188 l 1
 266.666992188 266.666992188 l 1
 266.666992188 200 l 1025
266.666992188 133.333007812 m 1
 400 133.333007812 l 1
 400 200 l 1
 266.666992188 200 l 1
 266.666992188 133.333007812 l 1025
266.666992188 66.6669921875 m 1
 400 66.6669921875 l 1
 400 133.333007812 l 1
 266.666992188 133.333007812 l 1
 266.666992188 66.6669921875 l 1025
266.666992188 -0 m 1
 400 -0 l 1
 400 66.6669921875 l 1
 266.666992188 66.6669921875 l 1
 266.666992188 -0 l 1025
133.333007812 -66.6669921875 m 1
 333.333007812 -66.6669921875 l 1
 333.333007812 -0 l 1
 133.333007812 -0 l 1
 133.333007812 -66.6669921875 l 1
EndSplineSet
EndChar

StartChar: asciitilde
Encoding: 126 126 95
Width: 600
VWidth: 0
Flags: HW
LayerCount: 2
Back
Fore
SplineSet
66.6669921875 600 m 1
 266.666992188 600 l 1
 266.666992188 666.666992188 l 1
 66.6669921875 666.666992188 l 1
 66.6669921875 600 l 1025
400 600 m 1
 533.333007812 600 l 1
 533.333007812 666.666992188 l 1
 400 666.666992188 l 1
 400 600 l 1025
0 533.333007812 m 1
 133.333007812 533.333007812 l 1
 133.333007812 600 l 1
 0 600 l 1
 0 533.333007812 l 1025
200 533.333007812 m 1
 333.333007812 533.333007812 l 1
 333.333007812 600 l 1
 200 600 l 1
 200 533.333007812 l 1025
400 533.333007812 m 1
 533.333007812 533.333007812 l 1
 533.333007812 600 l 1
 400 600 l 1
 400 533.333007812 l 1025
0 466.666992188 m 1
 133.333007812 466.666992188 l 1
 133.333007812 533.333007812 l 1
 0 533.333007812 l 1
 0 466.666992188 l 1025
266.666992188 466.666992188 m 1
 466.666992188 466.666992188 l 1
 466.666992188 533.333007812 l 1
 266.666992188 533.333007812 l 1
 266.666992188 466.666992188 l 1
EndSplineSet
EndChar

StartChar: exclamdown
Encoding: 161 161 97
Width: 600
VWidth: 0
Flags: HW
LayerCount: 2
Back
Fore
SplineSet
266.666992188 600 m 1
 400 600 l 1
 400 666.666992188 l 1
 266.666992188 666.666992188 l 1
 266.666992188 600 l 1025
266.666992188 466.666992188 m 1
 400 466.666992188 l 1
 400 533.333007812 l 1
 266.666992188 533.333007812 l 1
 266.666992188 466.666992188 l 1025
266.666992188 400 m 1
 400 400 l 1
 400 466.666992188 l 1
 266.666992188 466.666992188 l 1
 266.666992188 400 l 1025
266.666992188 333.333007812 m 1
 400 333.333007812 l 1
 400 400 l 1
 266.666992188 400 l 1
 266.666992188 333.333007812 l 1025
266.666992188 266.666992188 m 1
 400 266.666992188 l 1
 400 333.333007812 l 1
 266.666992188 333.333007812 l 1
 266.666992188 266.666992188 l 1025
266.666992188 200 m 1
 400 200 l 1
 400 266.666992188 l 1
 266.666992188 266.666992188 l 1
 266.666992188 200 l 1025
266.666992188 133.333007812 m 1
 400 133.333007812 l 1
 400 200 l 1
 266.666992188 200 l 1
 266.666992188 133.333007812 l 1025
266.666992188 66.6669921875 m 1
 400 66.6669921875 l 1
 400 133.333007812 l 1
 266.666992188 133.333007812 l 1
 266.666992188 66.6669921875 l 1025
266.666992188 -0 m 1
 400 -0 l 1
 400 66.6669921875 l 1
 266.666992188 66.6669921875 l 1
 266.666992188 -0 l 1
EndSplineSet
EndChar

StartChar: cent
Encoding: 162 162 98
Width: 600
VWidth: 0
Flags: HW
LayerCount: 2
Back
Fore
SplineSet
400 466.666992188 m 1
 466.666992188 466.666992188 l 1
 466.666992188 533.333007812 l 1
 400 533.333007812 l 1
 400 466.666992188 l 1025
133.333007812 400 m 1
 466.666992188 400 l 1
 466.666992188 466.666992188 l 1
 133.333007812 466.666992188 l 1
 133.333007812 400 l 1025
66.6669921875 333.333007812 m 1
 200 333.333007812 l 1
 200 400 l 1
 66.6669921875 400 l 1
 66.6669921875 333.333007812 l 1025
333.333007812 333.333007812 m 1
 533.333007812 333.333007812 l 1
 533.333007812 400 l 1
 333.333007812 400 l 1
 333.333007812 333.333007812 l 1025
66.6669921875 266.666992188 m 1
 200 266.666992188 l 1
 200 333.333007812 l 1
 66.6669921875 333.333007812 l 1
 66.6669921875 266.666992188 l 1025
266.666992188 266.666992188 m 1
 333.333007812 266.666992188 l 1
 333.333007812 333.333007812 l 1
 266.666992188 333.333007812 l 1
 266.666992188 266.666992188 l 1025
66.6669921875 200 m 1
 200 200 l 1
 200 266.666992188 l 1
 66.6669921875 266.666992188 l 1
 66.6669921875 200 l 1025
266.666992188 200 m 1
 333.333007812 200 l 1
 333.333007812 266.666992188 l 1
 266.666992188 266.666992188 l 1
 266.666992188 200 l 1025
66.6669921875 133.333007812 m 1
 266.666992188 133.333007812 l 1
 266.666992188 200 l 1
 66.6669921875 200 l 1
 66.6669921875 133.333007812 l 1025
400 133.333007812 m 1
 533.333007812 133.333007812 l 1
 533.333007812 200 l 1
 400 200 l 1
 400 133.333007812 l 1025
133.333007812 66.6669921875 m 1
 466.666992188 66.6669921875 l 1
 466.666992188 133.333007812 l 1
 133.333007812 133.333007812 l 1
 133.333007812 66.6669921875 l 1025
133.333007812 -0 m 1
 200 -0 l 1
 200 66.6669921875 l 1
 133.333007812 66.6669921875 l 1
 133.333007812 -0 l 1
EndSplineSet
EndChar

StartChar: sterling
Encoding: 163 163 99
Width: 600
VWidth: 0
Flags: HW
LayerCount: 2
Back
Fore
SplineSet
200 533.333007812 m 1
 466.666992188 533.333007812 l 1
 466.666992188 600 l 1
 200 600 l 1
 200 533.333007812 l 1025
133.333007812 466.666992188 m 1
 266.666992188 466.666992188 l 1
 266.666992188 533.333007812 l 1
 133.333007812 533.333007812 l 1
 133.333007812 466.666992188 l 1025
400 466.666992188 m 1
 533.333007812 466.666992188 l 1
 533.333007812 533.333007812 l 1
 400 533.333007812 l 1
 400 466.666992188 l 1025
133.333007812 400 m 1
 266.666992188 400 l 1
 266.666992188 466.666992188 l 1
 133.333007812 466.666992188 l 1
 133.333007812 400 l 1025
133.333007812 333.333007812 m 1
 266.666992188 333.333007812 l 1
 266.666992188 400 l 1
 133.333007812 400 l 1
 133.333007812 333.333007812 l 1025
66.6669921875 266.666992188 m 1
 400 266.666992188 l 1
 400 333.333007812 l 1
 66.6669921875 333.333007812 l 1
 66.6669921875 266.666992188 l 1025
133.333007812 200 m 1
 266.666992188 200 l 1
 266.666992188 266.666992188 l 1
 133.333007812 266.666992188 l 1
 133.333007812 200 l 1025
133.333007812 133.333007812 m 1
 266.666992188 133.333007812 l 1
 266.666992188 200 l 1
 133.333007812 200 l 1
 133.333007812 133.333007812 l 1025
0 66.6669921875 m 1
 333.333007812 66.6669921875 l 1
 333.333007812 133.333007812 l 1
 0 133.333007812 l 1
 0 66.6669921875 l 1025
0 -0 m 1
 66.6669921875 -0 l 1
 66.6669921875 66.6669921875 l 1
 0 66.6669921875 l 1
 0 -0 l 1025
133.333007812 -0 m 1
 533.333007812 -0 l 1
 533.333007812 66.6669921875 l 1
 133.333007812 66.6669921875 l 1
 133.333007812 -0 l 1025
0 -66.6669921875 m 1
 200 -66.6669921875 l 1
 200 -0 l 1
 0 -0 l 1
 0 -66.6669921875 l 1
EndSplineSet
EndChar

StartChar: currency
Encoding: 164 164 100
Width: 600
VWidth: 0
Flags: HW
LayerCount: 2
Back
Fore
SplineSet
66.6669921875 533.333007812 m 1
 200 533.333007812 l 1
 200 600 l 1
 66.6669921875 600 l 1
 66.6669921875 533.333007812 l 1025
400 533.333007812 m 1
 533.333007812 533.333007812 l 1
 533.333007812 600 l 1
 400 600 l 1
 400 533.333007812 l 1025
66.6669921875 466.666992188 m 1
 533.333007812 466.666992188 l 1
 533.333007812 533.333007812 l 1
 66.6669921875 533.333007812 l 1
 66.6669921875 466.666992188 l 1025
133.333007812 400 m 1
 266.666992188 400 l 1
 266.666992188 466.666992188 l 1
 133.333007812 466.666992188 l 1
 133.333007812 400 l 1025
333.333007812 400 m 1
 466.666992188 400 l 1
 466.666992188 466.666992188 l 1
 333.333007812 466.666992188 l 1
 333.333007812 400 l 1025
133.333007812 333.333007812 m 1
 200 333.333007812 l 1
 200 400 l 1
 133.333007812 400 l 1
 133.333007812 333.333007812 l 1025
400 333.333007812 m 1
 466.666992188 333.333007812 l 1
 466.666992188 400 l 1
 400 400 l 1
 400 333.333007812 l 1025
133.333007812 266.666992188 m 1
 266.666992188 266.666992188 l 1
 266.666992188 333.333007812 l 1
 133.333007812 333.333007812 l 1
 133.333007812 266.666992188 l 1025
333.333007812 266.666992188 m 1
 466.666992188 266.666992188 l 1
 466.666992188 333.333007812 l 1
 333.333007812 333.333007812 l 1
 333.333007812 266.666992188 l 1025
66.6669921875 200 m 1
 533.333007812 200 l 1
 533.333007812 266.666992188 l 1
 66.6669921875 266.666992188 l 1
 66.6669921875 200 l 1025
66.6669921875 133.333007812 m 1
 200 133.333007812 l 1
 200 200 l 1
 66.6669921875 200 l 1
 66.6669921875 133.333007812 l 1025
400 133.333007812 m 1
 533.333007812 133.333007812 l 1
 533.333007812 200 l 1
 400 200 l 1
 400 133.333007812 l 1
EndSplineSet
EndChar

StartChar: yen
Encoding: 165 165 101
Width: 600
VWidth: 0
Flags: HW
LayerCount: 2
Back
Fore
SplineSet
0 600 m 1
 133.333007812 600 l 1
 133.333007812 666.666992188 l 1
 0 666.666992188 l 1
 0 600 l 1025
400 600 m 1
 533.333007812 600 l 1
 533.333007812 666.666992188 l 1
 400 666.666992188 l 1
 400 600 l 1025
0 533.333007812 m 1
 133.333007812 533.333007812 l 1
 133.333007812 600 l 1
 0 600 l 1
 0 533.333007812 l 1025
400 533.333007812 m 1
 533.333007812 533.333007812 l 1
 533.333007812 600 l 1
 400 600 l 1
 400 533.333007812 l 1025
66.6669921875 466.666992188 m 1
 200 466.666992188 l 1
 200 533.333007812 l 1
 66.6669921875 533.333007812 l 1
 66.6669921875 466.666992188 l 1025
333.333007812 466.666992188 m 1
 466.666992188 466.666992188 l 1
 466.666992188 533.333007812 l 1
 333.333007812 533.333007812 l 1
 333.333007812 466.666992188 l 1025
133.333007812 400 m 1
 400 400 l 1
 400 466.666992188 l 1
 133.333007812 466.666992188 l 1
 133.333007812 400 l 1025
66.6669921875 333.333007812 m 1
 466.666992188 333.333007812 l 1
 466.666992188 400 l 1
 66.6669921875 400 l 1
 66.6669921875 333.333007812 l 1025
200 266.666992188 m 1
 333.333007812 266.666992188 l 1
 333.333007812 333.333007812 l 1
 200 333.333007812 l 1
 200 266.666992188 l 1025
66.6669921875 200 m 1
 466.666992188 200 l 1
 466.666992188 266.666992188 l 1
 66.6669921875 266.666992188 l 1
 66.6669921875 200 l 1025
200 133.333007812 m 1
 333.333007812 133.333007812 l 1
 333.333007812 200 l 1
 200 200 l 1
 200 133.333007812 l 1025
200 66.6669921875 m 1
 333.333007812 66.6669921875 l 1
 333.333007812 133.333007812 l 1
 200 133.333007812 l 1
 200 66.6669921875 l 1025
200 -0 m 1
 333.333007812 -0 l 1
 333.333007812 66.6669921875 l 1
 200 66.6669921875 l 1
 200 -0 l 1
EndSplineSet
EndChar

StartChar: brokenbar
Encoding: 166 166 102
Width: 600
VWidth: 0
Flags: HW
LayerCount: 2
Back
Fore
SplineSet
266.666992188 600 m 1
 400 600 l 1
 400 666.666992188 l 1
 266.666992188 666.666992188 l 1
 266.666992188 600 l 1025
266.666992188 533.333007812 m 1
 400 533.333007812 l 1
 400 600 l 1
 266.666992188 600 l 1
 266.666992188 533.333007812 l 1025
266.666992188 466.666992188 m 1
 400 466.666992188 l 1
 400 533.333007812 l 1
 266.666992188 533.333007812 l 1
 266.666992188 466.666992188 l 1025
266.666992188 400 m 1
 400 400 l 1
 400 466.666992188 l 1
 266.666992188 466.666992188 l 1
 266.666992188 400 l 1025
266.666992188 333.333007812 m 1
 400 333.333007812 l 1
 400 400 l 1
 266.666992188 400 l 1
 266.666992188 333.333007812 l 1025
266.666992188 133.333007812 m 1
 400 133.333007812 l 1
 400 200 l 1
 266.666992188 200 l 1
 266.666992188 133.333007812 l 1025
266.666992188 66.6669921875 m 1
 400 66.6669921875 l 1
 400 133.333007812 l 1
 266.666992188 133.333007812 l 1
 266.666992188 66.6669921875 l 1025
266.666992188 -0 m 1
 400 -0 l 1
 400 66.6669921875 l 1
 266.666992188 66.6669921875 l 1
 266.666992188 -0 l 1025
266.666992188 -66.6669921875 m 1
 400 -66.6669921875 l 1
 400 -0 l 1
 266.666992188 -0 l 1
 266.666992188 -66.6669921875 l 1
EndSplineSet
EndChar

StartChar: section
Encoding: 167 167 103
Width: 600
VWidth: 0
Flags: HW
LayerCount: 2
Back
Fore
SplineSet
133.333007812 600 m 1
 400 600 l 1
 400 666.666992188 l 1
 133.333007812 666.666992188 l 1
 133.333007812 600 l 1025
66.6669921875 533.333007812 m 1
 200 533.333007812 l 1
 200 600 l 1
 66.6669921875 600 l 1
 66.6669921875 533.333007812 l 1025
333.333007812 533.333007812 m 1
 466.666992188 533.333007812 l 1
 466.666992188 600 l 1
 333.333007812 600 l 1
 333.333007812 533.333007812 l 1025
66.6669921875 466.666992188 m 1
 200 466.666992188 l 1
 200 533.333007812 l 1
 66.6669921875 533.333007812 l 1
 66.6669921875 466.666992188 l 1025
133.333007812 400 m 1
 400 400 l 1
 400 466.666992188 l 1
 133.333007812 466.666992188 l 1
 133.333007812 400 l 1025
66.6669921875 333.333007812 m 1
 200 333.333007812 l 1
 200 400 l 1
 66.6669921875 400 l 1
 66.6669921875 333.333007812 l 1025
333.333007812 333.333007812 m 1
 466.666992188 333.333007812 l 1
 466.666992188 400 l 1
 333.333007812 400 l 1
 333.333007812 333.333007812 l 1025
66.6669921875 266.666992188 m 1
 200 266.666992188 l 1
 200 333.333007812 l 1
 66.6669921875 333.333007812 l 1
 66.6669921875 266.666992188 l 1025
333.333007812 266.666992188 m 1
 466.666992188 266.666992188 l 1
 466.666992188 333.333007812 l 1
 333.333007812 333.333007812 l 1
 333.333007812 266.666992188 l 1025
66.6669921875 200 m 1
 200 200 l 1
 200 266.666992188 l 1
 66.6669921875 266.666992188 l 1
 66.6669921875 200 l 1025
333.333007812 200 m 1
 466.666992188 200 l 1
 466.666992188 266.666992188 l 1
 333.333007812 266.666992188 l 1
 333.333007812 200 l 1025
133.333007812 133.333007812 m 1
 400 133.333007812 l 1
 400 200 l 1
 133.333007812 200 l 1
 133.333007812 133.333007812 l 1025
333.333007812 66.6669921875 m 1
 466.666992188 66.6669921875 l 1
 466.666992188 133.333007812 l 1
 333.333007812 133.333007812 l 1
 333.333007812 66.6669921875 l 1025
66.6669921875 -0 m 1
 200 -0 l 1
 200 66.6669921875 l 1
 66.6669921875 66.6669921875 l 1
 66.6669921875 -0 l 1025
333.333007812 -0 m 1
 466.666992188 -0 l 1
 466.666992188 66.6669921875 l 1
 333.333007812 66.6669921875 l 1
 333.333007812 -0 l 1025
133.333007812 -66.6669921875 m 1
 400 -66.6669921875 l 1
 400 -0 l 1
 133.333007812 -0 l 1
 133.333007812 -66.6669921875 l 1
EndSplineSet
EndChar

StartChar: dieresis
Encoding: 168 168 104
Width: 600
VWidth: 0
Flags: HW
LayerCount: 2
Back
Fore
SplineSet
66.6669921875 666.666992188 m 1
 200 666.666992188 l 1
 200 733.333007812 l 1
 66.6669921875 733.333007812 l 1
 66.6669921875 666.666992188 l 1025
333.333007812 666.666992188 m 1
 466.666992188 666.666992188 l 1
 466.666992188 733.333007812 l 1
 333.333007812 733.333007812 l 1
 333.333007812 666.666992188 l 1025
66.6669921875 600 m 1
 200 600 l 1
 200 666.666992188 l 1
 66.6669921875 666.666992188 l 1
 66.6669921875 600 l 1025
333.333007812 600 m 1
 466.666992188 600 l 1
 466.666992188 666.666992188 l 1
 333.333007812 666.666992188 l 1
 333.333007812 600 l 1
EndSplineSet
EndChar

StartChar: copyright
Encoding: 169 169 105
Width: 600
VWidth: 0
Flags: HW
LayerCount: 2
Back
Fore
SplineSet
133.333007812 666.666992188 m 1
 400 666.666992188 l 1
 400 733.333007812 l 1
 133.333007812 733.333007812 l 1
 133.333007812 666.666992188 l 1025
66.6669921875 600 m 1
 466.666992188 600 l 1
 466.666992188 666.666992188 l 1
 66.6669921875 666.666992188 l 1
 66.6669921875 600 l 1025
0 533.333007812 m 1
 133.333007812 533.333007812 l 1
 133.333007812 600 l 1
 0 600 l 1
 0 533.333007812 l 1025
400 533.333007812 m 1
 533.333007812 533.333007812 l 1
 533.333007812 600 l 1
 400 600 l 1
 400 533.333007812 l 1025
0 466.666992188 m 1
 66.6669921875 466.666992188 l 1
 66.6669921875 533.333007812 l 1
 0 533.333007812 l 1
 0 466.666992188 l 1025
133.333007812 466.666992188 m 1
 400 466.666992188 l 1
 400 533.333007812 l 1
 133.333007812 533.333007812 l 1
 133.333007812 466.666992188 l 1025
466.666992188 466.666992188 m 1
 533.333007812 466.666992188 l 1
 533.333007812 533.333007812 l 1
 466.666992188 533.333007812 l 1
 466.666992188 466.666992188 l 1025
0 400 m 1
 66.6669921875 400 l 1
 66.6669921875 466.666992188 l 1
 0 466.666992188 l 1
 0 400 l 1025
133.333007812 400 m 1
 200 400 l 1
 200 466.666992188 l 1
 133.333007812 466.666992188 l 1
 133.333007812 400 l 1025
333.333007812 400 m 1
 400 400 l 1
 400 466.666992188 l 1
 333.333007812 466.666992188 l 1
 333.333007812 400 l 1025
466.666992188 400 m 1
 533.333007812 400 l 1
 533.333007812 466.666992188 l 1
 466.666992188 466.666992188 l 1
 466.666992188 400 l 1025
0 333.333007812 m 1
 66.6669921875 333.333007812 l 1
 66.6669921875 400 l 1
 0 400 l 1
 0 333.333007812 l 1025
133.333007812 333.333007812 m 1
 200 333.333007812 l 1
 200 400 l 1
 133.333007812 400 l 1
 133.333007812 333.333007812 l 1025
466.666992188 333.333007812 m 1
 533.333007812 333.333007812 l 1
 533.333007812 400 l 1
 466.666992188 400 l 1
 466.666992188 333.333007812 l 1025
0 266.666992188 m 1
 66.6669921875 266.666992188 l 1
 66.6669921875 333.333007812 l 1
 0 333.333007812 l 1
 0 266.666992188 l 1025
133.333007812 266.666992188 m 1
 200 266.666992188 l 1
 200 333.333007812 l 1
 133.333007812 333.333007812 l 1
 133.333007812 266.666992188 l 1025
333.333007812 266.666992188 m 1
 400 266.666992188 l 1
 400 333.333007812 l 1
 333.333007812 333.333007812 l 1
 333.333007812 266.666992188 l 1025
466.666992188 266.666992188 m 1
 533.333007812 266.666992188 l 1
 533.333007812 333.333007812 l 1
 466.666992188 333.333007812 l 1
 466.666992188 266.666992188 l 1025
0 200 m 1
 66.6669921875 200 l 1
 66.6669921875 266.666992188 l 1
 0 266.666992188 l 1
 0 200 l 1025
133.333007812 200 m 1
 400 200 l 1
 400 266.666992188 l 1
 133.333007812 266.666992188 l 1
 133.333007812 200 l 1025
466.666992188 200 m 1
 533.333007812 200 l 1
 533.333007812 266.666992188 l 1
 466.666992188 266.666992188 l 1
 466.666992188 200 l 1025
0 133.333007812 m 1
 133.333007812 133.333007812 l 1
 133.333007812 200 l 1
 0 200 l 1
 0 133.333007812 l 1025
400 133.333007812 m 1
 533.333007812 133.333007812 l 1
 533.333007812 200 l 1
 400 200 l 1
 400 133.333007812 l 1025
66.6669921875 66.6669921875 m 1
 466.666992188 66.6669921875 l 1
 466.666992188 133.333007812 l 1
 66.6669921875 133.333007812 l 1
 66.6669921875 66.6669921875 l 1025
133.333007812 -0 m 1
 400 -0 l 1
 400 66.6669921875 l 1
 133.333007812 66.6669921875 l 1
 133.333007812 -0 l 1
EndSplineSet
EndChar

StartChar: ordfeminine
Encoding: 170 170 106
Width: 600
VWidth: 0
Flags: HW
LayerCount: 2
Back
Fore
SplineSet
66.6669921875 600 m 1
 333.333007812 600 l 1
 333.333007812 666.666992188 l 1
 66.6669921875 666.666992188 l 1
 66.6669921875 600 l 1025
266.666992188 533.333007812 m 1
 400 533.333007812 l 1
 400 600 l 1
 266.666992188 600 l 1
 266.666992188 533.333007812 l 1025
66.6669921875 466.666992188 m 1
 400 466.666992188 l 1
 400 533.333007812 l 1
 66.6669921875 533.333007812 l 1
 66.6669921875 466.666992188 l 1025
66.6669921875 400 m 1
 133.333007812 400 l 1
 133.333007812 466.666992188 l 1
 66.6669921875 466.666992188 l 1
 66.6669921875 400 l 1025
266.666992188 400 m 1
 400 400 l 1
 400 466.666992188 l 1
 266.666992188 466.666992188 l 1
 266.666992188 400 l 1025
66.6669921875 333.333007812 m 1
 400 333.333007812 l 1
 400 400 l 1
 66.6669921875 400 l 1
 66.6669921875 333.333007812 l 1025
66.6669921875 200 m 1
 400 200 l 1
 400 266.666992188 l 1
 66.6669921875 266.666992188 l 1
 66.6669921875 200 l 1
EndSplineSet
EndChar

StartChar: guillemotleft
Encoding: 171 171 107
Width: 600
VWidth: 0
Flags: HW
LayerCount: 2
Back
Fore
SplineSet
200 533.333007812 m 1
 333.333007812 533.333007812 l 1
 333.333007812 600 l 1
 200 600 l 1
 200 533.333007812 l 1025
400 533.333007812 m 1
 533.333007812 533.333007812 l 1
 533.333007812 600 l 1
 400 600 l 1
 400 533.333007812 l 1025
133.333007812 466.666992188 m 1
 266.666992188 466.666992188 l 1
 266.666992188 533.333007812 l 1
 133.333007812 533.333007812 l 1
 133.333007812 466.666992188 l 1025
333.333007812 466.666992188 m 1
 466.666992188 466.666992188 l 1
 466.666992188 533.333007812 l 1
 333.333007812 533.333007812 l 1
 333.333007812 466.666992188 l 1025
66.6669921875 400 m 1
 200 400 l 1
 200 466.666992188 l 1
 66.6669921875 466.666992188 l 1
 66.6669921875 400 l 1025
266.666992188 400 m 1
 400 400 l 1
 400 466.666992188 l 1
 266.666992188 466.666992188 l 1
 266.666992188 400 l 1025
0 333.333007812 m 1
 133.333007812 333.333007812 l 1
 133.333007812 400 l 1
 0 400 l 1
 0 333.333007812 l 1025
200 333.333007812 m 1
 333.333007812 333.333007812 l 1
 333.333007812 400 l 1
 200 400 l 1
 200 333.333007812 l 1025
0 266.666992188 m 1
 133.333007812 266.666992188 l 1
 133.333007812 333.333007812 l 1
 0 333.333007812 l 1
 0 266.666992188 l 1025
200 266.666992188 m 1
 333.333007812 266.666992188 l 1
 333.333007812 333.333007812 l 1
 200 333.333007812 l 1
 200 266.666992188 l 1025
66.6669921875 200 m 1
 200 200 l 1
 200 266.666992188 l 1
 66.6669921875 266.666992188 l 1
 66.6669921875 200 l 1025
266.666992188 200 m 1
 400 200 l 1
 400 266.666992188 l 1
 266.666992188 266.666992188 l 1
 266.666992188 200 l 1025
133.333007812 133.333007812 m 1
 266.666992188 133.333007812 l 1
 266.666992188 200 l 1
 133.333007812 200 l 1
 133.333007812 133.333007812 l 1025
333.333007812 133.333007812 m 1
 466.666992188 133.333007812 l 1
 466.666992188 200 l 1
 333.333007812 200 l 1
 333.333007812 133.333007812 l 1025
200 66.6669921875 m 1
 333.333007812 66.6669921875 l 1
 333.333007812 133.333007812 l 1
 200 133.333007812 l 1
 200 66.6669921875 l 1025
400 66.6669921875 m 1
 533.333007812 66.6669921875 l 1
 533.333007812 133.333007812 l 1
 400 133.333007812 l 1
 400 66.6669921875 l 1
EndSplineSet
EndChar

StartChar: logicalnot
Encoding: 172 172 108
Width: 600
VWidth: 0
Flags: HW
LayerCount: 2
Back
Fore
SplineSet
66.6669921875 400 m 1
 533.333007812 400 l 1
 533.333007812 466.666992188 l 1
 66.6669921875 466.666992188 l 1
 66.6669921875 400 l 1025
66.6669921875 333.333007812 m 1
 533.333007812 333.333007812 l 1
 533.333007812 400 l 1
 66.6669921875 400 l 1
 66.6669921875 333.333007812 l 1025
400 266.666992188 m 1
 533.333007812 266.666992188 l 1
 533.333007812 333.333007812 l 1
 400 333.333007812 l 1
 400 266.666992188 l 1025
400 200 m 1
 533.333007812 200 l 1
 533.333007812 266.666992188 l 1
 400 266.666992188 l 1
 400 200 l 1025
400 133.333007812 m 1
 533.333007812 133.333007812 l 1
 533.333007812 200 l 1
 400 200 l 1
 400 133.333007812 l 1
EndSplineSet
EndChar

StartChar: hyphen
Encoding: 45 45 109
Width: 600
VWidth: 0
Flags: HW
LayerCount: 2
Back
Fore
SplineSet
66.6669921875 266.666992188 m 1
 466.666992188 266.666992188 l 1
 466.666992188 333.333007812 l 1
 66.6669921875 333.333007812 l 1
 66.6669921875 266.666992188 l 1
EndSplineSet
EndChar

StartChar: registered
Encoding: 174 174 110
Width: 600
VWidth: 0
Flags: HW
LayerCount: 2
Back
Fore
SplineSet
133.333007812 666.666992188 m 1
 400 666.666992188 l 1
 400 733.333007812 l 1
 133.333007812 733.333007812 l 1
 133.333007812 666.666992188 l 1025
66.6669921875 600 m 1
 466.666992188 600 l 1
 466.666992188 666.666992188 l 1
 66.6669921875 666.666992188 l 1
 66.6669921875 600 l 1025
0 533.333007812 m 1
 133.333007812 533.333007812 l 1
 133.333007812 600 l 1
 0 600 l 1
 0 533.333007812 l 1025
400 533.333007812 m 1
 533.333007812 533.333007812 l 1
 533.333007812 600 l 1
 400 600 l 1
 400 533.333007812 l 1025
0 466.666992188 m 1
 66.6669921875 466.666992188 l 1
 66.6669921875 533.333007812 l 1
 0 533.333007812 l 1
 0 466.666992188 l 1025
133.333007812 466.666992188 m 1
 400 466.666992188 l 1
 400 533.333007812 l 1
 133.333007812 533.333007812 l 1
 133.333007812 466.666992188 l 1025
466.666992188 466.666992188 m 1
 533.333007812 466.666992188 l 1
 533.333007812 533.333007812 l 1
 466.666992188 533.333007812 l 1
 466.666992188 466.666992188 l 1025
0 400 m 1
 66.6669921875 400 l 1
 66.6669921875 466.666992188 l 1
 0 466.666992188 l 1
 0 400 l 1025
133.333007812 400 m 1
 200 400 l 1
 200 466.666992188 l 1
 133.333007812 466.666992188 l 1
 133.333007812 400 l 1025
333.333007812 400 m 1
 400 400 l 1
 400 466.666992188 l 1
 333.333007812 466.666992188 l 1
 333.333007812 400 l 1025
466.666992188 400 m 1
 533.333007812 400 l 1
 533.333007812 466.666992188 l 1
 466.666992188 466.666992188 l 1
 466.666992188 400 l 1025
0 333.333007812 m 1
 66.6669921875 333.333007812 l 1
 66.6669921875 400 l 1
 0 400 l 1
 0 333.333007812 l 1025
133.333007812 333.333007812 m 1
 400 333.333007812 l 1
 400 400 l 1
 133.333007812 400 l 1
 133.333007812 333.333007812 l 1025
466.666992188 333.333007812 m 1
 533.333007812 333.333007812 l 1
 533.333007812 400 l 1
 466.666992188 400 l 1
 466.666992188 333.333007812 l 1025
0 266.666992188 m 1
 66.6669921875 266.666992188 l 1
 66.6669921875 333.333007812 l 1
 0 333.333007812 l 1
 0 266.666992188 l 1025
133.333007812 266.666992188 m 1
 200 266.666992188 l 1
 200 333.333007812 l 1
 133.333007812 333.333007812 l 1
 133.333007812 266.666992188 l 1025
266.666992188 266.666992188 m 1
 333.333007812 266.666992188 l 1
 333.333007812 333.333007812 l 1
 266.666992188 333.333007812 l 1
 266.666992188 266.666992188 l 1025
466.666992188 266.666992188 m 1
 533.333007812 266.666992188 l 1
 533.333007812 333.333007812 l 1
 466.666992188 333.333007812 l 1
 466.666992188 266.666992188 l 1025
0 200 m 1
 66.6669921875 200 l 1
 66.6669921875 266.666992188 l 1
 0 266.666992188 l 1
 0 200 l 1025
133.333007812 200 m 1
 200 200 l 1
 200 266.666992188 l 1
 133.333007812 266.666992188 l 1
 133.333007812 200 l 1025
266.666992188 200 m 1
 400 200 l 1
 400 266.666992188 l 1
 266.666992188 266.666992188 l 1
 266.666992188 200 l 1025
466.666992188 200 m 1
 533.333007812 200 l 1
 533.333007812 266.666992188 l 1
 466.666992188 266.666992188 l 1
 466.666992188 200 l 1025
0 133.333007812 m 1
 133.333007812 133.333007812 l 1
 133.333007812 200 l 1
 0 200 l 1
 0 133.333007812 l 1025
400 133.333007812 m 1
 533.333007812 133.333007812 l 1
 533.333007812 200 l 1
 400 200 l 1
 400 133.333007812 l 1025
66.6669921875 66.6669921875 m 1
 466.666992188 66.6669921875 l 1
 466.666992188 133.333007812 l 1
 66.6669921875 133.333007812 l 1
 66.6669921875 66.6669921875 l 1025
133.333007812 -0 m 1
 400 -0 l 1
 400 66.6669921875 l 1
 133.333007812 66.6669921875 l 1
 133.333007812 -0 l 1
EndSplineSet
EndChar

StartChar: macron
Encoding: 175 175 111
Width: 600
VWidth: 0
Flags: HW
LayerCount: 2
Back
Fore
SplineSet
66.6669921875 666.666992188 m 1
 466.666992188 666.666992188 l 1
 466.666992188 733.333007812 l 1
 66.6669921875 733.333007812 l 1
 66.6669921875 666.666992188 l 1025
66.6669921875 600 m 1
 466.666992188 600 l 1
 466.666992188 666.666992188 l 1
 66.6669921875 666.666992188 l 1
 66.6669921875 600 l 1
EndSplineSet
EndChar

StartChar: degree
Encoding: 176 176 112
Width: 600
VWidth: 0
Flags: HW
LayerCount: 2
Back
Fore
SplineSet
200 600 m 1
 466.666992188 600 l 1
 466.666992188 666.666992188 l 1
 200 666.666992188 l 1
 200 600 l 1025
133.333007812 533.333007812 m 1
 266.666992188 533.333007812 l 1
 266.666992188 600 l 1
 133.333007812 600 l 1
 133.333007812 533.333007812 l 1025
400 533.333007812 m 1
 533.333007812 533.333007812 l 1
 533.333007812 600 l 1
 400 600 l 1
 400 533.333007812 l 1025
133.333007812 466.666992188 m 1
 266.666992188 466.666992188 l 1
 266.666992188 533.333007812 l 1
 133.333007812 533.333007812 l 1
 133.333007812 466.666992188 l 1025
400 466.666992188 m 1
 533.333007812 466.666992188 l 1
 533.333007812 533.333007812 l 1
 400 533.333007812 l 1
 400 466.666992188 l 1025
200 400 m 1
 466.666992188 400 l 1
 466.666992188 466.666992188 l 1
 200 466.666992188 l 1
 200 400 l 1
EndSplineSet
EndChar

StartChar: plusminus
Encoding: 177 177 113
Width: 600
VWidth: 0
Flags: HW
LayerCount: 2
Back
Fore
SplineSet
200 600 m 1
 333.333007812 600 l 1
 333.333007812 666.666992188 l 1
 200 666.666992188 l 1
 200 600 l 1025
200 533.333007812 m 1
 333.333007812 533.333007812 l 1
 333.333007812 600 l 1
 200 600 l 1
 200 533.333007812 l 1025
200 466.666992188 m 1
 333.333007812 466.666992188 l 1
 333.333007812 533.333007812 l 1
 200 533.333007812 l 1
 200 466.666992188 l 1025
0 400 m 1
 533.333007812 400 l 1
 533.333007812 466.666992188 l 1
 0 466.666992188 l 1
 0 400 l 1025
0 333.333007812 m 1
 533.333007812 333.333007812 l 1
 533.333007812 400 l 1
 0 400 l 1
 0 333.333007812 l 1025
200 266.666992188 m 1
 333.333007812 266.666992188 l 1
 333.333007812 333.333007812 l 1
 200 333.333007812 l 1
 200 266.666992188 l 1025
200 200 m 1
 333.333007812 200 l 1
 333.333007812 266.666992188 l 1
 200 266.666992188 l 1
 200 200 l 1025
200 133.333007812 m 1
 333.333007812 133.333007812 l 1
 333.333007812 200 l 1
 200 200 l 1
 200 133.333007812 l 1025
0 66.6669921875 m 1
 533.333007812 66.6669921875 l 1
 533.333007812 133.333007812 l 1
 0 133.333007812 l 1
 0 66.6669921875 l 1025
0 -0 m 1
 533.333007812 -0 l 1
 533.333007812 66.6669921875 l 1
 0 66.6669921875 l 1
 0 -0 l 1
EndSplineSet
EndChar

StartChar: twosuperior
Encoding: 178 178 114
Width: 600
VWidth: 0
Flags: HW
LayerCount: 2
Back
Fore
SplineSet
133.333007812 666.666992188 m 1
 333.333007812 666.666992188 l 1
 333.333007812 733.333007812 l 1
 133.333007812 733.333007812 l 1
 133.333007812 666.666992188 l 1025
66.6669921875 600 m 1
 133.333007812 600 l 1
 133.333007812 666.666992188 l 1
 66.6669921875 666.666992188 l 1
 66.6669921875 600 l 1025
266.666992188 600 m 1
 400 600 l 1
 400 666.666992188 l 1
 266.666992188 666.666992188 l 1
 266.666992188 600 l 1025
266.666992188 533.333007812 m 1
 400 533.333007812 l 1
 400 600 l 1
 266.666992188 600 l 1
 266.666992188 533.333007812 l 1025
200 466.666992188 m 1
 333.333007812 466.666992188 l 1
 333.333007812 533.333007812 l 1
 200 533.333007812 l 1
 200 466.666992188 l 1025
133.333007812 400 m 1
 266.666992188 400 l 1
 266.666992188 466.666992188 l 1
 133.333007812 466.666992188 l 1
 133.333007812 400 l 1025
66.6669921875 333.333007812 m 1
 200 333.333007812 l 1
 200 400 l 1
 66.6669921875 400 l 1
 66.6669921875 333.333007812 l 1025
66.6669921875 266.666992188 m 1
 400 266.666992188 l 1
 400 333.333007812 l 1
 66.6669921875 333.333007812 l 1
 66.6669921875 266.666992188 l 1
EndSplineSet
EndChar

StartChar: threesuperior
Encoding: 179 179 115
Width: 600
VWidth: 0
Flags: HW
LayerCount: 2
Back
Fore
SplineSet
133.333007812 666.666992188 m 1
 333.333007812 666.666992188 l 1
 333.333007812 733.333007812 l 1
 133.333007812 733.333007812 l 1
 133.333007812 666.666992188 l 1025
66.6669921875 600 m 1
 133.333007812 600 l 1
 133.333007812 666.666992188 l 1
 66.6669921875 666.666992188 l 1
 66.6669921875 600 l 1025
266.666992188 600 m 1
 400 600 l 1
 400 666.666992188 l 1
 266.666992188 666.666992188 l 1
 266.666992188 600 l 1025
266.666992188 533.333007812 m 1
 400 533.333007812 l 1
 400 600 l 1
 266.666992188 600 l 1
 266.666992188 533.333007812 l 1025
200 466.666992188 m 1
 333.333007812 466.666992188 l 1
 333.333007812 533.333007812 l 1
 200 533.333007812 l 1
 200 466.666992188 l 1025
266.666992188 400 m 1
 400 400 l 1
 400 466.666992188 l 1
 266.666992188 466.666992188 l 1
 266.666992188 400 l 1025
66.6669921875 333.333007812 m 1
 133.333007812 333.333007812 l 1
 133.333007812 400 l 1
 66.6669921875 400 l 1
 66.6669921875 333.333007812 l 1025
266.666992188 333.333007812 m 1
 400 333.333007812 l 1
 400 400 l 1
 266.666992188 400 l 1
 266.666992188 333.333007812 l 1025
133.333007812 266.666992188 m 1
 333.333007812 266.666992188 l 1
 333.333007812 333.333007812 l 1
 133.333007812 333.333007812 l 1
 133.333007812 266.666992188 l 1
EndSplineSet
EndChar

StartChar: acute
Encoding: 180 180 116
Width: 600
VWidth: 0
Flags: HW
LayerCount: 2
Back
Fore
SplineSet
266.666992188 666.666992188 m 1
 400 666.666992188 l 1
 400 733.333007812 l 1
 266.666992188 733.333007812 l 1
 266.666992188 666.666992188 l 1025
200 600 m 1
 333.333007812 600 l 1
 333.333007812 666.666992188 l 1
 200 666.666992188 l 1
 200 600 l 1025
133.333007812 533.333007812 m 1
 266.666992188 533.333007812 l 1
 266.666992188 600 l 1
 133.333007812 600 l 1
 133.333007812 533.333007812 l 1
EndSplineSet
EndChar

StartChar: mu
Encoding: 181 181 117
Width: 600
VWidth: 0
Flags: HW
LayerCount: 2
Back
Fore
SplineSet
66.6669921875 400 m 1
 200 400 l 1
 200 466.666992188 l 1
 66.6669921875 466.666992188 l 1
 66.6669921875 400 l 1025
400 400 m 1
 533.333007812 400 l 1
 533.333007812 466.666992188 l 1
 400 466.666992188 l 1
 400 400 l 1025
66.6669921875 333.333007812 m 1
 200 333.333007812 l 1
 200 400 l 1
 66.6669921875 400 l 1
 66.6669921875 333.333007812 l 1025
400 333.333007812 m 1
 533.333007812 333.333007812 l 1
 533.333007812 400 l 1
 400 400 l 1
 400 333.333007812 l 1025
66.6669921875 266.666992188 m 1
 200 266.666992188 l 1
 200 333.333007812 l 1
 66.6669921875 333.333007812 l 1
 66.6669921875 266.666992188 l 1025
400 266.666992188 m 1
 533.333007812 266.666992188 l 1
 533.333007812 333.333007812 l 1
 400 333.333007812 l 1
 400 266.666992188 l 1025
66.6669921875 200 m 1
 200 200 l 1
 200 266.666992188 l 1
 66.6669921875 266.666992188 l 1
 66.6669921875 200 l 1025
400 200 m 1
 533.333007812 200 l 1
 533.333007812 266.666992188 l 1
 400 266.666992188 l 1
 400 200 l 1025
66.6669921875 133.333007812 m 1
 200 133.333007812 l 1
 200 200 l 1
 66.6669921875 200 l 1
 66.6669921875 133.333007812 l 1025
400 133.333007812 m 1
 533.333007812 133.333007812 l 1
 533.333007812 200 l 1
 400 200 l 1
 400 133.333007812 l 1025
66.6669921875 66.6669921875 m 1
 266.666992188 66.6669921875 l 1
 266.666992188 133.333007812 l 1
 66.6669921875 133.333007812 l 1
 66.6669921875 66.6669921875 l 1025
333.333007812 66.6669921875 m 1
 533.333007812 66.6669921875 l 1
 533.333007812 133.333007812 l 1
 333.333007812 133.333007812 l 1
 333.333007812 66.6669921875 l 1025
66.6669921875 -0 m 1
 400 -0 l 1
 400 66.6669921875 l 1
 66.6669921875 66.6669921875 l 1
 66.6669921875 -0 l 1025
466.666992188 -0 m 1
 533.333007812 -0 l 1
 533.333007812 66.6669921875 l 1
 466.666992188 66.6669921875 l 1
 466.666992188 -0 l 1025
66.6669921875 -66.6669921875 m 1
 200 -66.6669921875 l 1
 200 -0 l 1
 66.6669921875 -0 l 1
 66.6669921875 -66.6669921875 l 1025
66.6669921875 -133.333007812 m 1
 200 -133.333007812 l 1
 200 -66.6669921875 l 1
 66.6669921875 -66.6669921875 l 1
 66.6669921875 -133.333007812 l 1025
66.6669921875 -200 m 1
 200 -200 l 1
 200 -133.333007812 l 1
 66.6669921875 -133.333007812 l 1
 66.6669921875 -200 l 1
EndSplineSet
EndChar

StartChar: paragraph
Encoding: 182 182 118
Width: 600
VWidth: 0
Flags: HW
LayerCount: 2
Back
Fore
SplineSet
133.333007812 600 m 1
 533.333007812 600 l 1
 533.333007812 666.666992188 l 1
 133.333007812 666.666992188 l 1
 133.333007812 600 l 1025
66.6669921875 533.333007812 m 1
 533.333007812 533.333007812 l 1
 533.333007812 600 l 1
 66.6669921875 600 l 1
 66.6669921875 533.333007812 l 1025
66.6669921875 466.666992188 m 1
 333.333007812 466.666992188 l 1
 333.333007812 533.333007812 l 1
 66.6669921875 533.333007812 l 1
 66.6669921875 466.666992188 l 1025
400 466.666992188 m 1
 533.333007812 466.666992188 l 1
 533.333007812 533.333007812 l 1
 400 533.333007812 l 1
 400 466.666992188 l 1025
66.6669921875 400 m 1
 333.333007812 400 l 1
 333.333007812 466.666992188 l 1
 66.6669921875 466.666992188 l 1
 66.6669921875 400 l 1025
400 400 m 1
 533.333007812 400 l 1
 533.333007812 466.666992188 l 1
 400 466.666992188 l 1
 400 400 l 1025
66.6669921875 333.333007812 m 1
 333.333007812 333.333007812 l 1
 333.333007812 400 l 1
 66.6669921875 400 l 1
 66.6669921875 333.333007812 l 1025
400 333.333007812 m 1
 533.333007812 333.333007812 l 1
 533.333007812 400 l 1
 400 400 l 1
 400 333.333007812 l 1025
133.333007812 266.666992188 m 1
 333.333007812 266.666992188 l 1
 333.333007812 333.333007812 l 1
 133.333007812 333.333007812 l 1
 133.333007812 266.666992188 l 1025
400 266.666992188 m 1
 533.333007812 266.666992188 l 1
 533.333007812 333.333007812 l 1
 400 333.333007812 l 1
 400 266.666992188 l 1025
200 200 m 1
 333.333007812 200 l 1
 333.333007812 266.666992188 l 1
 200 266.666992188 l 1
 200 200 l 1025
400 200 m 1
 533.333007812 200 l 1
 533.333007812 266.666992188 l 1
 400 266.666992188 l 1
 400 200 l 1025
200 133.333007812 m 1
 333.333007812 133.333007812 l 1
 333.333007812 200 l 1
 200 200 l 1
 200 133.333007812 l 1025
400 133.333007812 m 1
 533.333007812 133.333007812 l 1
 533.333007812 200 l 1
 400 200 l 1
 400 133.333007812 l 1025
200 66.6669921875 m 1
 333.333007812 66.6669921875 l 1
 333.333007812 133.333007812 l 1
 200 133.333007812 l 1
 200 66.6669921875 l 1025
400 66.6669921875 m 1
 533.333007812 66.6669921875 l 1
 533.333007812 133.333007812 l 1
 400 133.333007812 l 1
 400 66.6669921875 l 1025
200 -0 m 1
 333.333007812 -0 l 1
 333.333007812 66.6669921875 l 1
 200 66.6669921875 l 1
 200 -0 l 1025
400 -0 m 1
 533.333007812 -0 l 1
 533.333007812 66.6669921875 l 1
 400 66.6669921875 l 1
 400 -0 l 1
EndSplineSet
EndChar

StartChar: periodcentered
Encoding: 183 183 119
Width: 600
VWidth: 0
Flags: HW
LayerCount: 2
Back
Fore
SplineSet
266.666992188 333.333007812 m 1
 333.333007812 333.333007812 l 1
 333.333007812 400 l 1
 266.666992188 400 l 1
 266.666992188 333.333007812 l 1025
200 266.666992188 m 1
 400 266.666992188 l 1
 400 333.333007812 l 1
 200 333.333007812 l 1
 200 266.666992188 l 1025
266.666992188 200 m 1
 333.333007812 200 l 1
 333.333007812 266.666992188 l 1
 266.666992188 266.666992188 l 1
 266.666992188 200 l 1
EndSplineSet
EndChar

StartChar: cedilla
Encoding: 184 184 120
Width: 600
VWidth: 0
Flags: HW
LayerCount: 2
Back
Fore
SplineSet
333.333007812 -66.6669921875 m 1
 466.666992188 -66.6669921875 l 1
 466.666992188 -0 l 1
 333.333007812 -0 l 1
 333.333007812 -66.6669921875 l 1025
133.333007812 -133.333007812 m 1
 266.666992188 -133.333007812 l 1
 266.666992188 -66.6669921875 l 1
 133.333007812 -66.6669921875 l 1
 133.333007812 -133.333007812 l 1025
333.333007812 -133.333007812 m 1
 466.666992188 -133.333007812 l 1
 466.666992188 -66.6669921875 l 1
 333.333007812 -66.6669921875 l 1
 333.333007812 -133.333007812 l 1025
200 -200 m 1
 400 -200 l 1
 400 -133.333007812 l 1
 200 -133.333007812 l 1
 200 -200 l 1
EndSplineSet
EndChar

StartChar: onesuperior
Encoding: 185 185 121
Width: 600
VWidth: 0
Flags: HW
LayerCount: 2
Back
Fore
SplineSet
133.333007812 666.666992188 m 1
 266.666992188 666.666992188 l 1
 266.666992188 733.333007812 l 1
 133.333007812 733.333007812 l 1
 133.333007812 666.666992188 l 1025
66.6669921875 600 m 1
 266.666992188 600 l 1
 266.666992188 666.666992188 l 1
 66.6669921875 666.666992188 l 1
 66.6669921875 600 l 1025
133.333007812 533.333007812 m 1
 266.666992188 533.333007812 l 1
 266.666992188 600 l 1
 133.333007812 600 l 1
 133.333007812 533.333007812 l 1025
133.333007812 466.666992188 m 1
 266.666992188 466.666992188 l 1
 266.666992188 533.333007812 l 1
 133.333007812 533.333007812 l 1
 133.333007812 466.666992188 l 1025
133.333007812 400 m 1
 266.666992188 400 l 1
 266.666992188 466.666992188 l 1
 133.333007812 466.666992188 l 1
 133.333007812 400 l 1025
133.333007812 333.333007812 m 1
 266.666992188 333.333007812 l 1
 266.666992188 400 l 1
 133.333007812 400 l 1
 133.333007812 333.333007812 l 1025
66.6669921875 266.666992188 m 1
 333.333007812 266.666992188 l 1
 333.333007812 333.333007812 l 1
 66.6669921875 333.333007812 l 1
 66.6669921875 266.666992188 l 1
EndSplineSet
EndChar

